<svg width="57" height="50" viewBox="0 0 57 50" fill="none" xmlns="http://www.w3.org/2000/svg">
<g filter="url(#filter0_d_1_3147)">
<g filter="url(#filter1_d_1_3147)">
<ellipse cx="28.5" cy="16" rx="18.5" ry="14" fill="white"/>
</g>
<path d="M26.6143 21.9604C26.5022 21.3501 26.4056 20.8222 26.2823 20.1445C27.7406 21.2222 29.0714 22.2051 30.4694 23.2375C29.1022 24.2589 27.784 25.2446 26.3537 26.3155C26.4532 25.5979 26.5317 25.0288 26.6157 24.4239C25.6519 24.2796 24.7204 24.1778 23.8042 23.9978C21.0502 23.4602 18.4292 22.5846 16.2957 20.715C15.6065 20.1115 14.9915 19.3622 14.5489 18.569C13.5809 16.8342 13.8064 15.0965 14.9145 13.4758C15.9791 11.921 17.5159 10.9367 19.2613 10.105C19.2739 10.6054 19.2417 10.9669 18.8004 11.2831C18.1714 11.7326 17.5481 12.2303 17.055 12.8145C15.6135 14.5205 15.6794 16.4987 17.1586 18.1841C18.163 19.3279 19.4532 20.062 20.8499 20.6421C22.6625 21.3927 24.5621 21.7859 26.6143 21.9604Z" fill="url(#paint0_linear_1_3147)"/>
<path d="M30.8793 24.7303C31.2531 24.4313 31.6268 24.1323 32.0506 23.7922C31.54 23.3862 31.0662 23.0091 30.4688 22.5332C30.8925 22.4728 31.1834 22.4317 31.4742 22.3892C33.4548 22.1025 35.3551 21.5525 37.1081 20.5253C38.1188 19.9342 39.0269 19.2073 39.6625 18.1759C40.5705 16.7015 40.5863 15.1901 39.6151 13.7679C39.1598 13.0999 38.5268 12.55 37.9253 12.0068C37.4239 11.5542 37.3923 11.594 37.4529 10.8726C37.4818 10.8616 37.5187 10.8342 37.5384 10.8438C39.1848 11.6502 40.6298 12.7241 41.5655 14.3905C42.6156 16.2626 42.484 18.1169 41.3009 19.8752C40.0981 21.6623 38.3583 22.7087 36.4672 23.5083C34.7866 24.2188 33.0297 24.6233 31.2307 24.8359C31.1241 24.8483 31.0162 24.8373 30.9083 24.8373C30.8991 24.803 30.8899 24.766 30.8793 24.7303Z" fill="url(#paint1_linear_1_3147)"/>
<path d="M37.3587 15.5122C37.3587 17.1322 35.9989 18.4454 34.3216 18.4454H22.3789C20.7016 18.4454 19.3418 17.1322 19.3418 15.5122V9.51478C19.3418 7.89484 20.7016 6.58159 22.3789 6.58159H23.5064C23.9737 6.58159 24.4115 6.35596 24.6704 5.98036L25.4775 4.81168C25.7377 4.43608 26.1742 4.21045 26.6415 4.21045H30.0577C30.5249 4.21045 30.9628 4.43608 31.2216 4.81168L32.0288 5.98036C32.289 6.35596 32.7254 6.58159 33.1927 6.58159H34.3202C35.9975 6.58159 37.3573 7.89484 37.3573 9.51478V15.5122H37.3587Z" fill="url(#paint2_linear_1_3147)"/>
<path d="M27.7917 14.5248C28.0327 14.5046 28.2033 14.4895 28.4026 14.4732C28.4026 12.9977 28.4026 11.5311 28.4026 10.0468C28.2098 10.0279 28.0418 10.0128 27.797 9.98893C27.797 9.59145 27.7839 9.19648 27.81 8.80277C27.8139 8.73736 27.9871 8.63045 28.0822 8.63045C29.2075 8.62667 30.3367 8.5751 31.4554 8.66189C33.7868 8.84051 35.1374 10.7348 34.6841 13.0933C34.3429 14.8669 33.1004 15.8443 31.053 15.9097C30.0879 15.9411 29.1202 15.9134 28.1538 15.9235C27.9064 15.926 27.7761 15.8644 27.7878 15.5977C27.8022 15.2531 27.7917 14.9072 27.7917 14.5248ZM30.575 10.0481C30.575 11.5374 30.575 13.0028 30.575 14.4644C31.3903 14.5424 31.8983 14.2669 32.16 13.5663C32.4674 12.7449 32.4961 11.9009 32.2187 11.0657C31.9582 10.2808 31.4437 9.96881 30.575 10.0481Z" fill="white"/>
<path d="M26.2374 12.0499C26.7753 12.5178 27.1348 13.0474 27.1244 13.7618C27.1139 14.4989 26.8092 15.0775 26.1905 15.5052C24.8712 16.4184 22.8577 16.1228 21.9512 14.8474C22.2755 14.4977 22.6076 14.1379 22.9631 13.753C23.0999 13.8625 23.2028 13.9945 23.3382 14.0436C23.7185 14.1819 24.1054 14.358 24.5 14.3845C24.9519 14.4147 25.2085 14.0675 25.2033 13.6071C25.1981 13.1568 24.9715 12.9329 24.4818 12.8977C23.5961 12.8335 23.5961 12.8335 23.6144 11.9769C23.617 11.8813 23.6274 11.787 23.6391 11.621C23.9074 11.621 24.1614 11.6348 24.414 11.6184C24.948 11.5845 25.2189 11.3178 25.2007 10.8688C25.1825 10.421 24.8282 10.0725 24.332 10.1543C23.9139 10.2235 23.5245 10.4537 23.066 10.6335C22.8056 10.3103 22.4904 9.91907 22.1817 9.53668C23.0869 8.41216 25.0314 8.17191 26.1436 9.01845C27.1309 9.77064 27.1843 11.0386 26.2374 12.0499Z" fill="white"/>
</g>
<defs>
<filter id="filter0_d_1_3147" x="6" y="0" width="45" height="36" filterUnits="userSpaceOnUse" color-interpolation-filters="sRGB">
<feFlood flood-opacity="0" result="BackgroundImageFix"/>
<feColorMatrix in="SourceAlpha" type="matrix" values="0 0 0 0 0 0 0 0 0 0 0 0 0 0 0 0 0 0 127 0" result="hardAlpha"/>
<feOffset dy="2"/>
<feGaussianBlur stdDeviation="2"/>
<feColorMatrix type="matrix" values="0 0 0 0 0.810009 0 0 0 0 0.810009 0 0 0 0 0.810009 0 0 0 1 0"/>
<feBlend mode="normal" in2="BackgroundImageFix" result="effect1_dropShadow_1_3147"/>
<feBlend mode="normal" in="SourceGraphic" in2="effect1_dropShadow_1_3147" result="shape"/>
</filter>
<filter id="filter1_d_1_3147" x="0" y="2" width="57" height="48" filterUnits="userSpaceOnUse" color-interpolation-filters="sRGB">
<feFlood flood-opacity="0" result="BackgroundImageFix"/>
<feColorMatrix in="SourceAlpha" type="matrix" values="0 0 0 0 0 0 0 0 0 0 0 0 0 0 0 0 0 0 127 0" result="hardAlpha"/>
<feOffset dy="10"/>
<feGaussianBlur stdDeviation="5"/>
<feColorMatrix type="matrix" values="0 0 0 0 0 0 0 0 0 0 0 0 0 0 0 0 0 0 0.1 0"/>
<feBlend mode="normal" in2="BackgroundImageFix" result="effect1_dropShadow_1_3147"/>
<feBlend mode="normal" in="SourceGraphic" in2="effect1_dropShadow_1_3147" result="shape"/>
</filter>
<linearGradient id="paint0_linear_1_3147" x1="24.0519" y1="23.1052" x2="30.0613" y2="10.1561" gradientUnits="userSpaceOnUse">
<stop stop-color="#EC170B"/>
<stop offset="0.75" stop-color="#FC8730"/>
</linearGradient>
<linearGradient id="paint1_linear_1_3147" x1="37.6933" y1="22.0692" x2="43.4936" y2="11.7321" gradientUnits="userSpaceOnUse">
<stop stop-color="#EC170B"/>
<stop offset="0.75" stop-color="#FC8730"/>
</linearGradient>
<linearGradient id="paint2_linear_1_3147" x1="30.3647" y1="15.6263" x2="34.8985" y2="3.50175" gradientUnits="userSpaceOnUse">
<stop stop-color="#EC170B"/>
<stop offset="0.75" stop-color="#FC8730"/>
</linearGradient>
</defs>
</svg>
