<svg width="25" height="23" viewBox="0 0 25 23" fill="none" xmlns="http://www.w3.org/2000/svg">
<path d="M17.9688 0.585938H14.0625C13.7389 0.585938 13.4766 0.848271 13.4766 1.17188V2.34375C13.4766 2.66735 13.7389 2.92969 14.0625 2.92969H17.9688C18.2924 2.92969 18.5547 2.66735 18.5547 2.34375V1.17188C18.5547 0.848271 18.2924 0.585938 17.9688 0.585938Z" fill="#9F9F9F"/>
<path d="M6.64062 9.17969H2.73438C2.57897 9.17969 2.42994 9.24142 2.32005 9.3513C2.21017 9.46119 2.14844 9.61022 2.14844 9.76562C2.14844 9.92103 2.21017 10.0701 2.32005 10.1799C2.42994 10.2898 2.57897 10.3516 2.73438 10.3516H6.64062C6.79603 10.3516 6.94506 10.2898 7.05494 10.1799C7.16483 10.0701 7.22656 9.92103 7.22656 9.76562C7.22656 9.61022 7.16483 9.46119 7.05494 9.3513C6.94506 9.24142 6.79603 9.17969 6.64062 9.17969Z" fill="#9F9F9F"/>
<path d="M6.44531 14.4531C6.44531 14.2977 6.38358 14.1487 6.27369 14.0388C6.16381 13.9289 6.01478 13.8672 5.85938 13.8672H1.95312C1.79772 13.8672 1.64869 13.9289 1.5388 14.0388C1.42892 14.1487 1.36719 14.2977 1.36719 14.4531C1.36719 14.6085 1.42892 14.7576 1.5388 14.8674C1.64869 14.9773 1.79772 15.0391 1.95312 15.0391H5.85938C6.01478 15.0391 6.16381 14.9773 6.27369 14.8674C6.38358 14.7576 6.44531 14.6085 6.44531 14.4531Z" fill="#9F9F9F"/>
<path d="M6.25 16.2109H3.51562C3.36022 16.2109 3.21119 16.2727 3.1013 16.3826C2.99142 16.4924 2.92969 16.6415 2.92969 16.7969C2.92969 16.9523 2.99142 17.1013 3.1013 17.2112C3.21119 17.3211 3.36022 17.3828 3.51562 17.3828H6.25C6.4054 17.3828 6.55444 17.3211 6.66432 17.2112C6.7742 17.1013 6.83594 16.9523 6.83594 16.7969C6.83594 16.6415 6.7742 16.4924 6.66432 16.3826C6.55444 16.2727 6.4054 16.2109 6.25 16.2109Z" fill="#9F9F9F"/>
<path d="M6.44531 12.1094C6.44531 11.954 6.38358 11.8049 6.27369 11.6951C6.16381 11.5852 6.01478 11.5234 5.85938 11.5234H0.78125C0.62585 11.5234 0.476814 11.5852 0.36693 11.6951C0.257045 11.8049 0.195313 11.954 0.195312 12.1094C0.195313 12.2648 0.257045 12.4138 0.36693 12.5237C0.476814 12.6336 0.62585 12.6953 0.78125 12.6953H5.85938C6.01478 12.6953 6.16381 12.6336 6.27369 12.5237C6.38358 12.4138 6.44531 12.2648 6.44531 12.1094Z" fill="#9F9F9F"/>
<path d="M16.0156 13.2812V6.64062C12.354 6.64062 9.375 9.61958 9.375 13.2812C9.375 16.9429 12.354 19.9219 16.0156 19.9219C19.6773 19.9219 22.6562 16.9429 22.6562 13.2812H16.0156Z" fill="#9F9F9F"/>
<path d="M22.4423 7.29263L23.0706 6.66431C23.1257 6.61006 23.1695 6.54543 23.1996 6.47416C23.2296 6.40288 23.2452 6.32636 23.2456 6.24901C23.2459 6.17166 23.2309 6.09502 23.2014 6.0235C23.172 5.95198 23.1286 5.887 23.0739 5.83231C23.0193 5.77761 22.9543 5.73429 22.8828 5.70483C22.8112 5.67538 22.7346 5.66038 22.6572 5.66069C22.5799 5.66101 22.5034 5.67663 22.4321 5.70667C22.3608 5.73671 22.2962 5.78056 22.2419 5.83569L21.588 6.48955C20.3287 5.45216 18.8046 4.78741 17.1875 4.57031V3.51562H14.8438V4.57031C13.2267 4.78732 11.7025 5.45198 10.4432 6.48926L9.78931 5.8354C9.73506 5.78026 9.67044 5.73641 9.59916 5.70638C9.52788 5.67634 9.45136 5.66072 9.37401 5.6604C9.29667 5.66009 9.22002 5.67509 9.1485 5.70454C9.07698 5.734 9.012 5.77732 8.95731 5.83201C8.90261 5.88671 8.85929 5.95169 8.82984 6.02321C8.80038 6.09473 8.78538 6.17137 8.7857 6.24872C8.78601 6.32607 8.80164 6.40259 8.83167 6.47386C8.86171 6.54514 8.90556 6.60977 8.9607 6.66401L9.58897 7.29233C8.06955 8.91621 7.22494 11.0574 7.22656 13.2812C7.22656 18.1275 11.1693 22.0703 16.0156 22.0703C20.8619 22.0703 24.8047 18.1275 24.8047 13.2812C24.8062 11.0575 23.9616 8.91643 22.4423 7.29263ZM16.0156 20.5078C14.5863 20.5078 13.1892 20.084 12.0008 19.2899C10.8124 18.4959 9.88612 17.3672 9.33915 16.0467C8.79219 14.7263 8.64908 13.2732 8.92792 11.8714C9.20676 10.4696 9.89502 9.18195 10.9057 8.1713C11.9163 7.16065 13.204 6.47238 14.6058 6.19354C16.0076 5.91471 17.4606 6.05782 18.7811 6.60478C20.1016 7.15174 21.2302 8.07798 22.0243 9.26639C22.8184 10.4548 23.2422 11.852 23.2422 13.2812C23.2422 14.2303 23.0553 15.17 22.6921 16.0467C22.3289 16.9235 21.7966 17.7202 21.1256 18.3912C20.4545 19.0622 19.6579 19.5946 18.7811 19.9577C17.9043 20.3209 16.9646 20.5078 16.0156 20.5078Z" fill="#9F9F9F"/>
</svg>
