<svg width="20" height="20" viewBox="0 0 20 20" fill="none" xmlns="http://www.w3.org/2000/svg">
<g clip-path="url(#clip0_1_15643)">
<path d="M10 0C4.486 0 0 4.486 0 10C0 15.514 4.486 20 10 20C15.514 20 20 15.514 20 10C20 4.486 15.514 0 10 0ZM10 17.2727C5.98982 17.2727 2.72727 14.0102 2.72727 10C2.72727 5.98982 5.98982 2.72727 10 2.72727C14.0102 2.72727 17.2727 5.98982 17.2727 10C17.2727 14.0102 14.0102 17.2727 10 17.2727ZM12.7016 11.6604L14.176 13.0299L13.4331 13.6801C12.5025 14.4943 11.3138 14.9428 10.0861 14.9428C7.32755 14.9428 5.08327 12.7448 5.08327 10.0433C5.08327 7.34791 7.32755 5.155 10.0861 5.155C11.3148 5.155 12.4995 5.59936 13.4217 6.40627L14.1375 7.03264L12.7245 8.44636L12.0972 7.89209C11.5575 7.41545 10.8434 7.15291 10.0861 7.15291C8.42918 7.15291 7.08118 8.44955 7.08118 10.0432C7.08118 11.6432 8.42918 12.9448 10.0861 12.9448C10.835 12.9448 11.5492 12.6782 12.0972 12.1941L12.7016 11.6604Z" fill="black"/>
</g>
<defs>
<clipPath id="clip0_1_15643">
<rect width="20" height="20" fill="white"/>
</clipPath>
</defs>
</svg>
