<svg width="23" height="29" viewBox="0 0 23 29" fill="none" xmlns="http://www.w3.org/2000/svg">
<path d="M5.03125 13.3672C5.4282 13.3672 5.75 13.1136 5.75 12.8008C5.75 12.488 5.4282 12.2344 5.03125 12.2344C4.6343 12.2344 4.3125 12.488 4.3125 12.8008C4.3125 13.1136 4.6343 13.3672 5.03125 13.3672Z" fill="#424242"/>
<path d="M5.03125 16.7656C5.4282 16.7656 5.75 16.512 5.75 16.1992C5.75 15.8864 5.4282 15.6328 5.03125 15.6328C4.6343 15.6328 4.3125 15.8864 4.3125 16.1992C4.3125 16.512 4.6343 16.7656 5.03125 16.7656Z" fill="#424242"/>
<path d="M5.03125 20.1641C5.4282 20.1641 5.75 19.9105 5.75 19.5977C5.75 19.2848 5.4282 19.0312 5.03125 19.0312C4.6343 19.0312 4.3125 19.2848 4.3125 19.5977C4.3125 19.9105 4.6343 20.1641 5.03125 20.1641Z" fill="#424242"/>
<path d="M5.03125 23.5625C5.4282 23.5625 5.75 23.3089 5.75 22.9961C5.75 22.6833 5.4282 22.4297 5.03125 22.4297C4.6343 22.4297 4.3125 22.6833 4.3125 22.9961C4.3125 23.3089 4.6343 23.5625 5.03125 23.5625Z" fill="#424242"/>
<path d="M9.34375 13.3672H17.9688C18.3656 13.3672 18.6875 13.1136 18.6875 12.8008C18.6875 12.488 18.3656 12.2344 17.9688 12.2344H9.34375C8.94686 12.2344 8.625 12.488 8.625 12.8008C8.625 13.1136 8.94686 13.3672 9.34375 13.3672Z" fill="#424242"/>
<path d="M9.34375 16.7656H17.9688C18.3656 16.7656 18.6875 16.512 18.6875 16.1992C18.6875 15.8864 18.3656 15.6328 17.9688 15.6328H9.34375C8.94686 15.6328 8.625 15.8864 8.625 16.1992C8.625 16.512 8.94686 16.7656 9.34375 16.7656Z" fill="#424242"/>
<path d="M9.34375 20.1641H17.9688C18.3656 20.1641 18.6875 19.9104 18.6875 19.5977C18.6875 19.2849 18.3656 19.0312 17.9688 19.0312H9.34375C8.94686 19.0312 8.625 19.2849 8.625 19.5977C8.625 19.9104 8.94686 20.1641 9.34375 20.1641Z" fill="#424242"/>
<path d="M9.34375 23.5625H17.9688C18.3656 23.5625 18.6875 23.3089 18.6875 22.9961C18.6875 22.6833 18.3656 22.4297 17.9688 22.4297H9.34375C8.94686 22.4297 8.625 22.6833 8.625 22.9961C8.625 23.3089 8.94686 23.5625 9.34375 23.5625Z" fill="#424242"/>
<path d="M22.2812 5.09766H16.4403C16.1796 4.30271 15.3838 3.67552 14.375 3.47014V2.26562C14.375 1.01636 13.0853 0 11.5 0C9.91473 0 8.625 1.01636 8.625 2.26562V3.47014C7.61623 3.67552 6.82036 4.30271 6.55974 5.09766H0.71875C0.321856 5.09766 0 5.35129 0 5.66406V28.4336C0 28.7464 0.321856 29 0.71875 29H8.26562C8.66252 29 8.98438 28.7464 8.98438 28.4336C8.98438 28.1208 8.66252 27.8672 8.26562 27.8672H1.4375V6.23047H6.46875V7.36328C6.46875 7.67605 6.79061 7.92969 7.1875 7.92969H15.8125C16.2094 7.92969 16.5312 7.67605 16.5312 7.36328V6.23047H21.5625V27.8672H14.7344C14.3375 27.8672 14.0156 28.1208 14.0156 28.4336C14.0156 28.7464 14.3375 29 14.7344 29H22.2812C22.6781 29 23 28.7464 23 28.4336V5.66406C23 5.35129 22.6782 5.09766 22.2812 5.09766ZM10.0625 2.26562C10.0625 1.64099 10.7074 1.13281 11.5 1.13281C12.2926 1.13281 12.9375 1.64099 12.9375 2.26562V3.39844H10.0625V2.26562ZM15.0938 6.79688H7.90625V5.66406C7.90625 5.03943 8.55111 4.53125 9.34375 4.53125H13.6562C14.4489 4.53125 15.0938 5.03943 15.0938 5.66406V6.79688Z" fill="#424242"/>
<path d="M11.5 29C11.897 29 12.2188 28.7464 12.2188 28.4336C12.2188 28.1208 11.897 27.8672 11.5 27.8672C11.103 27.8672 10.7812 28.1208 10.7812 28.4336C10.7812 28.7464 11.103 29 11.5 29Z" fill="#424242"/>
</svg>
