<svg width="102" height="105" viewBox="0 0 102 105" fill="none" xmlns="http://www.w3.org/2000/svg">
<rect x="-8" width="105" height="105" rx="52.5" fill="white"/>
<path d="M7.58672 77.236V81.146H11.4967L11.6577 81.307L11.5427 82.756H7.58672V86.712L6.16072 86.827L5.97672 86.666V82.756H2.06672L1.90572 82.595L2.02072 81.146H5.97672V77.19L7.42572 77.052L7.58672 77.236ZM29.1945 90.898C28.8878 91.5267 28.5275 92.0327 28.1135 92.416L27.9065 92.508C24.9625 91.6033 22.3252 90.162 19.9945 88.184C19.8872 88.1993 19.7185 88.207 19.4885 88.207C17.4338 88.207 15.8545 87.563 14.7505 86.275C13.6465 84.9717 13.0945 83.1317 13.0945 80.755C13.0945 78.2863 13.6772 76.385 14.8425 75.051C16.0232 73.717 17.7022 73.05 19.8795 73.05C21.9188 73.05 23.4828 73.6787 24.5715 74.936C25.6755 76.1933 26.2275 78.0027 26.2275 80.364C26.2275 82.2653 25.8748 83.8523 25.1695 85.125C24.4795 86.3823 23.4752 87.2563 22.1565 87.747C24.3185 89.173 26.6338 90.1313 29.1025 90.622L29.1945 90.898ZM15.5325 80.525C15.5325 82.503 15.8698 83.9597 16.5445 84.895C17.2192 85.8303 18.2618 86.298 19.6725 86.298C21.0372 86.298 22.0568 85.8457 22.7315 84.941C23.4215 84.021 23.7665 82.6027 23.7665 80.686C23.7665 78.7387 23.4292 77.305 22.7545 76.385C22.0798 75.465 21.0448 75.005 19.6495 75.005C18.2388 75.005 17.1962 75.4497 16.5215 76.339C15.8622 77.2283 15.5325 78.6237 15.5325 80.525ZM35.7869 82.089C36.8295 83.7603 38.0639 85.5467 39.4899 87.448L39.4669 87.724C38.7309 87.9693 37.9719 88.1303 37.1899 88.207L36.9139 88.023C35.6412 85.9377 34.6139 84.1743 33.8319 82.733H31.3249V83.354L31.4399 88H29.0249L29.1859 83.561L29.0249 73.234L34.0389 73.211C35.5262 73.211 36.6762 73.5867 37.4889 74.338C38.3015 75.074 38.7079 76.132 38.7079 77.512C38.7079 78.4933 38.4472 79.3827 37.9259 80.18C37.4199 80.962 36.7069 81.5983 35.7869 82.089ZM31.3709 80.801L33.9009 80.87C35.4495 80.3947 36.2239 79.3367 36.2239 77.696C36.2239 76.8373 35.9862 76.1933 35.5109 75.764C35.0509 75.3347 34.3455 75.1047 33.3949 75.074L31.4399 75.143L31.3709 80.801ZM48.6777 77.213C49.5977 77.213 50.4947 77.3893 51.3687 77.742L51.0467 79.582L50.7477 79.651C49.9503 79.1143 49.1683 78.846 48.4017 78.846C47.9417 78.846 47.5737 78.9687 47.2977 79.214C47.037 79.4593 46.9067 79.7583 46.9067 80.111C46.9067 80.4943 47.06 80.801 47.3667 81.031C47.6887 81.261 48.1793 81.514 48.8387 81.79C49.4367 82.0507 49.9197 82.296 50.2877 82.526C50.671 82.756 50.993 83.0627 51.2537 83.446C51.5297 83.8293 51.6677 84.3047 51.6677 84.872C51.6677 85.4547 51.5143 86.0067 51.2077 86.528C50.901 87.034 50.4487 87.4403 49.8507 87.747C49.2527 88.0537 48.532 88.207 47.6887 88.207C46.6307 88.207 45.5573 87.9693 44.4687 87.494L44.7447 85.539L44.9977 85.378C45.4423 85.7613 45.933 86.068 46.4697 86.298C47.0063 86.5127 47.497 86.62 47.9417 86.62C48.4323 86.62 48.8233 86.4897 49.1147 86.229C49.4213 85.953 49.5747 85.631 49.5747 85.263C49.5747 84.8797 49.4213 84.5807 49.1147 84.366C48.808 84.136 48.325 83.8677 47.6657 83.561C47.0677 83.3003 46.577 83.055 46.1937 82.825C45.8103 82.595 45.4807 82.2807 45.2047 81.882C44.944 81.4833 44.8137 80.9927 44.8137 80.41C44.8137 79.4747 45.1587 78.708 45.8487 78.11C46.5387 77.512 47.4817 77.213 48.6777 77.213ZM58.1991 77.19C58.6898 77.19 59.1881 77.2437 59.6941 77.351C60.2001 77.4583 60.6448 77.604 61.0281 77.788L60.6371 79.743L60.4071 79.835C59.5945 79.3597 58.8431 79.122 58.1531 79.122C57.3405 79.122 56.7041 79.4287 56.2441 80.042C55.7841 80.6553 55.5541 81.514 55.5541 82.618C55.5541 83.7987 55.7918 84.7187 56.2671 85.378C56.7425 86.022 57.4171 86.344 58.2911 86.344C59.0578 86.344 59.8781 86.114 60.7521 85.654L60.9591 85.792L60.7291 87.678C59.7938 88.0307 58.8585 88.207 57.9231 88.207C56.4818 88.207 55.3548 87.7317 54.5421 86.781C53.7448 85.815 53.3461 84.4887 53.3461 82.802C53.3461 81.054 53.7755 79.6817 54.6341 78.685C55.4928 77.6883 56.6811 77.19 58.1991 77.19ZM66.5711 77.19C67.6291 77.19 68.4648 77.443 69.0781 77.949C69.6915 78.455 69.9981 79.1603 69.9981 80.065C69.9981 80.341 69.9521 81.261 69.8601 82.825C69.7681 84.3583 69.7221 85.2553 69.7221 85.516C69.7221 85.8073 69.7681 86.0143 69.8601 86.137C69.9675 86.2443 70.1438 86.298 70.3891 86.298C70.5425 86.298 70.7725 86.2673 71.0791 86.206L71.2861 86.367L71.0561 87.655C70.6115 87.931 70.1285 88.0997 69.6071 88.161C69.1318 88.115 68.7485 87.9463 68.4571 87.655C68.1658 87.3483 67.9895 86.9497 67.9281 86.459H67.7671C66.9851 87.287 66.1878 87.862 65.3751 88.184C64.3171 88.1687 63.4815 87.8927 62.8681 87.356C62.2701 86.8193 61.9711 86.091 61.9711 85.171C61.9711 83.8063 62.7148 82.9553 64.2021 82.618L67.8361 81.813L67.8591 80.571C67.8591 80.0037 67.7135 79.5743 67.4221 79.283C67.1461 78.9917 66.7398 78.846 66.2031 78.846C65.6818 78.846 65.1605 78.9687 64.6391 79.214C64.1178 79.444 63.5428 79.812 62.9141 80.318L62.7301 80.203L62.4311 78.57C63.7805 77.65 65.1605 77.19 66.5711 77.19ZM64.8461 83.883C64.5701 83.9443 64.3708 84.0517 64.2481 84.205C64.1255 84.343 64.0641 84.5653 64.0641 84.872C64.0641 85.332 64.1868 85.6923 64.4321 85.953C64.6928 86.2137 65.0378 86.344 65.4671 86.344C66.1878 86.344 66.9545 85.8763 67.7671 84.941L67.8361 83.17L64.8461 83.883ZM80.0241 81.031C80.0395 80.4483 79.9015 79.996 79.6101 79.674C79.3341 79.3367 78.9278 79.168 78.3911 79.168C77.5018 79.168 76.5818 79.628 75.6311 80.548L75.6081 83.354L75.7461 88H73.4001L73.5381 83.561L73.4231 77.558L75.6541 77.351L75.6311 78.892H75.7921C76.6968 78.0947 77.6398 77.5503 78.6211 77.259C79.8018 77.259 80.6911 77.5273 81.2891 78.064C81.9025 78.6007 82.2015 79.3673 82.1861 80.364L82.1171 83.354L82.2321 88H79.8631L80.0241 81.031Z" fill="#40C1AF"/>
<path d="M21.6616 62.2737H27.4806V56.4547H21.6616V62.2737ZM23.6013 58.3944H25.5409V60.334H23.6013V58.3944Z" fill="#40C1AF"/>
<path d="M27.4806 17.6616H21.6616V23.4806H27.4806V17.6616ZM25.5409 21.5409H23.6013V19.6013H25.5409V21.5409Z" fill="#40C1AF"/>
<path d="M60.4546 23.4806H66.2736V17.6616H60.4546V23.4806ZM62.3942 19.6013H64.3339V21.5409H62.3942V19.6013Z" fill="#40C1AF"/>
<path d="M15.8428 11.8427V68.0926H72.0928V11.8427H15.8428ZM59.485 29.2995V27.3599H63.3643V29.2995H61.4247V31.2392H57.5454V33.1789H55.6057V35.1185H53.666V31.2392H57.5454V29.2995H53.666V25.4202H57.5454V29.2995H59.485ZM64.3341 42.8771V44.8168H62.3945V42.8771H58.5152V40.9375H62.3945V42.8771H64.3341ZM58.5152 56.4547V58.3944H56.5755V56.4547H54.6359V58.3944H52.6962V56.4547H54.6359V54.5151H56.5755V56.4547H58.5152ZM47.8471 41.9073V39.9676H49.7867V36.0883H55.6057V39.9676H53.666V41.9073H51.7264V43.847H49.7867V41.9073H47.8471ZM35.2393 35.1185V31.2392H39.1186V33.1789H41.0583V29.2995H42.9979V31.2392H44.9376V33.1789H42.9979V35.1185H41.0583V38.9978H39.1186V40.9375H37.179V35.1185H35.2393ZM39.1186 21.5409V19.6013H42.9979V21.5409H42.0281V23.4806H41.0583V27.3599H37.179V25.4202H35.2393V23.4806H40.0885V21.5409H39.1186ZM46.8773 23.4806V25.4202H44.9376V27.3599H42.9979V25.4202H44.9376V23.4806H46.8773ZM44.9376 21.5409V19.6013H46.8773V21.5409H44.9376ZM42.0281 42.8771H43.9678V44.8168H42.0281V42.8771ZM42.9979 39.9676V38.028H44.9376V36.0883H46.8773V38.028H44.9376V39.9676H42.9979ZM45.9074 42.8771H47.8471V44.8168H45.9074V42.8771ZM46.8773 34.1487V28.3297H48.8169V30.2694H50.7566V32.209H48.8169V34.1487H46.8773ZM52.6962 21.5409V23.4806H48.8169V19.6013H50.7566V21.5409H52.6962ZM56.5755 23.4806H54.6359V21.5409H56.5755V23.4806ZM33.2997 15.722H54.6359V19.6013H52.6962V17.6616H37.179V21.5409H35.2393V17.6616H33.2997V15.722ZM31.36 19.6013H33.2997V21.5409H31.36V19.6013ZM31.36 23.4806H33.2997V27.3599H35.2393V29.2995H33.2997V27.3599H31.36V23.4806ZM31.36 31.2392H33.2997V33.1789H31.36V31.2392ZM19.7221 16.6918C19.7221 16.1561 20.1562 15.722 20.6919 15.722H28.4505C28.9862 15.722 29.4204 16.1561 29.4204 16.6918V24.4504C29.4204 24.9861 28.9862 25.4202 28.4505 25.4202H20.6919C20.1562 25.4202 19.7221 24.9861 19.7221 24.4504V16.6918ZM19.7221 27.3599H29.4204V29.2995H19.7221V27.3599ZM29.4204 31.2392V33.1789H25.541V31.2392H29.4204ZM19.7221 31.2392H23.6014V35.1185H21.6617V37.0582H19.7221V31.2392ZM19.7221 40.9375H23.6014V42.8771H21.6617V50.6358H19.7221V40.9375ZM29.4204 63.2435C29.4204 63.7792 28.9862 64.2133 28.4505 64.2133H20.6919C20.1562 64.2133 19.7221 63.7792 19.7221 63.2435V55.4849C19.7221 54.9492 20.1562 54.5151 20.6919 54.5151H28.4505C28.9862 54.5151 29.4204 54.9492 29.4204 55.4849V63.2435ZM39.1186 46.7564H35.2393V48.6961H33.2997V50.6358H35.2393V52.5754H37.179V54.5151H39.1186V56.4547H35.2393V58.3944H33.2997V60.334H39.1186V62.2737H38.1488V64.2133H36.2092V62.2737H33.2997V64.2133H31.36V58.3944H33.2997V56.4547H35.2393V52.5754H31.36V54.5151H29.4204V48.6961H25.541V50.6358H27.4807V52.5754H23.6014V44.8168H31.36V42.8771H33.2997V40.9375H31.36V38.9978H29.4204V37.0582H25.541V38.9978H23.6014V37.0582H25.541V35.1185H29.4204V37.0582H31.36V38.9978H33.2997V40.9375H35.2393V42.8771H33.2997V44.8168H31.36V46.7564H35.2393V44.8168H37.179V42.8771H41.0583V44.8168H39.1186V46.7564ZM25.541 42.8771V40.9375H27.4807V42.8771H25.541ZM40.0885 49.6659V47.7263H42.0281V51.6056H40.0885V49.6659ZM46.8773 62.2737H44.9376V64.2133H41.0583V62.2737H42.9979V60.334H41.0583V58.3944H42.9979V60.334H46.8773V62.2737ZM47.8471 57.4245H45.9074V55.4849H43.9678V53.5452H45.9074V55.4849H47.8471V57.4245ZM45.9074 49.6659V51.6056H43.9678V49.6659H45.9074V45.7866H51.7264V49.6659H53.666V53.5452H47.8471V49.6659H45.9074ZM62.3945 64.2133H56.5755V62.2737H54.6359V64.2133H50.7566V62.2737H48.8169V60.334H50.7566V62.2737H52.6962V60.334H56.5755V62.2737H60.4548V60.334H62.3945V64.2133ZM62.3945 58.3944H60.4548V56.4547H62.3945V58.3944ZM62.3945 52.5754H60.4548V54.5151H58.5152V48.6961H56.5755V44.8168H60.4548V46.7564H64.3341V48.6961H62.3945V52.5754ZM64.3341 54.5151H66.2738V56.4547H64.3341V54.5151ZM68.2135 64.2133H66.2738V60.334H64.3341V58.3944H68.2135V64.2133ZM68.2135 52.5754H64.3341V50.6358H66.2738V46.7564H68.2135V52.5754ZM68.2135 44.8168H66.2738V42.8771H68.2135V44.8168ZM68.2135 40.9375H66.2738V38.028H58.5152V34.1487H62.3945V36.0883H66.2738V27.3599H68.2135V40.9375ZM68.2135 24.4504C68.2135 24.9861 67.7793 25.4202 67.2436 25.4202H59.485C58.9493 25.4202 58.5152 24.9861 58.5152 24.4504V16.6918C58.5152 16.1561 58.9493 15.722 59.485 15.722H67.2436C67.7793 15.722 68.2135 16.1561 68.2135 16.6918V24.4504Z" fill="#40C1AF"/>
</svg>
