<svg width="26" height="22" viewBox="0 0 26 22" fill="none" xmlns="http://www.w3.org/2000/svg">
<path d="M6.41704 13.6986H2.93342V6.51865C2.93342 5.53584 2.12124 4.74023 1.11796 4.74023H0.25V21.6663H1.53997V16.3272H6.94655V21.6663H8.2325V15.477C8.2325 14.4942 7.42028 13.6986 6.41704 13.6986Z" fill="#FC8730"/>
<path d="M18.224 6.86994C18.224 6.51894 17.9374 6.23814 17.579 6.23814H17.1809C17.1809 3.98002 15.4411 2.11581 13.1996 1.87011C13.4186 1.71801 13.5619 1.4684 13.5619 1.1837C13.5619 0.715699 13.1758 0.333496 12.694 0.333496C12.2162 0.333496 11.83 0.715699 11.83 1.1837C11.83 1.4684 11.9734 1.71801 12.1923 1.87011C9.95088 2.11581 8.21106 3.98002 8.21106 6.23814H7.81294C7.45462 6.23814 7.16797 6.51894 7.16797 6.86994C7.16797 7.21985 7.45299 7.49972 7.80979 7.50143H17.5822C17.939 7.49972 18.224 7.21985 18.224 6.86994ZM12.2123 3.83572C11.432 3.97222 10.795 4.42852 10.4685 5.08763C10.3636 5.29312 10.1172 5.35622 9.935 5.26703C9.73593 5.17339 9.65631 4.93943 9.75186 4.74443C10.1938 3.85912 11.0378 3.24682 12.0729 3.06741C12.2919 3.02841 12.495 3.17272 12.5348 3.38332C12.5746 3.59392 12.4273 3.79672 12.2123 3.83572Z" fill="#FC8730"/>
<path d="M21.094 8.67174V10.9065C21.094 11.121 20.9188 11.2965 20.6958 11.2965H13.6888V20.091H14.3099C14.7518 20.091 15.1062 20.442 15.1062 20.871V21.6666H10.2808V20.871C10.2808 20.442 10.6351 20.091 11.0771 20.091H11.6981V11.2965H4.6911C4.46814 11.2965 4.29297 11.121 4.29297 10.9065V8.67174C4.29297 8.45724 4.46814 8.28174 4.6911 8.28174H20.6958C20.9188 8.28174 21.094 8.45724 21.094 8.67174Z" fill="#FC8730"/>
<path d="M25.1145 5C24.1113 5 23.2991 5.79561 23.2991 6.77841V13.9584H19.8155C18.8122 13.9584 18 14.754 18 15.7368V16.587H18.004V21.9261H19.2899V16.587H24.6965V21.9261H25.9825V5H25.1145Z" fill="#FC8730"/>
</svg>
