<svg width="26" height="22" viewBox="0 0 26 22" fill="none" xmlns="http://www.w3.org/2000/svg">
<path d="M20.8257 7.26074C23.3301 9.13901 24.9996 11.1216 24.9996 11.1216C24.9996 11.1216 19.6779 17.9043 12.9996 17.9043C11.9561 17.9043 10.9126 17.6956 9.86914 17.3825" stroke="#40C1AF" stroke-miterlimit="10" stroke-linecap="round" stroke-linejoin="round"/>
<path d="M5.17393 15.0869C2.66957 13.2086 1 11.226 1 11.226C1 11.226 6.32176 4.44336 13.0001 4.44336C13.9392 4.44336 14.774 4.54771 15.6088 4.7564" stroke="#40C1AF" stroke-miterlimit="10" stroke-linecap="round" stroke-linejoin="round"/>
<path d="M8.82617 11.2262C8.82617 8.93052 10.7044 7.05225 13.0001 7.05225" stroke="#40C1AF" stroke-miterlimit="10" stroke-linecap="round" stroke-linejoin="round"/>
<path d="M17.1739 11.2261C17.1739 13.5217 15.2957 15.4 13 15.4" stroke="#40C1AF" stroke-miterlimit="10" stroke-linecap="round" stroke-linejoin="round"/>
<path d="M23.1214 1L2.77344 21.3479" stroke="#40C1AF" stroke-miterlimit="10" stroke-linecap="round" stroke-linejoin="round"/>
</svg>
