<svg width="33" height="22" viewBox="0 0 33 22" fill="none" xmlns="http://www.w3.org/2000/svg">
<path d="M7.39276 16.1826C7.11704 16.1879 6.84903 16.2745 6.62235 16.4316C6.39566 16.5886 6.2204 16.8091 6.11854 17.0654C6.01668 17.3216 5.99277 17.6023 6.0498 17.8721C6.10683 18.1419 6.24226 18.3888 6.4391 18.582C6.63595 18.7751 6.88544 18.9058 7.15628 18.9577C7.42713 19.0096 7.70726 18.9803 7.96154 18.8736C8.21582 18.7669 8.43292 18.5874 8.58561 18.3578C8.73831 18.1282 8.81979 17.8585 8.81984 17.5828C8.81378 17.2087 8.66063 16.852 8.39354 16.5899C8.12646 16.3279 7.76693 16.1816 7.39276 16.1826Z" fill="#FC8730"/>
<path d="M32.6613 16.6711C32.1382 11.1474 27.2761 7.69701 24.1258 7.47006C24.0261 7.46341 23.9297 7.43218 23.8452 7.37915C23.7606 7.32612 23.6905 7.25294 23.6411 7.16618L22.7256 5.41214C22.9101 5.45325 23.0982 5.47644 23.2872 5.48138C23.5885 5.48633 23.8874 5.42734 24.1642 5.30828C24.2382 5.27547 24.3008 5.22137 24.344 5.15286C24.3871 5.08436 24.4089 5.00455 24.4066 4.92362V1.80405C24.4092 1.72354 24.388 1.64405 24.3456 1.57559C24.3031 1.50713 24.2414 1.45278 24.1681 1.41939C23.6291 1.22327 23.0422 1.20131 22.4901 1.35659C21.9379 1.51187 21.4485 1.83656 21.0908 2.28487L20.9908 2.08869C20.9005 1.91881 20.7562 1.78386 20.5807 1.70514C20.4051 1.62643 20.2084 1.60844 20.0215 1.65403L17.9751 2.10408C17.8352 2.13317 17.7096 2.20942 17.6193 2.32006C17.529 2.4307 17.4794 2.56901 17.4789 2.71184C17.4794 2.77852 17.493 2.84445 17.519 2.90586C17.545 2.96727 17.5828 3.02296 17.6303 3.06975C17.6778 3.11654 17.7341 3.15352 17.7959 3.17857C17.8577 3.20362 17.9238 3.21625 17.9905 3.21574H19.7676C19.8637 3.21453 19.9578 3.2431 20.037 3.2975C20.1162 3.35191 20.1766 3.4295 20.2099 3.51962C20.6792 4.84284 22.4563 10.355 20.7869 15.0594C20.7522 15.1485 20.6914 15.2252 20.6125 15.2794C20.5336 15.3336 20.4403 15.3628 20.3446 15.3632H13.7746C13.6694 15.3623 13.5657 15.3384 13.4707 15.2932C13.3757 15.248 13.2917 15.1827 13.2245 15.1017C11.5513 12.9476 13.1207 11.0551 14.567 9.92418H16.1979C16.3 9.92418 16.3978 9.88365 16.4699 9.81151C16.5421 9.73938 16.5826 9.64154 16.5826 9.53952V8.00089C16.5826 7.89887 16.5421 7.80103 16.4699 7.72889C16.3978 7.65675 16.3 7.61623 16.1979 7.61623H15.694V2.30795H16.298C16.4 2.30795 16.4978 2.26742 16.57 2.19528C16.6421 2.12315 16.6826 2.02531 16.6826 1.92329V0.384658C16.6826 0.28264 16.6421 0.184802 16.57 0.112664C16.4978 0.0405268 16.4 0 16.298 0H0.503902C0.401884 0 0.304045 0.0405268 0.231908 0.112664C0.15977 0.184802 0.119244 0.28264 0.119244 0.384658V1.92329C0.119244 2.02531 0.15977 2.12315 0.231908 2.19528C0.304045 2.26742 0.401884 2.30795 0.503902 2.30795H1.09628V7.62007H0.384658C0.28264 7.62007 0.184801 7.6606 0.112664 7.73274C0.0405262 7.80488 0 7.90272 0 8.00473V9.54336C0 9.64538 0.0405262 9.74322 0.112664 9.81536C0.184801 9.8875 0.28264 9.92802 0.384658 9.92802H4.44665C1.49247 11.7051 1.17321 15.1517 1.20398 16.7711C1.21201 17.0075 1.31236 17.2313 1.48351 17.3945C1.65466 17.5578 1.88297 17.6474 2.11947 17.6443H2.96187C2.9959 18.8015 3.47951 19.8998 4.31006 20.7063C5.14062 21.5128 6.25275 21.9639 7.41044 21.9639C8.56813 21.9639 9.68025 21.5128 10.5108 20.7063C11.3414 19.8998 11.825 18.8015 11.859 17.6443H21.8601C21.8941 18.8015 22.3778 19.8998 23.2083 20.7063C24.0389 21.5128 25.151 21.9639 26.3087 21.9639C27.4664 21.9639 28.5785 21.5128 29.4091 20.7063C30.2396 19.8998 30.7232 18.8015 30.7573 17.6443H31.7458C31.8734 17.6465 32.0001 17.6224 32.1179 17.5734C32.2357 17.5244 32.3421 17.4516 32.4305 17.3596C32.5168 17.2686 32.5821 17.1598 32.622 17.0408C32.6619 16.9219 32.6753 16.7957 32.6613 16.6711ZM7.39313 20.3715C6.8438 20.3616 6.30962 20.1897 5.85763 19.8774C5.40564 19.565 5.05599 19.1261 4.85257 18.6157C4.64914 18.1054 4.601 17.5463 4.71418 17.0086C4.82737 16.471 5.09684 15.9788 5.48877 15.5938C5.88071 15.2087 6.37764 14.9481 6.9172 14.8444C7.45676 14.7408 8.0149 14.7989 8.52158 15.0114C9.02825 15.2238 9.46088 15.5812 9.76516 16.0387C10.0694 16.4961 10.2318 17.0333 10.2319 17.5827C10.2248 18.3288 9.92183 19.0416 9.38956 19.5645C8.85729 20.0874 8.13924 20.3776 7.39313 20.3715ZM26.3183 20.3715C25.769 20.3616 25.2348 20.1897 24.7828 19.8774C24.3308 19.565 23.9812 19.1261 23.7777 18.6157C23.5743 18.1054 23.5262 17.5463 23.6394 17.0086C23.7525 16.471 24.022 15.9788 24.4139 15.5938C24.8059 15.2087 25.3028 14.9481 25.8424 14.8444C26.3819 14.7408 26.9401 14.7989 27.4468 15.0114C27.9534 15.2238 28.3861 15.5812 28.6903 16.0387C28.9946 16.4961 29.157 17.0333 29.1571 17.5827C29.15 18.3282 28.8475 19.0403 28.3161 19.5631C27.7847 20.0859 27.0676 20.3766 26.3221 20.3715H26.3183Z" fill="#FC8730"/>
<path d="M26.3224 16.1827C26.0467 16.188 25.7787 16.2746 25.552 16.4316C25.3254 16.5886 25.1501 16.8091 25.0482 17.0654C24.9464 17.3217 24.9225 17.6023 24.9795 17.8721C25.0365 18.1419 25.1719 18.3889 25.3688 18.582C25.5656 18.7751 25.8151 18.9058 26.086 18.9577C26.3568 19.0096 26.6369 18.9803 26.8912 18.8736C27.1455 18.7669 27.3626 18.5875 27.5153 18.3578C27.668 18.1282 27.7495 17.8586 27.7495 17.5828C27.7455 17.2081 27.593 16.8502 27.3254 16.5877C27.0579 16.3253 26.6972 16.1796 26.3224 16.1827Z" fill="#FC8730"/>
</svg>
