<svg width="15" height="9" viewBox="0 0 15 9" fill="none" xmlns="http://www.w3.org/2000/svg">
<path d="M3.39424 6.63098C3.26763 6.63316 3.14457 6.66864 3.04048 6.73299C2.93639 6.79734 2.85591 6.88769 2.80914 6.99269C2.76236 7.0977 2.75138 7.2127 2.77757 7.32326C2.80376 7.43381 2.86594 7.53501 2.95633 7.61414C3.04672 7.69328 3.16128 7.74684 3.28565 7.7681C3.41002 7.78935 3.53865 7.77737 3.65541 7.73364C3.77217 7.68991 3.87186 7.61638 3.94198 7.52229C4.01209 7.42819 4.04951 7.31771 4.04953 7.20471C4.04674 7.05141 3.97642 6.90526 3.85378 6.79789C3.73114 6.69051 3.56605 6.63055 3.39424 6.63098Z" fill="#9F9F9F"/>
<path d="M14.9975 6.83119C14.7573 4.56779 12.5247 3.15395 11.0782 3.06095C11.0324 3.05823 10.9881 3.04543 10.9493 3.0237C10.9105 3.00197 10.8783 2.97199 10.8556 2.93643L10.4352 2.21769C10.52 2.23454 10.6063 2.24404 10.6931 2.24606C10.8314 2.2481 10.9687 2.22392 11.0958 2.17514C11.1298 2.16169 11.1585 2.13952 11.1784 2.11145C11.1982 2.08338 11.2082 2.05068 11.2071 2.01752V0.739231C11.2083 0.706244 11.1986 0.673669 11.1791 0.645618C11.1596 0.617566 11.1312 0.595294 11.0976 0.581612C10.8501 0.501252 10.5806 0.492252 10.3271 0.55588C10.0735 0.619509 9.84881 0.752555 9.68455 0.936254L9.63863 0.855869C9.59717 0.786258 9.5309 0.730958 9.4503 0.698704C9.36969 0.666449 9.27934 0.65908 9.19352 0.67776L8.25386 0.862173C8.18965 0.874095 8.13198 0.905339 8.0905 0.950674C8.04902 0.99601 8.02625 1.05268 8.02601 1.11121C8.02624 1.13853 8.0325 1.16555 8.04443 1.19071C8.05636 1.21588 8.07373 1.2387 8.09554 1.25787C8.11736 1.27704 8.14319 1.29219 8.17157 1.30246C8.19994 1.31272 8.2303 1.3179 8.26092 1.31769H9.07695C9.12107 1.3172 9.16428 1.3289 9.20065 1.35119C9.23701 1.37349 9.26476 1.40528 9.28007 1.44221C9.49556 1.98442 10.3116 4.24309 9.54501 6.17076C9.52906 6.20731 9.50116 6.23873 9.46494 6.26094C9.42871 6.28314 9.38584 6.29511 9.34189 6.29528H6.32507C6.27677 6.29489 6.22915 6.28509 6.18552 6.26658C6.1419 6.24807 6.10332 6.22129 6.07249 6.1881C5.30416 5.30544 6.0248 4.52996 6.68893 4.06656H7.43783C7.48468 4.06656 7.5296 4.04995 7.56273 4.02039C7.59585 3.99083 7.61446 3.95074 7.61446 3.90894V3.27847C7.61446 3.23666 7.59585 3.19657 7.56273 3.16701C7.5296 3.13745 7.48468 3.12085 7.43783 3.12085H7.20645V0.945711H7.48376C7.5306 0.945711 7.57553 0.929105 7.60865 0.899546C7.64178 0.869987 7.66039 0.829896 7.66039 0.788093V0.157619C7.66039 0.115815 7.64178 0.0757248 7.60865 0.0461656C7.57553 0.0166064 7.5306 0 7.48376 0H0.231384C0.184539 0 0.139613 0.0166064 0.106488 0.0461656C0.0733639 0.0757248 0.0547549 0.115815 0.0547549 0.157619V0.788093C0.0547549 0.829896 0.0733639 0.869987 0.106488 0.899546C0.139613 0.929105 0.184539 0.945711 0.231384 0.945711H0.503392V3.12242H0.176629C0.129784 3.12242 0.0848576 3.13903 0.0517333 3.16859C0.018609 3.19815 0 3.23824 0 3.28004V3.91052C0 3.95232 0.018609 3.99241 0.0517333 4.02197C0.0848576 4.05153 0.129784 4.06813 0.176629 4.06813H2.04183C0.685319 4.79633 0.538717 6.20859 0.552848 6.87217C0.556535 6.96903 0.602616 7.06074 0.681205 7.12763C0.759794 7.19452 0.86463 7.23125 0.973224 7.22996H1.36004C1.37567 7.70413 1.59773 8.15421 1.97911 8.48468C2.36049 8.81515 2.87116 9 3.40275 9C3.93434 9 4.44501 8.81515 4.82639 8.48468C5.20777 8.15421 5.42983 7.70413 5.44546 7.22996H10.0378C10.0534 7.70413 10.2755 8.15421 10.6569 8.48468C11.0383 8.81515 11.5489 9 12.0805 9C12.6121 9 13.1228 8.81515 13.5042 8.48468C13.8855 8.15421 14.1076 7.70413 14.1232 7.22996H14.5772C14.6357 7.23087 14.6939 7.22099 14.748 7.20092C14.8021 7.18085 14.851 7.15103 14.8916 7.11332C14.9312 7.07601 14.9612 7.03144 14.9795 6.9827C14.9978 6.93397 15.004 6.88226 14.9975 6.83119ZM3.3948 8.34748C3.14256 8.34344 2.89727 8.273 2.68973 8.14501C2.48218 8.01702 2.32163 7.83717 2.22822 7.62804C2.13481 7.41891 2.1127 7.18981 2.16467 6.96951C2.21665 6.74921 2.34039 6.54751 2.52035 6.38974C2.70032 6.23197 2.92851 6.12515 3.17627 6.0827C3.42402 6.04024 3.68031 6.06403 3.91297 6.15109C4.14563 6.23816 4.34428 6.3846 4.484 6.57205C4.62372 6.75951 4.69828 6.97961 4.69832 7.20474C4.69506 7.51047 4.55594 7.80254 4.31153 8.0168C4.06712 8.23106 3.73741 8.35 3.3948 8.34748ZM12.0849 8.34748C11.8327 8.34344 11.5874 8.273 11.3799 8.14501C11.1723 8.01702 11.0118 7.83717 10.9183 7.62804C10.8249 7.41891 10.8028 7.18981 10.8548 6.96951C10.9068 6.74921 11.0305 6.54751 11.2105 6.38974C11.3905 6.23197 11.6186 6.12515 11.8664 6.0827C12.1142 6.04024 12.3704 6.06403 12.6031 6.15109C12.8358 6.23816 13.0344 6.3846 13.1741 6.57205C13.3139 6.75951 13.3884 6.97961 13.3885 7.20474C13.3852 7.51019 13.2463 7.80202 13.0023 8.01624C12.7583 8.23046 12.429 8.34958 12.0867 8.34748H12.0849Z" fill="#9F9F9F"/>
<path d="M12.0876 6.631C11.961 6.63317 11.8379 6.66866 11.7338 6.73301C11.6297 6.79736 11.5493 6.8877 11.5025 6.99271C11.4557 7.09772 11.4447 7.21272 11.4709 7.32327C11.4971 7.43383 11.5593 7.53502 11.6497 7.61416C11.7401 7.6933 11.8546 7.74686 11.979 7.76811C12.1034 7.78937 12.232 7.77738 12.3488 7.73365C12.4655 7.68992 12.5652 7.6164 12.6353 7.5223C12.7054 7.42821 12.7429 7.31773 12.7429 7.20473C12.741 7.05117 12.671 6.90453 12.5481 6.79698C12.4253 6.68943 12.2597 6.62974 12.0876 6.631Z" fill="#9F9F9F"/>
</svg>
