<svg width="24" height="29" viewBox="0 0 24 29" fill="none" xmlns="http://www.w3.org/2000/svg">
<path d="M23.6893 19.4892L23.6117 17.7742L23.534 15.8253V15.0457L23.1456 7.7957C23.1456 7.40591 22.7573 7.01613 22.2136 7.01613H19.0291V2.72849C19.0291 2.72849 19.0291 2.72849 19.0291 2.65054C19.0291 2.65054 19.0291 2.65054 19.0291 2.57258C19.0291 2.57258 19.0291 2.57258 19.0291 2.49462L17.7864 0.389785C17.6311 0.155914 17.3981 0 17.0874 0H7.14563C6.83495 0 6.60194 0.155914 6.4466 0.389785L5.20388 2.49462C5.20388 2.49462 5.20388 2.49462 5.20388 2.57258C5.20388 2.57258 5.20388 2.57258 5.20388 2.65054C5.20388 2.65054 5.20388 2.65054 5.20388 2.72849V7.09409H2.01942C1.5534 7.09409 1.16505 7.40591 1.08738 7.87366L0 28.1425C0 28.3763 0.0776693 28.5323 0.233009 28.7661C0.388349 28.922 0.621359 29 0.854369 29H23.1456C23.3786 29 23.6117 28.922 23.767 28.7661C23.9223 28.6102 24 28.3763 24 28.1425L23.6893 19.4892ZM18.0194 7.01613H16.3884V3.11828H18.0194V7.01613ZM7.2233 0.857527H16.932L17.7087 2.26075H6.4466L7.2233 0.857527ZM6.13592 3.11828H7.76699V3.74194C7.76699 3.97581 8 4.13172 8.23301 4.13172C8.46602 4.13172 8.69903 3.89785 8.69903 3.74194V3.11828H15.4563V7.01613H8.69903V5.76882C8.69903 5.53495 8.46602 5.37903 8.23301 5.37903C8 5.37903 7.76699 5.53495 7.76699 5.76882V7.01613H6.13592V3.11828Z" fill="#FC8730"/>
<path d="M12.1947 26.5831C17.0419 26.5831 20.9714 22.6391 20.9714 17.774C20.9714 12.9088 17.0419 8.96484 12.1947 8.96484C7.34743 8.96484 3.41797 12.9088 3.41797 17.774C3.41797 22.6391 7.34743 26.5831 12.1947 26.5831Z" fill="white"/>
<path opacity="0.12" d="M16.8555 19.4888L15.7682 19.6447L7.53516 19.8006L7.84584 18.5533L8.00118 17.5398L10.642 16.0587L11.8847 15.7468C11.8847 15.5909 11.8847 15.513 11.9623 15.435H11.574L11.4187 14.9673L11.8847 14.4995L12.972 14.6554L13.1274 15.513H12.6614C12.6614 15.5909 12.739 15.7468 12.739 15.8248V15.7468L14.9138 16.3705L16.5449 18.3974L16.8555 19.4888Z" fill="#FC8730"/>
<path d="M17.4759 19.255H17.3983C17.1653 17.384 15.6895 15.9029 13.6701 15.3572C13.6701 15.2792 13.6701 15.2012 13.6701 15.1233C13.6701 14.4217 13.0488 13.876 12.1944 13.876C11.34 13.876 10.7187 14.4217 10.7187 15.1233C10.7187 15.2012 10.7187 15.2792 10.7187 15.3572C8.69924 15.8249 7.14584 17.384 6.9905 19.255H6.83516C6.52448 19.255 6.36914 19.4109 6.36914 19.7228C6.36914 19.9566 6.60215 20.1905 6.83516 20.1905H17.4759C17.7866 20.1905 17.942 20.0346 17.942 19.7228C18.0196 19.4889 17.7866 19.255 17.4759 19.255ZM12.1944 14.7335C12.4274 14.7335 12.6604 14.8894 12.6604 15.1233V15.2012C12.5051 15.2012 12.3497 15.2012 12.1944 15.2012C12.039 15.2012 11.8837 15.2012 11.7284 15.2012V15.1233C11.7284 14.9674 11.9614 14.7335 12.1944 14.7335ZM8.00021 19.255C8.23322 17.462 10.0196 16.0588 12.1944 16.0588C14.3691 16.0588 16.1556 17.462 16.3886 19.255H8.00021Z" fill="#FC8730"/>
</svg>
