<svg width="80" height="81" viewBox="0 0 80 81" fill="none" xmlns="http://www.w3.org/2000/svg">
<path d="M53.5893 70.6443C53.6562 70.6157 53.7136 70.5872 53.924 70.5396C53.4268 70.8535 52.7287 71.0818 53.5893 70.6443ZM45.9683 70.7584C46.4559 70.7965 46.0256 70.7299 45.6623 70.6157C45.7483 70.6728 45.8631 70.7108 45.9683 70.7584ZM46.3986 70.9296C46.7045 71.0248 46.9914 71.0723 47.2018 71.0533C47.0488 70.9677 47.1827 70.9011 47.2878 70.9772C47.307 70.9962 47.3165 71.0152 47.3357 71.0343C47.3548 71.0248 47.393 71.0343 47.4122 71.0248C47.9094 70.8535 47.7851 71.1009 46.2551 70.7774C46.3029 70.8345 46.3603 70.8821 46.3986 70.9296ZM0.203756 45.3407C0.242004 45.4549 0.289815 45.4549 0.270691 45.179C0.261129 45.2075 0.242004 45.2361 0.203756 45.3407ZM67.923 20.4652C68.076 20.9028 68.2864 21.2643 68.0664 20.7316L67.923 20.4652ZM1.81976 45.6736C1.85801 45.6832 1.89626 45.6736 1.90582 45.6166C1.97276 45.3788 2.11619 44.6177 2.10663 44.3324C2.07794 43.7616 1.99188 43.6284 2.04925 42.9435C2.05882 42.8199 2.03969 42.6296 2.00144 42.5916C1.96319 43.4192 1.83889 44.5226 1.81976 45.6736ZM47.6321 79.7478C47.6225 79.8239 47.4695 79.9666 47.6416 79.9476C48.1006 79.9095 48.8273 79.6908 48.9134 79.51C48.9421 79.4529 48.9517 79.3959 48.9899 79.3483C47.1635 79.881 47.6512 79.5576 47.6321 79.7478ZM69.4625 52.38C69.4529 52.4181 69.2712 53.0079 69.0418 53.512C69.0322 53.6738 69.0704 53.7308 69.233 53.5786C69.233 53.5786 69.2426 53.5786 69.2713 53.493C69.3095 53.4074 69.3573 53.2457 69.4147 52.9127C69.6633 51.5239 70.3709 51.4383 70.0267 50.6678C69.7589 51.3337 69.5007 52.009 69.4625 52.38ZM1.71458 43.3621C1.57114 43.9328 1.49465 43.8662 1.43727 44.1802C1.41815 44.2753 1.38946 44.3704 1.35122 44.456C1.39903 44.8175 1.42771 45.2266 1.44684 45.7117C1.59027 45.4834 1.42771 45.7022 1.71458 43.3621ZM60.0916 65.4979C60.0533 65.6026 60.2637 65.4694 60.2541 65.4028C60.235 65.3552 60.1203 65.4123 60.0916 65.4979ZM71.2889 45.0744C71.2602 45.1124 71.2411 45.179 71.2506 45.2266C71.308 45.4168 71.2793 45.6832 71.2124 45.9685C70.9924 46.9483 70.8681 47.9567 70.5143 48.9079C70.4474 49.2504 70.2753 49.3836 70.7821 48.8128C70.8968 48.4133 70.9924 48.0423 71.0498 47.6998C71.002 47.7474 70.9351 47.833 70.8394 48.0042C70.8873 47.5381 71.0116 47.3479 71.1646 47.1766C71.2219 46.9293 71.2697 46.7295 71.2889 46.663C71.4992 45.9685 71.3941 45.9019 71.6522 44.7034C71.6618 44.3894 71.6714 44.1326 71.5853 44.1421C71.3654 44.5512 71.4419 44.8365 71.2889 45.0744ZM59.5274 66.7441C59.317 66.9153 59.0875 67.0961 58.8581 67.2863C59.1354 67.0961 59.3648 66.9153 59.5274 66.7441ZM59.6708 66.0592L59.7091 66.0211C59.7187 65.9831 59.7282 65.9545 59.7282 65.926C59.4509 66.1638 59.5083 66.0211 59.6708 66.0592ZM59.1067 66.4207C59.1927 66.3826 59.2214 66.316 59.2405 66.2494C59.1067 66.3731 59.0876 66.4302 59.1067 66.4207ZM25.9164 75.9808C25.8208 75.9238 25.8208 75.9142 25.7539 75.9047C25.7825 75.9428 25.8304 75.9713 25.9164 75.9808ZM39.3034 6.90024C38.615 7.03341 37.8978 7.11903 37.2476 7.35684C37.152 7.38538 36.9798 7.39489 37.085 7.27123C37.1424 7.20464 37.238 7.11903 36.5495 7.33782C36.1862 7.45197 36.5208 7.44245 35.8802 7.61368C35.5933 7.71832 34.2546 8.0798 33.241 8.4603C32.3996 8.78373 32.7629 8.43177 31.9884 8.75519C31.0609 9.12619 30.6592 9.61133 30.2098 9.69694C29.9038 9.76353 29.8178 9.84915 29.5787 10.0299C30.0664 10.087 30.0473 9.79207 31.9214 9.03106C32.4187 8.8313 32.1892 9.15472 32.7151 8.85983C33.5183 8.40323 33.9486 8.27956 34.5032 8.1559C34.9813 7.98467 35.5838 7.93711 35.8802 7.81345C37.4866 7.22366 38.0699 7.34733 39.7242 7.04292C39.9632 7.00487 40.1927 6.91926 40.4318 6.90975C40.1449 6.83365 39.8389 6.7956 39.3034 6.90024ZM27.1595 11.0287C27.389 10.9431 27.6185 10.886 27.8097 10.867C27.9818 10.7433 28.0583 10.7148 28.5173 10.458C28.5747 10.3723 28.699 10.2487 28.7564 10.1726C28.2113 10.3628 27.7715 10.6102 27.1595 11.0287ZM14.8339 68.4849C14.9869 68.6276 14.9199 68.4183 14.9104 68.3327C14.8912 68.1805 14.5566 67.8475 14.4131 67.7239C14.2984 67.6192 14.6713 68.3327 14.8339 68.4849ZM29.6935 7.87052C29.6743 7.79442 29.55 7.74686 29.3205 7.8515C28.9667 8.02272 29.3397 7.98467 29.6935 7.87052ZM45.0885 70.2257C45.1937 70.2828 45.3276 70.3208 45.4423 70.3684C45.471 70.2067 45.6049 70.2162 45.9778 70.435C46.0926 70.5016 46.1117 70.5491 46.0926 70.5777C46.7141 70.7679 47.8329 70.806 48.5214 70.806C49.076 70.844 51.2657 70.4445 52.8721 69.7025C52.8913 69.5598 52.9295 69.4266 53.4937 69.1793C54.5168 68.7227 54.6125 68.7417 54.928 68.7132C55.5878 68.3232 55.7408 68.2281 55.0906 68.6847C55.234 68.6561 55.4252 68.6086 55.7121 68.4944C55.9703 68.3898 55.1575 69.0652 54.3352 69.4837C54.3447 69.5218 54.3256 69.5693 54.3256 69.6264C54.7368 69.5027 55.1001 69.303 55.4922 69.1222C56.7544 68.2566 56.5536 68.7988 57.4429 67.819C57.3377 67.8761 57.3568 67.8285 57.615 67.6192C57.8062 67.41 58.0453 67.2007 58.3704 67.1246C58.8102 66.9629 59.0493 66.8107 59.0111 66.9724C59.1449 66.8487 59.2692 66.7251 59.4127 66.5824C59.4414 66.5538 59.4318 66.5538 59.4605 66.5253C59.2884 66.5729 59.0397 66.9153 58.8772 66.8487C58.466 66.7441 59.1354 66.4302 59.0111 66.2209C58.9824 66.1733 59.0971 66.0877 59.1927 66.0497C59.3075 66.0116 59.2788 66.1067 59.2788 66.2019C59.3266 66.1638 59.3553 66.1543 59.4031 66.1353C59.1258 66.2304 59.5848 65.7072 59.8812 65.4789C60.1681 65.203 60.2637 65.1555 59.5178 65.6596C60.3593 64.9081 60.3976 64.9272 60.4741 64.7274C60.5984 64.3754 60.7992 64.4325 61.0765 64.2423C61.2008 64.1567 61.3538 63.9664 61.3442 63.8903C61.3442 63.8618 61.3155 63.8522 61.3251 63.8237C61.3155 63.681 61.6215 63.3766 61.8128 63.2625C61.9179 63.1959 62.0136 63.1673 62.0901 63.0342C62.1857 62.8629 62.2622 62.9105 62.4056 62.7678C62.2718 63.3956 61.9084 63.3195 61.5163 63.9284C61.4685 64.014 61.4016 64.0615 61.3347 64.1186C61.1147 64.3184 61.0478 64.5276 61.1625 64.5086C61.2677 64.4801 61.2008 64.5372 61.5163 64.1376C61.5737 64.0615 62.2144 63.3195 62.9507 62.4824C63.1802 62.0924 62.8742 62.2256 63.008 61.788C61.612 63.5003 61.6885 63.1008 62.9985 61.4931C63.5244 60.7702 64.0981 59.9711 64.3754 59.6572C64.3085 59.6191 64.4041 59.4194 64.6623 59.2291C64.7005 59.2767 64.7197 59.3908 64.6145 59.524C64.5475 59.5906 64.5093 59.6096 64.471 59.6287C64.4137 59.7333 64.3181 59.8855 64.1746 60.1043C64.4328 59.9045 64.7484 59.6382 65.0257 59.2577C64.9205 59.1245 64.777 59.0389 64.997 58.6774C65.0926 58.5347 65.1213 58.6679 65.1691 58.7059C65.236 58.7535 65.3699 58.4396 65.4464 58.2398C65.5516 57.9639 65.8384 57.8213 65.7906 58.0305C65.695 58.4396 65.4464 58.4396 65.3316 58.763C65.303 58.8391 65.2743 58.9057 65.2551 58.9628C65.4177 58.7535 65.5324 58.6203 65.5994 58.5727C65.6568 58.4015 65.7428 58.5442 65.8767 58.3635C65.9532 58.2683 65.8862 58.2303 65.8767 58.1827C65.8384 58.021 66.2879 57.6405 66.46 57.2695C66.6321 56.9271 66.546 56.8034 66.4313 56.908C66.3357 56.9937 66.2401 57.1173 66.1349 57.2315C66.0966 57.0032 66.4791 56.4609 66.5652 56.6227C66.6321 56.5941 66.7086 56.5466 66.7182 56.6417C66.7564 56.9176 67.005 55.5477 66.9572 55.5477C66.9381 55.5477 66.9094 55.5668 66.8712 55.5858C66.6799 56.0139 66.4982 56.3848 66.3739 56.5466C66.2305 56.7273 65.5133 58.0305 65.4655 58.1161C65.3795 58.2874 65.2073 58.4205 65.2934 58.1922C65.4368 57.7927 65.7906 57.1839 66.0201 56.6607C66.5938 55.4812 66.5747 56.1375 66.9859 54.7106C67.4449 53.7118 67.6553 53.2267 67.9039 52.8937C67.8178 52.8557 67.7509 52.751 67.8082 52.6559C68.076 52.1517 67.7222 52.0186 68.1525 52.0281C68.2194 51.7237 68.2194 51.7617 68.7836 50.0685C68.7071 49.8687 68.6306 49.6024 68.468 49.8687C69.1087 47.9472 69.3095 46.7581 69.4051 46.7771C69.0513 48.4513 68.4489 50.1826 69.233 48.6226C69.1756 48.965 69.1374 49.2409 69.1087 49.4216C69.1565 49.2789 69.1852 49.3836 69.0896 49.5167C69.0418 49.7546 69.0704 49.9543 68.9461 50.097C68.9174 50.1731 68.8888 50.2112 68.8601 50.2016C68.8123 50.2682 68.7549 50.3443 68.6784 50.5631C68.3342 51.6285 68.4011 51.3527 68.468 51.3527C68.4202 51.4383 68.4107 51.4383 68.4011 51.4193C68.2194 52.009 68.2577 52.0756 68.162 52.2469C68.0569 52.7035 68.1238 52.9318 67.9325 52.9032C67.7987 53.2837 67.8178 53.1696 67.9134 53.1125C68.076 53.0079 67.8465 53.826 68.3342 53.2171C68.4011 53.2267 68.382 53.6167 68.1334 54.216C68.1047 54.3206 67.9421 54.6345 67.8656 54.9104C67.7126 55.4621 67.5596 55.8141 67.2728 56.3373C66.8807 57.0412 67.0815 56.499 67.2919 55.8997C67.2441 56.0139 67.2058 56.2136 66.9572 56.5941C66.4408 57.3742 66.546 57.8403 65.9914 58.411C65.8576 58.5537 65.9149 58.6108 65.8862 58.7725C65.848 59.0294 65.6663 59.2196 65.4559 59.524C65.2265 59.8569 65.1404 59.8379 65.1404 59.7048C64.9492 59.9901 64.7101 60.304 64.5762 60.5323C64.5762 60.6275 64.538 60.656 64.4806 60.7321C64.4806 60.7511 64.4615 60.7987 64.4902 60.7892C64.5093 60.7797 64.538 60.7702 64.5667 60.7606C64.6623 60.637 64.7579 60.5323 64.8153 60.5038C64.8057 60.5609 64.777 60.618 64.7484 60.6845C65.2073 60.4848 65.3603 60.1709 65.7141 59.524C65.8002 59.115 66.1636 58.9057 66.3165 58.2588C66.546 57.8308 66.7373 57.4027 66.9668 57.0602C66.9476 57.0698 66.9381 57.0602 66.8998 57.1078C66.7182 57.3171 66.8329 57.0793 66.9572 56.889C67.005 56.8224 67.0911 56.8129 67.1867 56.8034C67.2919 56.6797 67.2823 56.7178 67.4258 56.4895C67.4066 56.3563 67.4258 56.2041 68.0473 55.2719C68.229 54.9865 68.0664 54.9294 68.315 54.6345C68.3628 54.5109 68.4107 54.3967 68.4585 54.2731C68.4107 54.0352 68.5732 53.5311 69.0322 52.8652C69.1565 52.6654 68.9844 52.751 69.0131 52.5703C69.0513 52.3134 69.2139 51.9234 69.2999 51.9805C69.3669 52.0281 69.3764 52.2183 69.5199 51.9044C69.6155 51.6856 69.5199 51.5429 69.4912 51.3907C69.4529 51.21 69.6059 51.0102 69.5964 50.8295C69.5868 50.6963 69.5486 50.7914 69.4816 50.8866C69.2617 51.191 69.2808 51.0007 69.2426 50.7058C69.233 50.6392 69.1183 50.7914 69.0896 51.0102C69.0418 51.3146 68.8696 51.3907 68.841 51.5905C68.8027 51.8759 68.7836 52.0661 68.6497 52.1898C68.4872 52.342 68.6784 51.8568 68.7549 51.5144C68.7931 51.3241 68.8505 51.1814 68.9461 51.0388C68.9844 50.9817 69.0418 50.8675 69.0513 50.8009C69.1469 50.3443 69.3669 50.1255 69.3956 49.5072C69.4051 49.336 69.4816 49.0031 69.5964 48.8794C69.7111 48.7557 69.7111 48.6511 69.7876 48.4228C69.8832 48.1279 69.9119 48.4608 70.0936 48.2706C70.1988 48.1469 70.237 48.3277 70.1892 48.4513C70.0649 48.7652 70.0075 49.0601 69.8928 49.4311C69.778 49.8021 69.7589 49.4121 69.6537 49.5167C69.5486 49.6119 69.4529 49.8687 69.4434 50.0304C69.3956 50.5536 69.5294 50.2016 69.6346 50.43C69.6729 50.5156 69.9693 49.7355 70.0362 49.5548C70.0936 49.4121 70.1127 49.1553 70.151 49.0316C70.5908 47.6618 70.3805 48.3657 70.8873 46.3586C70.849 45.921 71.0498 44.9412 70.8394 44.8556C70.7151 44.7985 70.5526 44.9126 70.4283 44.9126C69.8545 47.814 69.0896 50.0399 69.6155 48.0803C69.692 47.8045 69.6824 47.7854 69.6155 47.8045C69.5486 47.8235 69.6346 47.3098 69.778 46.6249C69.692 46.7105 69.6633 46.5964 69.8737 46.1873C70.1318 45.1695 70.6578 42.0969 70.543 43.2289C70.8777 42.2396 71.3367 41.5927 71.3845 41.9828C71.4036 42.2681 71.4323 42.4489 71.461 42.5916C71.5279 42.2586 71.5949 41.821 71.6714 42.0018C71.853 42.4298 71.8626 43.3716 72.3885 40.2039C72.3694 39.8234 72.3407 39.4239 72.3216 39.0338C72.3025 38.7104 72.3981 38.4155 72.4076 38.0826C72.4268 37.6926 72.3981 37.3025 72.3885 36.922C72.3885 35.0576 72.159 36.2752 72.0538 35.2098C72.0156 34.7817 71.9678 34.4297 71.9104 34.2014C71.92 34.4393 71.9295 34.6771 71.9295 34.9054C71.92 35.2098 71.8244 35.2573 71.7957 34.9339C71.767 34.6485 71.7287 34.2966 71.7096 33.9256C71.4132 33.9161 71.3558 32.9648 71.4897 32.375C71.7192 32.2894 71.5949 31.2811 71.7574 31.3381C72.0538 31.4523 72.3503 32.9077 72.3981 33.0694C72.3885 32.8982 72.3694 32.746 72.4268 32.746C72.4841 32.746 72.5033 32.7365 72.5224 32.708C72.5224 32.6414 72.5224 32.5748 72.5128 32.5177C72.2642 30.1491 72.312 29.5307 72.0252 28.9314C71.7957 28.4178 71.6235 29.0456 71.4897 28.1324C71.461 27.8946 71.2411 26.1918 71.0307 25.973C70.9542 25.9064 70.8968 25.9064 70.4474 24.2988C70.5048 24.2703 70.5717 24.2608 70.6195 24.2132C70.696 24.1276 70.543 23.6234 70.3709 23.3285C69.6824 22.3868 70.2944 22.4534 69.5103 20.7601C69.2713 20.2274 69.0131 19.8279 68.9366 19.8945C68.7262 20.0562 69.2139 20.6555 67.5979 18.2868C67.5023 18.049 67.5596 17.9444 67.3875 17.6114C66.9955 16.8885 67.3493 17.3831 67.3206 17.0882C67.2728 16.7838 66.8329 16.2321 66.7851 16.4033C66.546 16.9551 66.2114 15.5472 65.0735 14.5198C64.4041 13.892 64.4232 13.5781 64.0312 12.9217C63.7156 12.4366 63.4288 12.2368 62.9794 11.8087C62.7881 11.6375 62.7785 11.4568 63.1132 11.6756C63.2758 11.7802 63.7061 12.1797 63.8304 12.2273C63.9643 12.2749 64.2129 12.4366 64.4519 12.5983C63.7348 11.8944 63.9834 12.2273 62.5012 10.9431C62.2813 10.7909 62.004 10.5911 61.7267 10.3914C61.851 10.6197 61.9466 10.848 61.612 10.6292C61.1339 10.3153 61.0765 10.0679 61.2964 10.0965C60.8374 9.78256 60.4358 9.50669 60.2446 9.39254C60.5219 9.73499 59.6708 9.37352 59.4414 9.69694C59.3075 9.83012 57.0126 8.57446 56.1998 8.25103C57.6628 8.63153 58.3417 8.97398 57.2038 8.03224C56.6779 7.93711 55.8938 7.66124 55.1575 7.35684C54.4021 7.09049 53.6562 6.84316 53.2738 6.63388C52.6522 6.31045 51.5048 6.13923 50.3095 5.76823C49.7549 5.62555 49.4106 5.64457 48.703 5.57798C47.9476 5.48286 48.0719 5.71116 47.9381 5.87287C47.7946 6.08215 47.1253 6.01556 46.6281 5.97751C46.1404 5.93946 45.8344 5.8158 46.4559 5.73018C46.8958 5.67311 46.9245 5.3687 45.6527 5.09284C48.1102 4.84551 47.546 4.93112 48.5118 4.9882C48.7222 4.99771 48.4831 4.89307 48.7222 4.90259C48.8847 4.9121 49.0473 4.92161 48.9612 4.836C49.009 4.76941 49.162 4.77892 49.3055 4.80746C49.6784 4.74087 50.1278 4.86454 50.5199 4.85502C49.1142 4.44598 49.4393 4.70282 48.5405 4.45549C47.1827 4.14158 45.7579 4.30329 46.2838 4.46501C46.3699 4.49354 46.7715 4.54111 47.0775 4.58867C47.393 4.65526 47.613 4.71233 47.3452 4.6838C47.0966 4.62672 46.1404 4.67428 45.2224 4.65526C44.3044 4.64575 43.4247 4.7599 43.2717 4.69331C43.0136 4.62672 44.1801 4.52208 44.3044 4.37939C44.4288 4.24622 42.8701 4.27475 42.3346 4.34134C41.8565 4.43647 41.5697 4.40793 41.3115 4.35085C40.9577 4.26524 40.0684 4.36988 40.1736 4.42696C40.5083 4.6077 39.7815 4.67428 40.0971 4.85502C40.1832 4.9121 40.4891 4.95015 40.317 4.99771C40.0302 5.0643 39.4086 5.0643 39.16 5.02625C38.9496 4.99771 39.1313 4.87405 39.2269 4.77892C39.6572 4.39842 37.8787 4.87405 37.6014 4.74087C37.5153 4.70282 37.936 4.58867 38.4811 4.46501C37.4579 4.6077 35.3065 5.13089 34.4745 5.40675C33.7383 5.94897 35.8897 5.18796 36.4539 5.01674C36.8938 4.86454 37.2571 4.95015 36.7408 5.10235C35.4499 5.50188 35.2013 5.64457 34.6945 5.88239C33.6522 6.37704 32.8872 6.31997 32.8012 6.80511C32.7438 7.21415 32.2848 7.24269 30.8122 7.79442C30.0855 8.09882 30.1524 8.3842 29.4353 8.61251C28.3069 8.99301 26.5284 10.144 26.3276 9.99183C26.2224 9.89671 26.2224 9.71597 25.706 9.93476C25.3905 10.0774 25.0271 10.3438 24.9124 10.3343C24.6733 10.2962 26.2511 9.43059 25.5052 9.49718C25.4001 9.50669 25.5148 9.35449 25.6487 9.2879C25.9929 9.10716 26.4232 9.06911 26.6909 9.04057C27.1691 8.97398 26.7388 9.32595 26.9682 9.43059C27.1786 9.5162 27.9723 8.85983 28.5269 8.4603C28.3834 8.40323 28.0966 8.34615 28.6416 8.07029C28.9476 7.9276 31.08 7.00487 31.1756 6.97634C31.7876 6.60534 32.9063 6.1963 33.0593 6.11069C33.3749 5.95849 33.2888 5.92044 33.0402 5.98702C32.39 6.1963 31.5868 6.51973 31.4625 6.45314C30.6784 6.73852 30.1238 7.0239 29.1293 7.45197C28.9667 7.69929 28.1731 8.14639 27.8384 8.06077C26.079 8.93593 25.7252 9.0596 25.161 9.364C24.8646 9.62084 25.4001 9.49718 24.3004 10.2487C23.8414 10.5816 23.2486 10.9431 22.7131 11.257C22.0342 11.6661 21.9577 11.5043 21.5656 11.8373C21.1353 12.2178 20.8867 12.4746 20.4373 12.5698C19.9879 12.6649 20.6955 12.1417 21.2118 11.7231C20.7242 12.0275 20.2939 12.2463 19.7106 12.6744C19.4046 13.0168 18.8787 13.1881 18.5822 13.4925C18.4197 13.6447 18.085 13.9396 17.7408 14.2345C18.1711 14.0442 17.9894 14.2345 18.7926 13.6447C20.4947 12.4271 18.8691 14.1108 16.8897 15.6138C16.4977 15.9277 17.1479 15.2618 17.081 15.1762C16.7845 15.2904 16.8228 15.1382 16.8419 14.9955C16.7367 15.0525 16.1152 15.6233 15.551 16.137C16.0004 15.8611 15.8666 16.1845 15.0442 16.9836C14.6617 17.3926 14.9104 17.2214 15.1781 17.0502C16.0865 16.4699 15.1207 17.4117 14.6713 17.9539C13.7629 19.0764 13.8776 19.2476 12.9501 19.8089C12.625 20.0181 13.2465 19.2381 13.5621 18.7625C13.7916 18.439 13.4282 18.5532 13.1892 18.6578C12.9406 18.9527 12.6728 19.2571 12.4051 19.571C12.5485 19.9515 12.0704 21.3214 11.0186 22.4058C11.0377 22.4819 10.9325 22.596 10.8847 22.577C10.3779 23.2239 10.703 23.2049 9.91891 24.0134C9.84242 24.2227 9.81373 24.4034 9.77548 24.5842C9.60336 24.86 9.67986 24.5081 9.50774 24.7649C9.4408 24.8696 9.36431 24.9742 9.3165 25.0503C9.20175 25.3167 9.02963 25.4403 8.86707 25.4879C8.81926 25.564 8.41765 26.0682 8.38897 26.0967C8.47503 26.0682 8.58021 25.9825 8.69496 25.8208C8.91489 25.5354 8.72364 26.2584 8.48459 26.8006L8.52284 26.7721C8.48459 26.8482 8.33159 27.1526 8.19772 27.2858C7.88217 27.5711 7.96823 27.9707 7.52837 28.5034C7.29888 28.7888 7.33713 28.998 7.08851 29.3881C6.94508 29.6068 6.90683 29.8732 6.83033 29.9017C6.7634 29.9208 6.6869 29.9873 6.60084 30.0825C6.46697 30.6437 6.44785 31.3667 6.46697 31.633C6.55303 32.4321 7.05983 31.595 6.32354 33.0409C5.61594 34.4297 5.87412 34.2966 5.49163 35.6759C5.29083 36.4749 5.11871 36.104 4.82228 36.9506C4.61191 37.5689 4.81272 36.5701 4.62147 36.6747C4.47804 36.7508 4.2103 36.8555 4.0095 37.0838C4.14337 37.3882 4.03818 37.7211 3.99993 38.3299C3.94256 39.0053 3.45489 39.9661 3.53139 39.3002C3.54095 39.186 3.56964 38.9673 3.59832 38.7294C3.55051 38.739 3.51226 38.7389 3.5027 38.7104C3.4262 38.5011 3.3019 38.6819 3.1489 38.9292C2.9481 40.2229 2.93853 39.7948 2.77598 41.3835C2.83335 41.5547 2.77598 42.0208 2.68992 42.4298C2.63254 43.5714 2.53692 44.085 2.55605 44.8841C2.5943 44.8175 2.60386 44.8841 2.68036 45.0744C2.65167 45.1314 2.63254 45.1885 2.60386 45.2551C2.58473 45.2456 2.57517 45.2361 2.55605 45.217C2.56561 45.8829 2.55605 46.5298 2.64211 46.8913C2.67079 47.034 2.69948 47.3859 2.72817 47.795C2.9481 47.6047 3.38796 48.0708 3.72263 49.3645C3.933 50.2112 4.07643 51.0578 4.10512 51.9329C4.08599 52.9318 5.02309 54.216 5.08046 55.3955C5.11871 55.8331 4.95615 55.4431 4.76491 55.1672C4.55454 54.8628 5.05177 56.4229 5.05177 56.9746C5.04221 57.1078 5.31951 57.8878 5.39601 58.0781C5.73069 59.153 6.42872 60.0092 6.17055 59.4003C5.96018 58.8581 5.53944 57.9164 5.71156 57.9735C5.86456 58.021 6.16098 58.4205 6.29485 58.9437C6.43829 59.5811 6.73471 59.8284 7.03114 60.2375C7.37538 60.675 7.37538 61.0936 7.60487 61.6739C7.77699 62.159 8.14991 62.2636 8.34116 62.8344C8.43678 63.1388 8.62802 63.3766 8.80014 63.6239C8.8097 64.0806 8.41765 63.4622 7.87261 62.568C7.27019 61.6073 6.90683 61.4456 7.65268 62.6441C8.20729 63.5098 7.56662 63.3956 8.26466 64.1376C9.47905 65.4218 9.99541 66.8297 11.3246 68.4373C11.621 68.7227 12.1182 69.4266 12.319 69.5123C12.8736 69.731 12.4529 68.9986 13.3422 69.7215C13.4665 69.8262 12.9884 69.0366 13.4473 69.4552C13.9828 69.9498 14.2984 70.2542 14.4323 70.4159C14.5566 70.5777 14.4992 70.5967 14.2984 70.4825C14.0211 70.3208 14.002 70.3208 14.1645 70.5301C14.7 71.196 15.1399 71.5955 14.9964 71.7858C14.9199 71.8809 16.2586 73.2127 16.5551 73.4314C16.8037 73.3744 16.9089 73.5646 17.1288 73.8405C18.8691 74.9915 18.2093 74.4778 18.8882 74.9249C19.5193 75.3625 19.0699 75.0962 19.5289 75.2484C19.6628 75.2959 20.0261 75.5052 19.9974 75.5813C19.9687 75.5623 19.9209 75.5433 19.8922 75.5337C19.701 75.4386 19.6914 75.5623 19.8253 75.6764C19.4428 75.5433 19.0699 75.3911 19.4046 75.6384C19.6245 75.7716 20.0835 76.114 21.0015 76.5706C22.3784 77.2555 21.7091 77.227 23.1147 77.9119C23.4972 78.1117 23.7458 78.0546 23.9084 78.1973C23.9849 78.2448 23.8605 78.1878 25.0749 78.6729C25.1227 78.6824 25.1801 78.6824 25.2088 78.6919C25.8877 78.7205 26.385 79.3198 27.0161 79.2912C26.9396 79.2151 26.7292 79.0154 26.5666 78.9868C26.2415 78.9297 25.9929 78.7775 25.7252 78.6539C25.8399 78.6539 26.4423 78.9583 27.1212 79.1295C27.6185 79.2817 27.4368 79.5005 28.5651 79.491C28.7277 79.5386 28.8998 79.5861 29.0624 79.6337C29.1006 79.6622 29.158 79.6908 29.158 79.7098C29.1771 79.9381 28.2305 79.5576 28.0392 79.5861C27.9627 79.5956 28.1061 79.6717 28.1826 79.7288C28.2018 79.7478 28.1922 79.7573 28.1922 79.7669C30.1811 80.2805 29.5118 80.29 29.6648 79.9856C29.6552 79.9571 29.6457 79.9476 29.6361 79.9381C29.8656 80.1188 30.1046 80.0427 30.2576 80.3091C31.4338 80.4898 30.621 80.3376 32.2083 80.7276C32.2944 80.7086 32.3996 80.6801 32.4474 80.661C32.5334 80.6705 32.6004 80.661 32.6673 80.6515C32.8012 80.7086 32.7438 80.7086 32.6769 80.7847C32.4282 80.7752 32.5717 80.7752 32.6577 80.8323C33.4896 81.0225 33.1645 80.8703 34.7805 80.8798C34.8762 80.8608 34.8857 80.8227 34.9144 80.7847C35.01 80.7942 35.0961 80.8037 35.1917 80.8037L35.2491 80.8893C36.1384 80.8608 35.7463 80.9179 36.4922 80.9654C36.6165 80.8988 36.7503 80.8323 36.8842 80.7847C36.9033 80.7752 37.1328 80.7562 37.3814 80.7847C37.5344 80.8132 37.2763 80.9179 36.9894 80.9845C38.0125 81.0035 38.0125 80.9845 38.5098 81.2698C38.5863 81.2128 38.4046 81.1557 38.2898 81.0701C38.2707 81.051 38.2898 81.032 38.3568 80.9845C38.6532 80.8989 38.854 80.7942 38.9879 80.6801C39.0835 80.5945 39.3704 80.5944 39.7815 80.5659C39.8963 80.5754 39.9823 80.5944 39.9919 80.6135C40.0206 80.7371 40.231 80.8418 40.3744 80.9464C40.4987 81.0415 40.317 81.032 40.0397 81.0891C39.8389 81.1367 40.0588 81.2223 40.2788 81.2413C41.2637 81.2508 41.3306 81.1462 42.2868 80.9845C42.5546 80.9369 42.3155 80.8798 42.1625 80.8228C42.0573 80.7847 42.3346 80.6705 42.7841 80.6991C43.6447 80.8228 43.9602 80.252 44.7347 80.2996C44.9642 80.3091 44.8399 80.3947 44.7634 80.4898C44.6965 80.5754 45.2415 80.5659 45.4902 80.4327C45.9874 80.1188 47.0775 79.6908 47.5173 79.6812C47.5078 79.6717 47.5078 79.6527 47.546 79.6242C47.8903 79.5386 48.2345 79.4054 48.5309 79.3102C50.2712 78.8727 50.4051 78.9107 49.9748 79.0819C50.3382 79.0724 49.6306 79.3959 49.8983 79.3673C50.8928 79.2532 51.1988 79.0439 51.7725 78.73C51.3804 78.7205 50.8641 78.7775 51.7438 78.5017C52.6044 78.2734 54.0674 77.227 53.7997 77.6646C53.7136 77.7692 53.9335 77.7882 53.8475 77.9785C54.8133 77.7597 55.1288 77.4077 56.2763 76.9226C56.2763 76.9226 56.5345 76.7704 57.2899 76.4279C58.1218 75.9618 58.7338 75.3245 59.2979 75.0581C59.4318 74.944 59.5752 74.8488 59.7282 74.8108C60.082 74.7442 60.4549 74.3161 61.1052 73.9071C61.3538 73.5646 61.1625 73.6312 61.9275 73.108C62.0614 73.0034 62.1953 72.9844 62.3196 72.9273C62.3865 72.8987 62.4439 72.8607 62.5012 72.8322C62.9411 72.4231 63.6009 71.8524 64.0981 71.5384C64.5189 71.2055 64.8631 70.9011 65.0065 70.5872C65.0735 70.435 65.303 70.1877 65.4655 70.0735C65.8767 69.7786 67.6744 68.0663 68.1525 67.4861C69.3286 65.9831 68.9079 66.2494 69.7398 65.2601C69.7494 65.3457 69.7972 65.3648 69.8737 65.3362C70.6769 64.3279 70.3613 64.7845 71.5088 63.0056C71.7383 62.5395 73.0387 60.8653 73.2682 60.3516C73.6316 59.7333 74.081 58.7249 74.6356 57.7832C75.0277 57.1839 76.2803 53.8735 76.4907 53.141C76.6341 52.6559 77.5043 49.6689 77.7433 49.1267C77.8868 48.8223 77.7529 48.8318 77.9537 47.8425C78.1258 46.9578 78.1354 46.663 78.4892 45.6261C78.69 44.9602 78.7091 43.9614 78.9768 42.9245C78.9768 42.8674 79.149 42.2681 79.2063 41.6688C79.7418 37.3406 79.7801 37.7877 79.6366 37.7116C79.4645 38.9577 79.149 36.3132 79.2159 35.2764C79.5697 36.3132 80.1339 32.9553 79.7131 37.0933C79.7227 37.1123 79.7323 37.1694 79.7418 37.1979C79.8088 36.142 79.9331 35.0861 80 34.0492C79.8183 33.8019 80.0096 33.9636 79.5697 33.7258C79.4263 33.6592 79.3402 32.4606 79.5793 32.7555C79.6366 32.8221 79.6749 32.8316 79.7036 32.6794C79.8088 32.0896 79.8757 32.2038 79.9522 32.6319C79.8279 30.9291 79.8279 30.073 79.6462 29.6734C79.4836 29.3215 79.5123 29.1502 79.5793 28.9505C79.4263 27.9041 79.1585 26.1633 78.4605 24.6032C78.3649 24.3939 78.2884 24.1656 78.2406 23.9088C78.1067 23.2239 78.0493 23.1288 77.7242 22.2631C77.5808 22.3487 77.313 22.0538 76.9401 21.2833C76.9305 21.4355 76.768 21.0074 76.615 20.6555C76.5481 20.4272 76.5481 20.2559 76.1465 19.4474C75.0181 16.917 76.0891 19.3522 76.6437 20.1608C76.7584 20.294 76.7297 19.7613 76.3473 19.0669C76.2421 18.8861 75.6779 18.2012 75.0755 16.8504C74.6452 16.3367 73.6603 14.9479 73.5264 14.4818C73.2109 14.1013 72.924 13.6732 72.5415 13.0454C72.1782 12.4937 71.0211 11.5614 70.2848 10.458C69.9215 9.94427 70.0075 10.3343 69.6155 9.95378C68.1716 8.57446 67.9612 8.13688 67.5596 8.17493C67.4353 8.18444 66.5269 7.35684 66.2879 7.19513C65.7046 6.72901 65.9341 6.61486 65.2838 6.51973C65.1595 6.43412 65.0352 6.31997 64.9109 6.26289C64.6336 6.12971 63.9643 5.7397 63.314 5.23553C61.698 4.1606 59.0015 3.26642 58.8007 3.15227C58.6286 3.06665 58.2652 2.82884 58.0931 2.79079C57.5002 2.62907 57.2994 2.38174 56.85 2.33418C56.4771 2.29613 56.2093 2.28662 55.7982 2.05832C55.626 1.96319 55.6739 1.88709 55.5113 1.90611C55.3774 1.91563 54.7272 1.80147 54.4977 1.67781C53.8379 1.54463 52.308 1.08803 51.8777 0.793138C51.3613 0.669474 50.9215 0.621911 50.8736 0.659961C50.7111 0.793138 50.0896 0.640936 50.1947 0.7646C51.237 1.08803 49.1716 0.878751 48.6265 0.621911C48.4449 0.526785 48.7891 0.54581 49.0473 0.517272C49.1429 0.507759 49.1238 0.441171 49.0186 0.412633C48.7126 0.346045 47.9859 0.279457 48.0815 0.384095C48.1484 0.450684 47.7659 0.450684 47.5747 0.479221C47.3165 0.507759 47.307 0.441171 47.0775 0.422146C46.9054 0.412633 46.7715 0.498247 46.4655 0.507759C45.9778 0.526785 46.2743 0.241406 46.5611 0.260431C46.8671 0.269944 47.1731 0.288969 47.5556 0.307995C47.4217 0.174818 45.0216 -0.167636 44.5053 0.098717C44.3331 0.174818 43.7498 0.0416413 43.3674 0.098717C42.6215 0.241406 42.5354 0.212868 41.8278 0.222381C41.1872 0.231894 41.5505 0.0511539 40.9577 0.098717C40.776 0.117742 40.7473 0.127255 40.7664 0.203356C40.776 0.241406 40.7282 0.269944 40.6326 0.279457C40.2883 0.317507 39.8102 0.393608 39.8198 0.298482C37.7926 0.536297 38.5193 0.336532 39.4373 0.165305C38.4524 0.203356 37.4197 0.488734 36.5017 0.650449C35.469 0.840701 35.2873 0.859726 34.9909 0.935827C32.6864 1.45902 33.0785 1.34487 31.6537 1.85855C30.9174 2.13442 30.1907 2.47687 29.77 2.61005C29.2154 2.8003 28.4695 3.13324 27.8288 3.40911C27.0352 3.77059 23.6789 5.56847 23.3251 5.76823C22.1202 6.4246 21.2405 7.01439 21.7473 6.83365C21.7951 6.81462 21.8142 6.82413 21.8334 6.86219C21.7091 6.95731 21.3266 7.29025 21.1927 7.33782C20.007 7.75637 19.1177 8.66007 18.085 9.364C17.6738 9.62084 16.8228 10.4389 16.8037 10.5055C16.7272 10.6863 16.3064 11.0858 16.0769 11.2285C15.6084 11.5139 15.1303 12.1892 14.8147 12.2749C14.5852 12.3319 14.3653 12.5032 14.1263 12.7885C13.9924 12.9503 13.9733 13.0549 13.8011 13.169C13.2848 13.483 10.8082 16.2321 11.2481 16.0609C11.554 15.9182 11.0664 16.4794 10.703 16.8695C10.4544 16.6316 8.29335 19.514 7.91086 20.4177C7.48056 21.2833 8.16904 20.8172 6.94508 22.1109C6.63909 22.4058 5.36732 24.4605 5.41513 25.0218C5.4247 25.1835 5.31951 25.2976 5.1952 25.5545C5.04221 25.8969 4.79359 25.9159 4.68841 26.1728C4.51629 26.5343 3.92344 27.828 3.56964 28.589C3.71307 28.6841 3.6557 28.589 3.49314 29.721C5.01352 26.6579 5.30995 25.7162 5.95062 25.3452C5.74981 25.8684 4.77447 28.1324 4.52585 28.7317C3.34971 30.3679 3.51226 31.3572 2.46999 33.9922C1.93451 36.9506 1.24603 38.6438 1.15041 38.1967C1.23647 37.6069 1.40859 36.6272 1.70502 35.5998C1.64764 35.5998 1.63808 35.4095 1.64764 35.3049C1.71458 34.3061 1.94407 34.3536 1.8102 35.0385C1.80064 35.1051 1.79107 35.2193 1.78151 35.3334C2.164 33.7734 3.51226 29.9112 2.97678 31.1289C2.99591 31.2145 2.91941 31.4428 2.81423 31.4999C2.64211 31.9755 2.54649 32.3179 2.29787 32.746C2.31699 32.5177 2.38393 32.0896 2.47955 31.5855C2.43174 31.7091 2.39349 31.8233 2.34568 31.9469C2.164 32.337 2.20225 32.4797 2.04925 32.8031C1.93451 33.0599 1.69545 33.6592 1.54246 34.2395C1.38946 34.8198 1.28428 35.3715 1.33209 35.5332C1.39903 35.7425 1.43727 35.9613 1.27472 36.3037C0.968729 36.9506 1.32253 36.513 1.15997 37.1503C1.07391 37.4928 0.997415 37.0267 0.901794 37.4167C0.758361 38.0445 0.595804 38.6724 0.481058 39.3002C0.414123 39.7188 0.385437 40.5463 0.299377 40.8222C0.175069 41.2122 0.289815 41.3074 0.0890097 42.5059C0.0507611 42.7913 0.108134 42.953 0.22288 42.6486C0.270691 42.5155 0.30894 42.2491 0.347188 42.0589C0.414123 42.5345 0.528869 42.2206 0.567118 42.5916C0.911356 42.9245 0.203756 44.3229 0.481058 42.7818C0.117696 43.1433 0.127258 42.9721 0.00295013 44.3324C-0.0161742 44.6843 0.0603233 45.3788 0.155945 45.2361C0.328064 45.0173 0.318502 44.827 0.385437 44.3894C0.461934 43.9519 0.567118 44.9792 0.44281 45.6832C0.242004 46.6725 0.146383 46.6725 0.242004 46.9198C0.328064 47.1291 0.433248 46.8437 0.538431 46.6059C0.605367 46.4537 1.06435 45.9305 1.08347 45.94C1.11216 45.9495 1.13129 45.9305 1.15997 45.9305C1.16953 45.5785 1.1791 45.2266 1.18866 44.8936C0.634053 45.4073 0.806172 43.4001 1.64764 42.4679C2.13531 41.5071 2.03969 41.7545 2.13531 41.3074C2.14487 41.3264 2.15444 41.3739 2.15444 41.45C2.27874 41.1742 2.3648 40.9078 2.34568 40.7461C2.26918 40.1278 2.33612 40.4988 2.33612 39.7092C2.33612 39.3382 2.39349 39.2051 2.5943 38.9102C2.56561 39.186 2.55605 39.4524 2.46043 39.7378C2.41262 39.8805 2.48911 40.1468 2.52736 40.2324C2.82379 39.7378 2.55605 39.0624 2.88116 38.5202C3.02459 38.2728 3.23496 37.664 3.19671 37.2835C3.16803 37.0742 3.36883 36.9411 3.44533 36.5511C3.61745 35.7139 3.61745 35.4761 3.60789 35.2859C3.46445 35.8186 2.73773 37.7306 3.10109 36.3988L3.06284 36.4654C3.10109 36.2086 3.15846 36.123 3.15846 36.1896C3.31146 35.6664 3.78 34.0112 3.75132 34.4963C4.2868 32.9648 4.75535 31.8708 4.08599 32.9553C3.96169 33.1646 3.98081 32.9933 3.88519 32.9553C3.82782 32.9267 3.96169 32.5558 4.03818 32.4511C4.2868 32.0706 4.10512 32.5272 4.32505 31.8423C4.49717 31.3572 4.33461 31.9565 5.11871 30.2061C6.14186 27.4855 8.81926 22.6246 7.23195 26.3535C8.84795 23.0717 8.56108 24.2988 10.4066 21.3689C11.8505 19.2096 12.0991 18.9717 13.0457 17.8112C13.3995 17.3736 13.7629 16.9456 14.1454 16.5365C14.0402 16.5175 14.0498 16.4699 14.0498 16.4699C15.7423 14.4152 14.2697 16.2511 15.0729 15.5282C15.4076 15.1477 15.7901 14.8147 16.1534 14.4628C16.1534 14.3201 16.0961 14.1774 15.704 14.3296C16.0291 14.0918 16.6315 13.5496 17.1957 13.131C17.7694 12.7029 18.2571 12.3319 18.2858 12.3224C15.8475 14.9289 18.1997 12.2939 21.4318 10.1155C21.6326 9.89671 23.4494 8.69812 23.8319 8.52689C24.243 8.35567 24.3673 8.24151 27.0543 6.7956C27.542 6.57681 28.393 6.1963 29.1006 5.88239C28.9763 5.84434 28.9954 5.71116 29.2345 5.44481C27.9053 5.91092 28.7851 5.39724 29.703 5.0643C29.6743 4.96917 30.2289 4.54111 30.7071 4.43647C31.2617 4.29378 31.5772 4.17963 31.8736 4.28427C32.9828 3.89425 35.3351 3.16178 36.3392 2.97153C36.4444 2.86689 36.7886 2.74322 37.0468 2.67664C37.2093 2.62907 37.4866 2.66712 37.6301 2.70517L38.4715 2.572C37.7544 2.9525 39.7146 2.8003 39.8389 2.99055C43.2909 2.50541 47.9954 2.41979 51.3709 3.35203C51.5908 3.40911 54.7368 4.3128 55.0236 4.39842C55.4539 4.56964 56.5918 4.94064 56.9265 5.15943C57.2421 5.35919 57.7488 5.37822 58.0835 5.61603C59.3075 6.14874 59.7282 6.17728 61.6311 7.22366C62.2431 7.56612 62.5873 7.83247 62.9411 8.06077C63.8591 8.63153 64.7484 9.12619 65.6185 9.8872C66.6512 10.3628 67.856 11.2285 67.6074 11.5614C67.5883 11.59 67.5596 11.5995 67.5214 11.59C67.7031 11.7802 67.9039 11.9419 68.076 12.1322C68.2003 12.1322 68.315 12.1322 68.4393 12.1322C69.6155 13.6447 69.2043 13.0834 70.2944 14.6911C71.5662 16.3748 72.5415 17.9158 73.1248 19.1525C73.7463 20.3511 74.1575 21.1121 74.1575 21.2357C74.3201 21.7209 74.7791 22.7387 74.8842 23.2429C74.9129 23.3951 75.0755 23.7566 75.2094 24.1276C75.5345 25.1835 75.697 25.4308 75.7448 26.0016C75.7448 26.2204 76.0413 26.9814 76.2229 27.7614C76.6054 29.4356 76.8636 30.1871 76.9879 30.7674C77.0644 31.0813 76.9497 31.2906 77.0166 31.6996C77.0357 31.8043 77.0835 31.8518 77.1218 31.7757C77.1887 31.6425 77.1505 31.1384 77.227 31.2811C77.2461 31.3191 77.3322 31.4333 77.3226 31.5094C77.2939 32.004 77.313 32.5558 77.2174 32.9743C77.1887 33.0885 77.2652 33.0028 77.3608 33.859C77.4087 34.4773 77.1696 34.9529 77.2078 35.5713C77.4947 34.3346 77.4469 36.532 77.3226 36.2181C77.2843 36.123 77.2557 35.9042 77.2174 35.6759C77.227 35.8091 77.227 35.9422 77.1887 36.1325C77.16 36.2752 77.1122 36.9506 77.0644 37.626C77.0357 38.3014 76.8827 38.9863 76.8732 39.1575C76.7489 40.0897 76.6437 39.9756 76.5672 41.0886C76.4907 42.5345 76.0604 46.1112 75.6014 47.0244C75.305 47.481 75.4389 47.443 75.2667 48.1184C75.238 48.2421 75.2285 48.3467 75.2476 48.4133C75.3432 48.7938 75.0659 49.707 74.999 49.3645C74.9321 48.9935 74.2818 50.7439 74.1671 51.3337C74.1671 51.3337 74.1001 51.5239 74.0045 51.7807C74.1001 51.5334 73.8898 52.38 73.5647 53.0554C73.2587 53.7499 72.9814 54.3301 73.2204 53.6833C72.4076 55.5477 71.7479 57.2505 71.5853 57.5168C71.2506 58.04 70.8681 58.9247 70.5239 59.5526C70.3518 59.8094 70.3518 59.8284 70.457 59.876C70.4761 59.8855 70.4856 59.9045 70.4378 59.9711C69.845 60.9033 70.2657 60.285 70.5621 60.3421C70.6004 60.3516 70.6578 60.247 70.7151 60.1804C70.8299 60.0472 70.9064 60.1709 70.7629 60.4277C70.4665 60.9604 70.0745 61.2077 69.9789 61.0746C69.9215 60.9985 69.6729 61.3409 69.539 61.5692C69.2139 62.0734 69.5677 61.6929 68.9939 62.3017C68.8792 62.4158 68.9461 62.2446 68.9653 62.1305C69.0418 61.5787 68.0951 63.4242 67.6266 63.8427C67.3779 64.071 66.2305 65.6596 66.0297 65.926C64.6049 67.6192 64.9587 67.2958 65.5038 67.1341C66.1253 66.649 66.2687 66.5158 65.8097 67.1056C66.3452 66.8012 66.8807 66.4872 65.695 67.3624C65.5611 67.4385 65.6663 67.2863 65.8097 67.1056C65.695 67.1626 65.5898 67.2292 65.4942 67.2768C65.4177 67.3909 65.2743 67.5431 65.1691 67.6858C65.0543 67.8285 65.0065 67.7714 64.93 67.7714C64.7579 67.7619 64.2702 68.3422 63.8878 68.7608C64.1077 68.6181 64.3467 68.5134 64.6527 68.4564C64.385 68.7703 64.1459 69.0366 63.9451 69.2744C63.7252 69.5027 63.5148 69.6835 63.3236 69.8642C63.3331 69.9118 63.2471 69.9879 63.1037 70.0354C62.6255 70.4255 62.7403 70.3113 62.6638 70.4635C63.773 69.5693 64.0694 69.4457 62.2335 71.2435C61.9753 71.3862 61.1052 72.1758 59.9864 72.8892C58.9154 73.6788 57.6054 74.3827 56.8309 74.8583C56.9456 74.8679 57.1177 74.8203 57.0795 74.9154C56.8978 75.3435 56.3528 75.5433 56.0181 75.5147C56.0659 75.4196 56.1042 75.3245 56.0946 75.2484L56.1328 75.2103C54.9184 75.8286 55.1958 75.6479 56.152 75.1057C56.1137 75.0771 56.0468 75.0676 55.9607 75.0771C55.8651 75.0296 55.7312 75.0201 55.4922 75.0771C56.0181 74.7061 56.8883 74.3827 56.9169 74.5159C56.7926 74.6586 56.7353 74.7347 56.7257 74.7822C57.0699 74.5635 57.4429 74.3256 57.8636 74.0593C57.9401 73.9356 58.0644 73.8785 58.2461 73.812C58.3991 73.7073 59.3075 73.1461 59.1545 73.1746C58.8676 73.2127 58.6955 73.2793 58.925 72.9939C58.9919 72.9083 59.0684 72.8417 58.9441 72.8702C58.772 72.9083 58.6381 73.108 58.4469 73.0985C58.3799 73.0985 58.313 73.089 58.2461 73.0795C57.6628 73.4314 57.8062 73.2507 57.9305 73.3839C58.007 73.4505 57.6628 73.6883 57.4333 73.7644C57.2707 73.8215 57.309 73.6312 57.156 73.7929C56.5727 74.4017 56.0277 74.5539 55.8269 74.4874C55.6547 74.4303 55.5878 74.7537 55.2722 74.8203C55.1766 74.8393 55.0714 74.8679 54.9758 74.944C54.4499 75.3435 54.1726 75.4767 54.0196 75.5242C53.8666 75.5718 53.8188 75.5242 53.7327 75.5242C53.6084 75.5242 53.5606 75.5813 53.5319 75.6669C52.6522 75.9047 52.8243 75.8762 52.8721 75.8191C52.9391 75.743 52.9104 75.6479 53.0634 75.5813C53.5989 75.3245 54.469 75.1532 57.1369 73.5171C57.2803 73.3173 58.5329 72.6324 59.1736 72.2804C59.6517 71.9285 60.1107 71.586 60.4071 71.4148C61.1147 70.7679 61.8701 70.1877 62.616 69.5884C62.8359 69.4171 63.0463 69.2744 63.228 69.2269C63.2758 69.2174 63.314 69.1698 63.3332 69.1222C63.3618 69.0461 63.4192 68.9891 63.5818 68.8273C63.8495 68.561 63.9451 68.3422 63.9929 68.1519C64.0407 67.9522 63.5148 68.542 63.2853 68.7798C62.7212 69.322 62.463 69.341 61.9849 69.8071C59.776 71.7287 57.2134 73.3173 54.7559 74.4874C54.4117 74.6491 54.775 74.3161 54.4499 74.4874C54.1726 74.7632 54.2969 74.7918 53.7614 75.0105C52.5853 75.4862 51.9542 75.8667 50.386 76.3233C50.2712 76.3518 50.2808 76.3233 50.2712 76.2852C50.2617 76.2091 49.9174 76.4755 49.6784 76.5516C48.7987 76.7894 49.7836 76.5326 47.4982 77.227C47.0297 77.3221 46.6663 77.3602 46.6281 77.3221C46.1882 76.9511 43.463 77.9499 37.1328 77.7502C34.6371 77.7121 32.4665 77.3316 30.7262 77.0653C30.5732 77.0938 30.5827 77.0843 30.3915 76.9892C29.1293 76.7133 28.1061 76.5135 27.4368 76.3043C26.7674 76.1235 26.4136 76.0569 26.471 76.1045C26.8344 76.3518 26.9778 76.4374 26.2798 76.1901C26.1555 76.1616 25.5913 75.9333 24.7881 75.6003C23.4398 75.0105 24.8072 75.705 21.9768 74.2971C20.0166 73.2412 18.1997 71.9475 18.0563 71.8904C17.9224 71.8333 17.9033 71.7858 17.8555 71.6906C17.7886 71.548 17.473 71.234 17.387 71.3196C17.3678 71.3387 17.3391 71.3387 17.3009 71.3196C16.9184 71.0057 17.0332 71.1009 16.7845 70.8821C16.3638 70.5396 16.469 70.3399 16.2108 70.0925C15.6562 69.5503 15.0251 68.9035 14.9773 69.2079C14.9486 69.341 14.6139 68.8083 14.7096 68.8273C14.939 68.8844 14.6617 68.3517 14.4227 68.0663C14.241 67.8475 14.2984 67.781 14.2219 67.6002C14.0689 67.2673 13.8585 67.2768 13.6195 66.9724C13.3804 66.668 13.1414 66.335 12.9406 66.2494C12.7589 66.1638 12.6346 65.9831 12.778 66.297C12.8449 66.4397 12.9406 66.5919 12.8258 66.5158C12.2043 66.0687 9.75636 61.7975 10.0528 62.511C9.80417 62.14 9.61292 61.8261 9.45037 61.6548C8.51327 59.7523 7.92998 57.7737 7.85349 57.8498C7.75786 57.9259 7.5475 57.3361 7.6718 57.3742C7.86305 57.4312 7.64312 56.2041 7.42319 56.0234C7.36582 55.9853 7.318 55.9092 7.27976 55.7856C6.98333 54.9199 6.95464 55.5287 6.78252 55.1958C6.69646 55.0245 6.60084 54.8628 6.62953 54.7582C6.67734 54.5584 6.7634 54.4823 6.63909 54.1113C6.51478 53.7213 6.31398 53.455 6.4096 53.3408C6.52434 53.2171 6.46697 52.9698 6.4096 52.5893C6.38091 52.2944 6.04624 52.0661 6.07492 52.5988C6.09405 52.732 6.08449 52.8081 6.08449 52.8747C6.00799 52.5322 5.96018 52.1137 5.89324 51.8854C5.52032 50.5726 5.67331 49.6785 5.20477 48.3657C5.16652 48.2421 5.20477 47.7474 5.21433 47.5952C5.25258 47.5857 5.28126 47.6047 5.29083 47.6428C5.50119 48.2991 5.25258 46.3871 5.30039 44.1326C5.3482 43.3431 5.38645 42.6201 5.47251 42.2206C5.52032 42.0684 5.76893 40.0707 5.9793 38.9673C6.07492 38.1301 6.88771 35.8661 6.97377 35.3144C7.12676 34.7437 7.23195 34.3156 7.37538 33.897C8.41765 30.7198 8.05429 32.2038 8.93401 29.9493C9.35474 28.941 9.09657 29.312 8.9627 29.4737C8.86707 29.4451 9.09657 29.0361 9.24 28.7317C9.27825 28.6556 9.32606 28.6175 9.35474 28.6461C9.42168 28.6936 9.44081 28.6746 9.5173 28.5129C9.78504 28.0087 9.47905 28.2561 9.75636 27.6948C10.0719 27.086 10.0623 26.9718 10.5405 26.4106C10.7795 26.1252 10.9707 25.5735 11.1237 25.4689C11.5158 25.193 12.7397 23.2049 12.7589 22.9575C12.5103 23.2334 12.3573 23.4997 12.1756 23.7376C12.08 23.8802 11.8983 23.9373 11.8409 23.8898C11.401 24.9076 11.5827 24.1847 10.7986 25.3071C10.4926 25.7352 10.6552 25.3547 10.6361 25.2406C10.6265 25.193 10.4257 25.4118 10.3492 25.545C9.09657 27.828 10.8369 24.8791 9.61292 27.3714C9.33562 27.9612 9.087 28.0182 9.35474 27.4094C9.72767 26.5723 9.40256 27.067 8.90532 27.9897C8.70452 28.3607 8.87664 28.2561 8.90532 28.3607C8.95313 28.4939 8.83839 28.7222 8.67583 28.9505C8.39853 29.312 8.08298 29.9683 7.85349 30.7008C7.57618 31.4999 7.16501 32.394 6.95464 32.8792C6.62953 33.5451 6.71559 33.9161 6.45741 34.1253C6.22792 34.3061 5.96018 35.0766 6.14186 34.2109C6.31398 33.3358 6.65822 32.8031 6.88771 31.9279C6.97377 31.633 7.14589 31.3381 7.23195 31.0432C7.40406 30.4535 7.86305 29.6068 7.88217 29.8922C7.88217 29.9303 7.86305 30.0159 7.87261 30.0254C7.91086 30.0825 8.1021 29.7495 8.15948 29.5688C8.33159 28.9314 8.1786 29.3881 8.29335 28.9219C8.42722 28.3702 8.64715 28.3417 9.04876 27.6187C9.33562 27.0955 9.14438 27.3048 8.93401 27.4665C8.76189 27.5997 9.21131 26.9814 9.3165 26.6865C9.45993 26.2489 9.63205 25.8779 9.97628 25.4023C10.1867 25.1264 10.1771 25.1074 11.3054 23.2714C11.6975 22.6151 12.2808 21.8826 12.5198 21.3879C12.6441 21.1596 12.8354 20.8362 13.1509 20.5413C13.3326 20.3606 13.5334 20.1228 13.696 19.9896C13.8968 19.8279 13.849 19.942 13.7533 20.0562C12.7684 21.1596 13.1031 21.0835 11.2002 23.8041C10.7795 24.3844 10.7986 24.6603 10.9612 24.3844C11.1716 24.0325 11.4106 23.7851 11.6305 23.4712C12.0895 22.7958 12.4242 22.3297 12.8927 21.8446C13.1127 21.6162 13.2944 21.3118 13.5047 21.1216C13.8872 20.8362 12.6537 22.3392 12.2234 22.7958C12.1086 22.91 12.0226 23.0527 11.9461 23.1763C11.6592 23.6805 11.2672 24.1847 10.9516 24.6032C10.617 25.2025 11.7835 23.671 11.9078 23.6805C12.0991 23.4522 12.2521 23.4046 12.3477 23.2619C12.472 23.0717 12.4242 23.0146 12.625 22.8529C12.778 22.7292 13.0457 22.4629 13.0457 22.558C13.0553 22.7007 13.5143 22.149 13.6768 21.8921C13.7342 21.797 13.696 21.7399 13.629 21.797C13.4282 21.9492 13.2083 22.206 13.2561 22.0158C13.3613 21.6067 14.0689 20.8172 14.3366 20.6364C14.8721 19.9801 16.4786 18.2773 16.9758 17.9539C17.2627 17.7636 16.6794 18.3534 16.3829 18.6388C15.4554 19.4664 15.9718 19.3998 14.4131 20.684C14.394 20.7316 14.3653 20.7791 14.3079 20.8648C14.2984 21.017 14.6904 20.5223 14.8912 20.5318C15.0347 20.5128 17.2148 18.068 17.3296 17.8302C17.4252 17.6305 18.0372 17.1834 18.1615 17.1358C18.3145 17.0882 18.238 17.0312 18.3623 16.8885C18.6683 16.5365 18.9169 16.4319 19.242 16.2797C19.6436 16.0989 19.7201 15.7565 20.2652 15.4711C20.4182 15.3855 20.7146 15.0811 20.8485 14.9479C20.8867 14.9099 20.9823 14.8433 21.1066 14.7577C20.1217 15.3094 21.9577 13.8635 22.2924 13.7779C22.541 13.7113 22.3019 13.9586 21.8334 14.282C24.6925 12.5698 24.396 12.7695 24.7116 12.5602C24.5968 12.351 25.467 11.7326 26.4232 11.3236C26.5475 11.0572 28.0296 10.3723 28.3261 10.2201C28.5843 10.125 30.8122 9.11667 31.4529 8.84081C32.7534 8.35567 33.9869 7.91809 34.2068 7.98467C34.4172 8.03224 34.6467 7.79442 35.4403 7.54709C35.9184 7.39489 35.8706 7.43294 35.4499 7.49002C36.2053 7.15708 36.3009 7.28074 36.0905 7.36635C37.9265 6.90975 35.4594 7.44245 37.85 6.91926C37.7831 6.88121 37.9456 6.82413 38.0986 6.77657C38.462 6.7195 38.6054 6.74803 38.6341 6.78608C39.0644 6.7195 40.2501 6.53876 40.2501 6.53876C39.7815 6.46266 41.8087 6.31045 41.0916 6.47217C41.5314 6.44363 42 6.39607 42.5354 6.36753C43.4917 6.36753 41.6557 6.60534 41.2924 6.61486C41.1011 6.62437 40.8908 6.68145 40.9099 6.72901C40.9577 6.90024 41.7514 6.62437 42.5068 6.62437C42.9179 6.66242 44.8591 6.53876 45.5475 6.66242C45.385 6.73852 45.1172 6.72901 44.8591 6.72901C44.4096 6.76706 45.6049 6.88121 45.691 6.98585C46.8575 7.07146 46.4846 7.03341 47.4217 7.15708C47.5747 7.12854 47.6608 7.15708 47.7468 7.19513C48.2632 7.26171 48.0241 7.27123 50.472 8.0037C52.2506 8.5364 54.5933 9.30693 56.2093 10.2201C58.6955 11.2856 61.0765 12.8076 62.922 14.8338C62.702 14.4342 62.5969 14.4818 61.9466 13.8064C61.5833 13.4259 61.2868 13.1215 61.0287 12.8646C60.7322 12.5602 58.8294 11.1619 58.4947 10.9716C57.309 10.2392 57.2229 9.99183 56.0563 9.55425C55.8364 9.46864 55.6739 9.38303 55.4922 9.2879C55.3966 9.23083 55.2914 9.18326 55.2149 9.16424C54.9854 9.12619 54.5168 8.8313 53.9527 8.63153C51.7342 7.78491 51.849 7.89906 50.0513 7.43294C49.2385 7.21415 48.55 7.04292 48.4735 7.06195C47.8329 7.01439 47.087 6.88121 46.6089 6.81462C46.1308 6.76706 45.9205 6.7195 46.3794 6.7195C47.0392 6.70998 47.6703 6.88121 48.2632 6.90024C48.5979 6.90024 49.4106 7.18561 50.0991 7.29025C50.3764 7.37587 50.5868 7.41392 50.7685 7.41392C50.8928 7.42343 51.6673 7.58514 51.849 7.66124C52.4897 7.88955 52.5566 7.79442 53.0729 7.87052C53.3407 7.90857 53.9909 8.12736 53.8188 8.12736C53.5606 8.14639 52.8052 7.90857 53.4841 8.22249C54.6411 8.67909 53.2738 8.0037 56.7926 9.73499C59.8621 11.6375 58.3991 10.496 59.9099 11.7707C62.8359 14.282 61.8223 13.5591 62.9124 14.4818C63.0845 14.653 63.2853 14.8908 63.4192 15.0811C63.7156 15.4996 64.0886 15.8801 64.4328 16.2987C64.6049 16.527 64.6049 16.4033 64.4424 16.2036C63.8495 15.5662 63.9069 15.433 64.5284 16.175C64.7866 16.5175 65.1691 17.0502 65.7237 17.8493C65.4177 17.6019 64.7962 16.8029 65.8767 18.4105C66.4313 19.2 68.4393 23.3 68.7453 24.2417C68.8505 24.5747 69.2139 25.1264 69.0896 25.5259C69.0704 25.6401 69.1661 26.0586 69.2808 26.2869C69.3764 26.4962 69.4721 26.5913 69.5103 26.8672C69.6729 27.9041 69.3956 26.8957 70.0075 29.6354C70.1032 30.1015 70.1701 30.5105 70.2275 30.5676C70.3422 30.7103 70.4283 31.2145 70.4283 31.4238C70.4187 31.8233 70.3996 32.2989 70.4283 32.7365C70.7916 36.6462 70.1892 42.563 70.0075 43.3431C69.7876 44.2468 69.6537 45.217 69.4051 46.1683C69.4051 46.3966 68.2481 50.7153 68.076 50.877C67.9708 51.1054 67.6648 51.9995 67.3301 52.8176C66.9859 53.6262 66.6703 54.3872 66.7182 54.3872C66.766 54.3872 66.7277 54.7011 66.3548 55.3099C66.4122 55.1006 66.4887 54.8819 66.3548 55.0721C66.1062 55.4241 65.3794 56.9176 65.2647 57.2695C65.0639 57.9354 64.0121 59.9331 64.4519 58.744C64.4997 58.5728 64.232 58.9533 63.7826 59.6572C63.5148 60.0948 63.5913 59.7238 63.2088 60.266C63.008 60.5514 62.7785 60.8177 62.616 61.1412C60.8183 63.4337 61.0095 63.2054 60.8566 63.3766C59.929 64.4991 59.0589 65.2601 59.6613 64.5276C57.7584 66.4872 58.4947 65.574 57.5385 66.5063C57.0986 66.9629 56.544 67.3243 56.3719 67.4195C55.1766 68.0188 53.9622 68.8369 53.8092 68.8273L52.4418 69.4742C51.8681 69.7501 51.7342 69.9689 51.1318 70.0164C50.9884 70.0259 50.8832 70.0164 50.6537 70.0735C49.5063 70.3208 47.7946 70.3969 46.9245 70.3494C46.8384 70.5016 46.1595 70.435 46.0448 70.3018C45.8918 70.1496 46.3794 70.2733 46.9245 70.3494C46.5898 70.2257 45.4232 70.0259 44.3905 69.3315C44.9547 69.9784 44.5531 69.7596 45.0885 70.2257ZM62.6925 62.2636C62.7785 62.2922 62.6064 62.4824 62.4056 62.7488C62.4152 62.5776 62.4439 62.4349 62.6925 62.2636ZM70.6291 45.4739C70.7151 45.4453 70.7343 45.6641 70.61 45.9115C70.5335 45.6736 70.5717 45.4929 70.6291 45.4739ZM70.4761 46.2539C70.6291 46.1017 70.6004 46.6534 70.3326 46.7391C70.2275 46.5964 70.3135 46.4156 70.4761 46.2539ZM70.1127 47.3384C70.2083 47.3003 70.0075 47.9472 69.8832 47.7569C69.8259 47.6618 69.998 47.3764 70.1127 47.3384ZM48.5883 4.58867C48.6744 4.74087 48.4257 4.75038 47.9954 4.67428C47.9094 4.66477 47.7946 4.59818 47.8329 4.58867C47.9381 4.54111 48.3397 4.57916 48.5883 4.58867ZM2.68036 38.2919C2.66123 38.3299 2.64211 38.3775 2.62298 38.3965C2.52736 38.4726 2.66123 37.9114 2.68036 38.2919ZM2.26918 38.9577C2.07794 39.1575 2.29787 38.1682 2.46999 37.3596C2.41262 37.9114 2.37437 38.3014 2.26918 38.9577ZM3.38796 34.0683C3.33058 34.0492 3.37839 33.7543 3.52183 33.3738C3.56964 33.3548 3.55051 33.6497 3.38796 34.0683ZM5.96974 27.5141C5.91237 27.5521 5.86456 27.5807 5.83587 27.5997C5.7785 27.5236 5.702 27.5331 5.98886 27.0575C6.03667 27.0955 5.9793 27.3333 5.96974 27.5141ZM6.54347 25.8684C6.82077 25.3167 7.09807 24.7649 7.41363 24.2417C7.00245 25.0408 6.64865 26.0872 6.54347 25.8684ZM13.4187 13.5971C13.3613 13.6637 13.2944 13.7303 13.237 13.7588C13.2083 13.7683 13.2752 13.6732 13.4187 13.5971ZM13.6195 13.9205C13.6482 13.9205 13.6386 13.9491 13.6003 14.0062C13.5334 14.0252 13.5334 14.0157 13.6195 13.9205ZM10.2918 17.307C10.6839 16.6697 10.7508 16.8124 10.5691 17.0502C10.4257 17.25 10.1675 17.4973 10.2918 17.307ZM9.35474 22.3963C9.14438 22.7482 8.97226 22.7958 9.29737 22.2916C9.47905 22.1394 9.41212 22.2916 9.35474 22.3963ZM12.8162 17.3356C12.1278 18.1632 11.9748 18.3629 12.0513 18.1727C12.0895 18.0871 12.1373 17.9729 11.9365 18.1346C11.1046 18.8291 9.76592 20.7982 10.8082 19.143C9.91891 20.2655 9.55555 20.646 9.02007 21.6733C8.91489 21.7589 8.79058 21.8636 8.66627 21.9777C10.0719 19.4093 11.1716 18.1822 12.7971 16.8219C12.9597 16.6126 13.1031 16.4033 13.3039 16.2321C13.3804 16.1655 13.3804 16.1084 13.4187 16.0514C13.4473 15.9943 13.5047 15.9182 13.5334 15.8706C13.849 15.5662 13.9733 15.414 13.8681 15.8706C13.8394 16.0133 13.6768 16.0799 13.3135 16.4319C14.6904 15.4901 13.8298 16.0323 12.8162 17.3356ZM14.8434 13.2071C15.3311 13.1405 14.241 14.1869 10.7317 17.8873C10.7699 17.5639 10.2153 17.9824 11.1142 17.1358C12.4816 14.7862 14.394 13.3022 14.8434 13.2071ZM18.3623 11.7802C18.238 11.8753 18.0467 12.0275 17.8459 12.1322C18.2762 11.6565 18.9073 11.2855 18.3623 11.7802ZM18.5057 11.4853C18.4388 11.4568 18.6587 11.257 18.7735 11.276C18.8404 11.2951 18.5344 11.5139 18.5057 11.4853ZM18.6014 11.1809C18.4675 11.3331 18.2093 11.4663 18.2571 11.3902C18.4101 11.1619 18.8022 10.9526 18.6014 11.1809ZM20.1791 10.3628C19.7393 10.7719 19.7201 10.515 20.1504 10.2772C20.2365 10.2296 20.2747 10.2772 20.1791 10.3628ZM22.8374 8.34615C22.78 8.4603 22.3975 8.57446 22.5027 8.4603C22.6653 8.28908 22.9043 8.20346 22.8374 8.34615ZM23.0191 6.88121C23.9275 6.36753 24.4438 6.06313 25.1514 5.73018C24.6925 6.07264 24.3195 6.26289 23.5737 6.73852C23.3824 6.78608 23.2008 6.83365 23.0191 6.88121ZM24.8837 7.21415C24.8454 7.22366 24.9219 7.11903 24.9889 7.09049C25.2566 6.92877 25.2184 7.13805 24.8837 7.21415ZM25.5722 7.0239C26.2224 6.68145 26.624 6.40558 27.236 6.20581C26.6336 6.50071 26.232 6.73852 25.5722 7.0239ZM27.2264 6.01556C28.4026 5.04528 27.4368 5.86336 28.3739 5.64457C28.0392 5.86336 27.0639 6.14874 27.2264 6.01556ZM35.6698 2.41979C35.3925 2.45784 35.316 2.46736 35.2204 2.46736C35.9758 2.19149 36.3679 2.26759 35.6698 2.41979ZM46.1213 1.5161C46.8575 1.56366 46.6472 1.70635 46.2743 1.6683C45.7961 1.63976 45.6145 1.58268 46.1213 1.5161ZM46.1978 1.73489C46.1691 1.73489 46.1404 1.71586 46.1117 1.70635C46.3507 1.68732 46.2743 1.73489 46.1978 1.73489ZM41.5792 0.869239C41.0438 0.907289 41.1394 0.907289 40.8047 0.859726C41.3115 0.821676 41.5888 0.774113 41.5792 0.869239ZM40.7282 0.384095C40.6804 0.384095 40.6326 0.384095 40.6421 0.346045C40.6995 0.355558 40.7378 0.355558 40.7282 0.384095ZM42.9275 1.95368C42.698 2.00124 42.5546 2.06783 42.5163 2.15344C42.5068 2.18198 42.4207 2.21052 42.3251 2.21052C41.4167 2.22954 40.9768 2.32467 40.9864 2.00124C40.9864 1.92514 40.8143 1.93465 40.7091 1.99173C40.4891 2.09637 40.3362 2.13442 40.2023 2.15344C40.2883 2.28662 39.705 2.38174 39.3226 2.39126C38.9114 2.52443 38.156 2.4959 38.4715 2.33418C38.5958 2.26759 38.6723 2.21052 38.7106 2.14393C38.7584 2.06783 39.007 2.09637 39.2461 2.03929C39.6668 1.91563 39.8485 2.0488 40.1736 1.92514C40.7951 1.70635 41.1298 1.90611 41.474 1.75391C41.8948 1.5922 43.396 1.85855 42.9275 1.95368ZM47.2496 2.22003C47.3261 2.22003 47.4121 2.22003 47.4504 2.22003C48.4257 2.34369 46.7428 2.39126 47.2496 2.22003ZM47.9094 2.14393C48.0624 2.26759 47.6894 2.22003 45.9491 2.02978C46.1404 2.13442 46.2551 2.25808 46.083 2.24857C45.9396 2.23905 45.6814 2.24857 45.5953 2.201C45.4041 2.08685 45.318 1.95368 45.012 2.08685C44.8399 2.24857 43.9985 2.21052 43.5873 2.15344C43.396 2.1249 43.1474 2.22954 43.1665 2.13442C43.2048 1.9727 43.4343 1.7444 43.8359 1.81099C43.922 1.81099 44.0463 1.80147 44.161 1.80147C44.4574 1.79196 44.1323 1.6683 44.4383 1.6683C44.6965 1.77294 44.9356 1.90611 45.4423 1.88709C45.5762 1.8205 46.0256 1.77294 46.6089 1.80147C46.5994 1.78245 46.5898 1.76342 46.6376 1.73489C46.7045 1.73489 46.7141 1.77294 46.6089 1.80147C47.0488 1.83953 47.7564 2.02978 47.9094 2.14393ZM48.2058 1.91563L48.311 1.90611C48.3014 1.92514 48.3014 1.95368 48.2058 1.91563ZM50.8736 1.47805C50.5677 1.44951 50.5677 1.40195 50.386 1.31633C50.778 1.34487 51.084 1.44 50.8736 1.47805ZM53.2451 1.78245C53.5797 1.91563 53.9144 2.08685 54.2395 2.23906C52.8435 2.05832 51.9542 1.6683 53.2451 1.78245ZM53.8762 2.53395C53.5128 2.50541 53.4554 2.42931 53.0634 2.28662C53.2833 2.31516 53.4076 2.34369 53.8762 2.53395ZM52.6713 3.01909C53.5033 3.09519 53.5319 3.14275 54.6794 3.65643C53.9144 3.48521 53.2355 3.24739 52.6713 3.01909ZM55.1671 1.93465C55.6643 2.03929 55.9703 2.16295 56.5153 2.36272C56.5727 2.53395 55.846 2.19149 55.1671 1.93465ZM75.8978 19.5425C75.8118 19.4093 75.7257 19.2952 75.764 19.2381C75.8022 19.2 75.9456 19.4664 75.8978 19.5425ZM75.5153 18.9432C75.544 18.9908 75.544 19.0288 75.4962 19.0288C75.3528 18.8005 75.4389 18.8005 75.5153 18.9432ZM72.0634 13.112C72.4172 13.3974 72.5702 14.0062 71.8722 12.9407C71.9487 13.0073 72.006 13.0644 72.0634 13.112ZM67.1102 7.98467C67.6648 8.50787 67.2728 8.16541 67.7987 8.54592C68.0951 8.71714 69.1565 9.71597 69.0226 9.72548C68.4202 9.26888 66.546 7.72783 67.1102 7.98467ZM65.2551 6.54827C65.236 6.51973 65.2265 6.50071 65.2169 6.47217C65.4655 6.68145 65.3221 6.65291 65.2551 6.54827ZM59.1354 3.52326C59.078 3.51375 58.9441 3.46618 58.8581 3.39959C58.8198 3.37106 58.8963 3.35203 58.9728 3.37106C59.1449 3.41862 59.2979 3.54228 59.1354 3.52326ZM60.3784 4.79795C60.3976 4.75039 60.6653 4.77892 60.9522 4.836C61.239 4.90259 61.545 4.9882 61.6598 5.02625C61.8128 5.14991 61.9849 5.2926 62.1761 5.45432C61.545 5.28309 61.2295 5.22602 60.3784 4.79795ZM63.2184 6.52924C62.2526 5.94897 61.9849 5.70165 62.1666 5.67311C62.5586 5.64457 63.3045 6.30094 63.5818 6.58632C63.7443 6.74803 63.5435 6.7195 63.2184 6.52924ZM65.3412 9.06911C65.236 8.96447 65.1308 8.86935 64.9778 8.72666C65.1308 8.81227 65.2456 8.85032 65.4846 9.10716C65.4846 9.1357 65.389 9.08814 65.3412 9.06911ZM67.4449 11.0477C66.0297 9.33546 67.4927 10.5721 68.0186 11.3331C67.8274 11.238 67.6457 11.1429 67.4449 11.0477ZM68.6688 11.9134C69.0322 12.0466 69.0322 12.0466 69.5007 12.408C68.7836 11.219 68.0473 10.458 67.3971 9.8872C66.2496 8.72666 65.6663 8.20346 65.3221 7.97516C64.9874 7.73734 64.9205 7.75637 64.7484 7.71832C64.5475 7.38538 65.303 7.75637 65.2551 7.67076C64.9778 7.43294 64.7197 7.20464 64.4424 6.95731C63.534 6.26289 62.9698 6.01556 63.9164 6.50071C64.2224 6.65291 64.6432 6.8717 65.083 7.14756C65.0257 7.05244 64.9683 6.96682 64.8822 6.88121C64.4615 6.63388 63.62 5.8919 64.4424 6.30094L64.4902 6.33899C64.7675 6.18679 65.8098 6.9478 65.9436 7.26171C66.0106 7.42343 66.1157 7.64222 66.154 7.79442C66.9094 8.27956 70.9638 11.0382 71.3176 11.8468C71.4706 12.1417 70.9733 11.8753 69.9693 11.3807C70.3709 11.9895 70.5335 12.389 70.696 12.8361C70.1319 12.3129 69.9597 12.2273 70.0458 12.3129C71.0498 13.4259 72.1112 14.5769 70.9255 13.6447C70.9924 13.8444 71.3749 14.3867 71.5471 14.8242C71.4132 14.7577 71.0785 14.3391 71.0594 14.5008C71.4706 15.414 69.3573 12.722 68.6688 11.9134ZM71.9773 14.1298C72.4363 14.7196 72.8666 15.1857 72.924 15.4901C72.5606 15.0525 72.2068 14.634 71.9773 14.1298ZM73.4499 15.1952C73.383 15.043 73.2874 14.9003 73.3639 14.9194C73.9089 15.0716 74.0906 16.2036 73.4499 15.1952ZM74.6739 16.9931C74.7982 17.1358 74.8938 17.307 74.9607 17.4687C75.544 18.9052 74.3296 16.6126 74.6739 16.9931ZM75.2667 20.1798C75.0181 19.6662 74.7886 19.143 74.5783 18.6007C74.6643 18.6864 74.9799 19.2286 75.3145 19.8659C75.6492 20.5033 75.85 21.3023 75.9265 21.7684C75.6779 21.2548 75.4771 20.7125 75.2667 20.1798ZM76.0508 20.313C76.1751 20.4842 76.309 20.684 76.4524 20.8933C76.4524 20.8172 76.4716 20.7696 76.5385 20.8838C76.6437 21.0835 76.6628 21.1026 76.7011 21.4831C77.7911 24.5937 76.3568 21.9016 76.0508 20.313ZM77.3226 22.7387C77.313 22.6817 77.2843 22.6151 77.2843 22.577C77.2939 22.0633 77.6095 23.1668 77.3226 22.7387ZM77.1983 23.2524C77.3226 23.4046 77.3895 23.5758 77.4947 23.6995C77.619 23.8517 77.4852 24.08 77.38 24.042C77.1505 23.8232 76.9975 22.967 77.1983 23.2524ZM75.5727 24.4034C75.5823 24.3749 75.6492 24.4605 75.6683 24.5366C75.7735 24.9171 75.7831 25.1359 75.6205 25.0693C75.5918 24.86 75.5345 24.5176 75.5727 24.4034ZM75.8787 25.2976C75.9648 25.3642 75.9456 25.2215 75.9265 25.0788C75.8978 24.8696 76.0221 25.0693 75.9935 24.8791C75.7831 23.4807 76.6819 26.2204 76.1847 25.564C76.0891 25.3737 76.003 25.5545 75.9935 25.7542C75.9839 25.9921 75.7353 25.4213 75.8787 25.2976ZM78.078 25.4974C77.839 25.2786 77.772 24.2512 78.0206 24.7364C78.384 25.4403 78.3075 25.4689 78.2406 25.602C78.1927 25.564 78.1354 25.545 78.078 25.4974ZM77.5043 31.6996C77.5138 31.7567 77.5138 31.8138 77.4756 31.7757C77.4565 31.7186 77.466 31.6711 77.5043 31.6996ZM77.6764 31.8423C77.6955 31.8708 77.7051 31.9184 77.6668 31.9755C77.6668 31.8804 77.6764 31.8423 77.6764 31.8423ZM78.5944 36.2276C78.6709 36.8269 78.5657 37.5499 78.4605 37.9494C78.1162 38.9482 78.4796 37.5213 78.5944 36.2276ZM78.4509 38.387C78.5466 39.2051 78.3649 39.8139 78.1449 40.7747C78.2119 40.0422 78.3457 39.1575 78.4509 38.387ZM78.0589 41.3644C78.0684 41.4405 78.0684 41.5737 78.078 41.6879C78.0398 41.8306 78.0206 42.0018 78.0589 41.3644ZM76.1178 47.0149C76.1656 47.0054 76.156 47.053 76.0986 47.1481C76.0891 47.1291 76.0986 47.072 76.1178 47.0149ZM75.4006 49.355C75.5345 48.9935 75.6397 48.6321 75.6492 48.927C75.6779 49.5928 74.9416 50.6868 75.4006 49.355ZM75.238 52.5988C75.238 52.2373 75.3815 51.8473 75.6396 51.229C75.5249 51.6285 75.4197 51.99 75.238 52.5988ZM74.3583 51.7712C74.387 51.7332 74.4061 51.7142 74.4157 51.8093C74.3296 51.9044 74.3201 51.8568 74.3583 51.7712ZM72.2355 57.8022C72.5033 57.241 71.8626 58.6108 74.8269 52.7605C75.1902 51.9234 75.4771 51.2861 75.5727 51.1434L74.8938 52.9698C72.924 57.1934 73.4977 56.0519 72.2929 58.1732C71.9391 58.5347 71.9773 58.3254 72.2355 57.8022ZM71.5375 61.6929C71.7765 61.3695 71.767 61.4265 71.8243 61.4075C71.4419 62.2446 71.155 62.1971 71.5375 61.6929ZM70.2848 61.0841C70.1892 61.1982 70.1127 61.2934 69.8641 61.5978C70.1319 61.2173 70.237 61.0555 70.2848 61.0841ZM68.7931 64.4801C68.7262 64.5752 67.8274 65.6216 67.5788 65.8689C67.4736 65.7833 67.9899 65.0033 68.7931 64.4801ZM67.6648 65.3648C67.3875 65.6406 67.311 65.6692 67.3875 65.517C67.5692 65.184 67.8943 64.832 67.6648 65.3648ZM67.2249 65.2221C67.2919 65.2411 67.158 65.4028 67.0624 65.5265C66.6034 66.0021 67.1006 65.165 67.2249 65.2221ZM63.3332 71.7382C63.381 71.7002 63.4192 71.6906 63.4192 71.7192C63.4192 71.8809 63.075 71.938 63.3332 71.7382ZM62.9507 70.8535C62.9889 70.8345 63.0367 70.806 63.0654 70.825C62.5682 71.5289 62.5395 71.1579 62.9507 70.8535ZM60.3498 72.8702L60.2446 72.9463C60.3402 72.7846 60.4741 72.7751 60.3498 72.8702ZM60.4263 73.85C60.9044 73.441 61.5737 73.1556 60.7322 73.8215C60.235 74.0973 60.2541 74.0022 60.4263 73.85ZM58.6573 74.0307C58.6668 74.0688 58.6286 74.0973 58.6286 74.0973C58.5712 74.1259 58.5521 74.1164 58.6573 74.0307ZM57.3377 74.6966C57.5289 74.63 57.7106 74.5825 57.9305 74.4683C57.9975 74.4303 58.0644 74.4398 58.0644 74.4778C58.074 74.4969 58.074 74.5254 58.074 74.5254C58.1505 74.9059 57.9592 74.592 57.5098 74.9535C57.3472 75.0962 57.0795 74.7727 57.3377 74.6966ZM56.2667 76.6087C56.611 76.2662 57.3281 76.114 57.9783 75.8191C56.8213 76.5896 56.0468 76.7989 56.2667 76.6087ZM58.7816 73.089C57.7584 73.9546 56.7257 74.4683 56.8596 74.2971C57.1751 73.85 57.8349 73.5361 58.7816 73.089ZM54.7559 77.2936C54.8037 77.2746 54.8515 77.2745 54.8993 77.265C54.4117 77.7311 54.23 77.4838 54.7559 77.2936ZM51.3709 77.8929C50.692 78.2353 50.1087 78.1687 50.6442 77.9214C50.8641 77.8263 51.0936 77.7312 51.2179 77.6836C52.1932 77.3792 52.1072 77.5314 51.3709 77.8929ZM50.4912 77.3887C50.931 77.1794 51.237 77.0843 51.8107 76.9797C51.3709 77.1414 50.9884 77.2841 50.4912 77.3887ZM50.9119 76.5516C51.2753 76.504 51.6099 76.4565 51.9446 76.4089C50.7302 76.8845 50.7207 76.894 49.6497 77.208C50.6155 76.7609 50.2904 76.9226 50.9119 76.5516ZM46.6281 78.4922C46.7046 78.378 47.0201 78.34 48.7413 77.9309C47.6799 78.3685 46.4655 78.7395 46.6281 78.4922ZM41.5314 78.7395L40.3457 78.6539C42.1434 78.4827 43.6733 78.5492 41.5314 78.7395ZM41.6749 78.1117C41.8852 78.0546 42.1434 78.0546 42.3633 78.0165C42.8797 77.8929 43.3769 77.7977 43.9028 77.7882C43.9602 77.7882 44.008 77.7597 43.9889 77.7407C43.9028 77.6265 44.2949 77.5599 44.6582 77.4743C44.7252 77.4648 44.7634 77.5504 44.7634 77.5694C44.7826 77.8168 43.4439 77.988 42.7267 78.0926C42.6693 78.1117 41.9808 78.1592 41.7131 78.1878C41.4932 78.1973 41.4071 78.1782 41.6749 78.1117ZM38.0125 77.9309C38.6723 77.9119 39.9632 78.0546 39.2652 78.2924C40.7473 78.3685 41.1107 78.2543 40.4987 78.5112C37.2667 78.1592 37.3528 77.9404 38.0125 77.9309ZM33.4418 79.8905C33.9678 80.0047 34.006 79.9761 34.5032 79.9666C34.9622 79.9666 35.4594 80.1093 35.2778 80.2044C35.2108 80.623 34.6562 80.0617 33.547 80.1949C32.8203 80.252 32.3804 79.6622 33.4418 79.8905ZM32.3326 77.4077C32.4952 77.4838 32.5621 77.5124 32.0649 77.4268C32.1414 77.4268 32.2179 77.4172 32.3326 77.4077ZM25.0367 78.4541C24.7211 78.2448 25.2757 78.4351 25.161 78.4636C25.1419 78.4636 25.0749 78.4541 25.0367 78.4541ZM29.6648 79.843C29.6839 79.843 29.7126 79.843 29.7126 79.843C29.7126 79.843 29.6361 79.843 29.6648 79.843ZM30.1907 79.6527C28.6034 79.5195 24.6351 78.6444 29.6265 79.3864C29.9516 79.4434 30.5062 79.6622 30.1907 79.6527ZM29.9612 77.7216C30.4967 78.2163 28.7755 77.7026 28.4599 77.4553C28.2974 77.3316 29.4735 77.6075 29.9612 77.7216ZM27.3412 78.7205C26.9396 78.6444 26.4615 78.4446 26.471 78.359C26.9874 78.5302 26.8631 78.4922 27.3412 78.7205ZM25.859 77.208C26.6527 77.2365 27.2551 77.9404 25.9642 77.5789C25.6391 77.3697 25.4192 77.1984 25.859 77.208ZM25.5148 77.8548C25.2662 77.8453 25.0558 77.6836 25.0749 77.6265C25.3714 77.7026 25.5722 77.7787 25.5148 77.8548ZM25.1897 76.1235C24.7594 75.9428 24.5203 75.8286 24.3673 75.7335C24.0518 75.5242 24.8359 75.6859 25.1897 76.1235ZM16.3064 70.5111C16.6889 70.8916 17.1288 71.3006 17.4635 71.7287C17.1766 71.6241 16.6029 71.1484 16.2395 70.9391C14.2219 68.8178 15.092 69.2744 16.3064 70.5111ZM13.8681 68.0188C13.5621 67.7429 13.3995 67.4956 13.1605 67.077C13.4952 67.5051 13.7055 67.7334 13.8681 68.0188ZM8.3794 62.3017C8.61846 62.6441 8.67583 63.0151 8.89576 63.2815C9.38343 63.9283 9.23044 64.1376 9.61292 64.6228C9.74679 64.794 9.89023 65.0033 9.84242 65.0318C9.75636 65.1174 9.23044 64.2328 8.71408 63.6049C8.84795 63.31 8.2551 62.511 7.76743 61.3314C8.01604 61.6358 8.18816 62.0163 8.3794 62.3017ZM7.41363 59.8094C7.92998 61.1126 7.28932 60.5609 6.90683 59.0959C6.82077 58.7535 7.17457 59.4099 7.41363 59.8094ZM7.1172 58.0591C7.09807 58.002 7.10764 57.9735 7.13632 57.9735C7.16501 58.0876 7.15545 58.1066 7.1172 58.0591ZM6.83033 58.9152C6.35223 58.0971 6.06536 57.1078 6.20879 57.1649C6.70603 58.04 7.0407 59.2577 6.83033 58.9152ZM6.2566 54.1018C6.34266 54.4633 6.45741 54.9104 6.6104 55.1863C6.75384 55.4907 6.74428 55.6429 6.67734 55.6714C6.55303 55.3289 6.44785 54.8438 6.29485 54.4918C6.24704 54.3872 6.20879 54.2255 6.17055 54.0543C6.19923 54.0923 6.21836 54.1018 6.2566 54.1018ZM4.52585 50.5536C4.55454 50.6583 4.58323 50.7819 4.61191 50.877C4.62148 50.8485 4.6406 50.8675 4.68841 51.0102C5.25258 52.694 5.10915 53.4835 4.70753 51.5429C4.75535 51.9329 4.77447 52.2849 4.74578 52.5608C4.72666 52.8366 4.4876 52.4942 4.40155 52.009C4.21986 50.8295 4.32505 49.9638 4.52585 50.5536ZM3.24452 47.6332C3.31146 47.4906 3.39752 47.7474 3.34971 47.9947C3.32102 48.1564 3.17759 47.7569 3.24452 47.6332ZM4.54498 48.2706C4.54498 49.0316 4.43023 48.4038 4.4876 49.726C4.52585 50.6963 4.10512 47.9376 4.25811 47.481C4.34417 47.2813 4.46848 47.4906 4.54498 48.2706ZM3.15846 44.9792C3.15846 45.0553 3.11065 45.179 3.10109 45.1409C2.99591 44.7795 3.17759 44.6368 3.15846 44.9792ZM3.63657 45.2075C3.56007 44.066 3.96169 44.418 3.91387 45.8163C3.8565 46.5012 3.74176 46.6534 3.63657 45.2075ZM4.26767 46.7105C4.23899 45.6546 3.94256 45.1505 4.2868 44.1802C4.5641 44.3609 4.49717 47.1957 4.26767 46.7105ZM3.12978 41.9732C3.09153 41.6118 3.17759 40.4512 3.31146 40.6034C3.43577 40.7271 3.40708 41.1076 3.32102 41.45C3.46445 41.5737 3.60789 41.1932 3.20627 42.3157C3.18715 42.4203 3.13934 42.2301 3.12978 41.9732ZM4.82228 39.89C4.63104 40.2895 4.73622 41.3074 4.53542 42.1159C4.33461 43.1623 4.70753 42.9721 4.42067 43.8092C4.26767 43.6094 4.22943 42.9245 4.24855 42.6962C4.32505 41.8496 4.26767 41.8401 4.21986 41.3264C4.41111 40.7937 4.58323 41.0886 4.65016 40.2705C4.65972 40.0897 4.72666 39.3763 4.74578 39.2812C4.80316 39.0909 4.87965 39.0338 4.87965 38.796C4.88921 38.4916 4.8414 38.3014 4.94659 38.0445C5.17608 37.5213 5.14739 39.1765 4.82228 39.89ZM6.10361 37.9399C6.08449 37.9494 6.09405 37.8448 6.09405 37.7877C6.2566 37.2645 6.16098 37.9304 6.10361 37.9399ZM5.702 35.9803C5.61594 36.2752 5.52032 36.551 5.48207 36.865C5.44382 37.1789 5.23345 37.4357 5.29083 37.0647C5.73069 34.4488 6.02711 35.0195 5.702 35.9803ZM9.07744 28.5319C9.10613 28.5319 9.09657 28.5795 9.07744 28.6175C9.04876 28.6175 9.05832 28.57 9.07744 28.5319ZM8.04473 31.5664C8.11166 31.5189 8.08298 31.633 8.0256 31.7757C7.97779 31.7377 8.00648 31.6521 8.04473 31.5664ZM7.63356 32.5367C7.6718 32.4226 7.71005 32.394 7.6718 32.5653C7.60487 32.7841 6.94508 34.5534 6.89727 34.7722C6.81121 34.5058 7.22238 33.6402 7.63356 32.5367ZM7.01202 30.7293C6.90683 30.9291 6.85902 31.0337 6.71559 31.2525C6.89727 30.5771 7.09807 29.7971 7.30844 29.7876C7.41363 29.7781 7.16501 30.3583 7.01202 30.7293ZM10.703 23.1192C10.7126 23.0907 10.7126 23.0527 10.7317 23.0241C10.7795 22.9575 10.8656 22.929 10.703 23.1192ZM11.0186 22.6531C10.9612 22.6721 10.9612 22.6531 10.9516 22.6246C11.0377 22.558 11.0568 22.596 11.0186 22.6531ZM12.013 21.2928C12.0608 21.1882 12.08 21.2072 12.0991 21.2167L12.013 21.2928ZM12.2712 23.1383C12.6919 22.3582 13.0649 22.149 13.0457 22.2631C13.0171 22.3773 12.5103 22.967 12.2712 23.1383ZM15.6753 18.8956C14.6235 19.9801 14.8243 19.514 15.8283 18.6864C15.7996 18.7434 15.7327 18.8291 15.6753 18.8956ZM16.6029 17.9349C16.0961 18.3534 16.2873 18.1061 16.5359 17.9063C16.622 17.8302 16.6602 17.8207 16.6029 17.9349ZM13.7055 19.7042C13.5047 19.904 13.543 19.6662 13.8203 19.3427C14.3558 18.7054 15.5415 17.6495 15.7996 17.4402C15.8953 17.3736 16.2491 16.9836 16.3447 16.8885C16.9089 16.3272 17.4921 15.9467 17.1957 16.2606C16.9375 16.546 14.2793 19.1049 13.7055 19.7042ZM18.1424 17.0312C18.0468 17.1168 17.9989 17.1358 17.9798 17.2024C18.1806 16.6221 19.2229 16.2036 18.1424 17.0312ZM19.6245 15.9182C19.2133 16.3653 18.6205 16.5651 19.6149 15.7279C20.0644 15.3855 20.2843 15.2333 19.6245 15.9182ZM19.4237 15.5472C18.7257 16.175 17.8173 16.936 17.4061 17.1358C17.3583 17.1073 17.5017 16.9075 17.6356 16.8124C17.9703 16.5555 20.0261 14.9479 20.2652 14.8433C19.9974 15.0811 19.6436 15.2999 19.4237 15.5472ZM21.0015 14.6245C20.9345 14.6625 20.858 14.6625 20.8867 14.6245C20.9536 14.5389 21.078 14.4533 21.1258 14.4342C21.2788 14.3676 21.164 14.5294 21.0015 14.6245ZM22.0724 13.5876C21.776 13.7779 21.5083 13.9586 21.5656 13.8254C21.6326 13.6542 22.5027 13.2356 22.0724 13.5876ZM24.1952 12.6839C24.1952 12.6459 24.1474 12.6554 24.004 12.722C23.7171 12.8646 24.0709 12.5888 24.855 12.1322C24.7498 12.37 24.2048 12.7695 24.1952 12.6839ZM24.7116 11.1143C25.3522 10.905 24.8072 11.5519 23.1051 12.6078C22.0533 13.3022 22.8087 12.3034 21.6039 13.1881C21.078 13.5781 21.0588 13.4354 20.5042 13.7398C20.3225 13.8349 20.8963 13.1976 22.0246 12.4556C22.78 11.9419 23.2677 11.7422 24.1187 11.1333C24.549 10.8099 24.9602 10.6102 25.3809 10.4294C24.855 10.867 24.004 11.3521 24.7116 11.1143ZM34.3024 6.02507C35.2395 5.70165 35.4308 5.64457 36.5208 5.43529C36.5113 5.44481 34.3694 6.00605 34.3024 6.02507ZM38.0699 6.40558C38.0508 6.37704 38.1369 6.35802 38.2325 6.33899C38.2516 6.37704 38.1655 6.39607 38.0699 6.40558ZM38.0317 5.05479C38.1369 5.14991 37.9839 5.27358 37.1615 5.55896C36.6356 5.73018 36.2435 5.7397 36.2531 5.67311C36.6165 5.30212 37.0563 5.41627 37.4197 5.10235C37.5631 4.96917 37.9265 4.97869 38.0317 5.05479ZM53.6945 8.84081C54.3447 8.93594 55.2149 9.41157 55.3392 9.55425C55.4539 9.67792 55.779 9.85866 55.999 10.0109C56.305 10.2201 55.4348 9.89671 55.2531 9.78256C54.23 9.10716 53.1494 8.74568 53.6945 8.84081ZM49.0951 7.54709C48.9325 7.51855 48.4927 7.39489 48.4831 7.37587C49.0664 7.4044 49.3437 7.58514 49.0951 7.54709ZM41.3306 4.80746L41.1776 4.79795C41.4836 4.71233 41.6844 4.7599 41.3306 4.80746ZM42.2868 6.26289C42.1243 6.2724 42.086 6.18679 42.3538 6.20581C42.3825 6.24387 42.3442 6.26289 42.2868 6.26289ZM42.3251 5.80628C41.9235 5.93946 41.4262 5.93946 40.6804 5.968C41.1967 5.75872 42.698 5.68262 42.3251 5.80628ZM42.1243 5.27358C41.694 5.37822 41.4645 5.19748 42.306 5.12138C42.5928 5.14991 42.8892 5.13089 42.1243 5.27358ZM42.6693 6.32948C42.698 6.2724 42.8414 6.30094 42.9944 6.31045C42.9466 6.39607 42.6502 6.38655 42.6693 6.32948ZM43.0231 5.04528C43.1665 4.86454 43.7116 4.89307 44.2949 4.99771C43.9698 5.03576 43.1665 5.12138 43.0231 5.04528ZM45.5093 6.51973C45.1746 6.53876 44.9069 6.49119 44.6296 6.45314C44.3809 6.4246 44.3905 6.40558 44.5339 6.38655L44.467 6.37704C44.2853 6.3485 44.3905 6.2724 44.5435 6.2724C44.6487 6.2724 45.1077 6.31997 45.0885 6.3485C45.0312 6.35802 44.9834 6.36753 44.926 6.37704C45.4232 6.39607 46.1499 6.45314 46.5516 6.52924C46.1308 6.53876 45.7961 6.51022 45.5093 6.51973ZM47.393 6.58632C47.2592 6.50071 47.0775 6.4246 46.9054 6.3485C46.5994 6.20581 47.4026 6.17728 47.7086 6.43412C47.7659 6.53876 47.5556 6.68145 47.393 6.58632ZM55.8173 7.70881C55.7408 7.71832 55.7025 7.68978 55.6834 7.66124C55.6834 7.66124 55.7217 7.67076 55.8173 7.70881ZM52.6618 7.34733C52.6235 7.37587 52.241 7.29025 51.8777 7.1761C51.5048 7.09049 51.1414 7.00487 51.151 6.95731C51.1701 6.88121 51.1605 6.85267 50.8163 6.74803C50.6442 6.72901 50.4816 6.70998 50.386 6.67193C49.7358 6.46266 49.3055 6.22484 49.2863 6.05361C49.2768 5.99654 49.5828 5.97751 50.1756 6.13923C50.9406 6.41509 50.7876 6.44363 51.39 6.70047C53.073 6.8717 54.2204 7.61368 53.3885 7.46148C53.0156 7.38538 52.767 7.28074 52.6618 7.34733ZM57.6628 9.63987C57.2421 9.39254 57.0508 9.24034 56.5918 9.03106C56.6779 9.11667 56.5823 9.14521 56.3623 9.05009C54.7846 8.3081 55.4539 8.60299 53.4841 7.74686C54.01 7.88955 54.4786 7.98467 54.8993 8.19395C54.5168 7.97516 54.0196 7.83247 53.4268 7.60417C54.383 7.81345 55.7886 8.48884 57.1082 9.1357C58.3608 9.90622 59.537 10.6387 59.9673 11.0953C59.3075 10.5721 58.8963 10.3628 57.6628 9.63987ZM61.8797 13.1595C60.9713 12.5793 60.847 12.4556 60.0246 11.7517C61.612 12.5983 62.7307 13.7208 61.8797 13.1595ZM64.4997 15.8611C64.4424 15.785 64.4519 15.747 64.6814 15.9562C64.6527 15.9753 64.6145 16.0038 64.4997 15.8611ZM63.6487 14.5198C63.1132 13.854 62.463 13.2832 62.4534 13.1595C62.4247 13.0549 62.4152 12.9693 62.3961 12.8837C62.5682 13.0168 62.9698 13.3783 63.3714 13.7588C65.1786 15.8231 64.471 15.0525 64.93 15.785C64.8057 15.7755 64.2129 15.1572 63.6487 14.5198ZM65.7333 17.0121C65.4559 16.7458 65.303 16.6507 65.2456 16.7363C65.236 16.7553 65.0543 16.5555 64.997 16.4604C64.9013 16.2987 64.8057 16.1465 64.7101 15.9848C65.2456 16.4794 65.4273 16.7268 64.93 15.7945C65.0639 15.4521 66.4504 17.7256 65.7333 17.0121ZM66.8616 17.7351C66.8425 17.6875 66.8233 17.6114 66.8233 17.6114C67.0433 17.7636 67.1102 18.2583 66.8616 17.7351ZM71.2124 29.8922C71.1837 29.7495 71.1741 29.5878 71.155 29.3785C71.1933 29.5403 71.2219 29.702 71.2124 29.8922ZM70.8299 29.3595C70.8203 29.2644 70.8108 29.1502 70.8012 29.0456C71.0403 29.8066 71.002 30.2157 70.8299 29.3595ZM70.1701 23.7376C70.2275 23.9088 70.2944 24.08 70.3518 24.2512C70.2848 24.2417 70.2179 24.2417 70.151 24.2227C69.9693 24.1751 69.6346 23.1953 69.5103 22.6721C69.4434 22.3487 69.845 22.8339 70.1701 23.7376ZM69.2426 21.3689C69.0991 21.2167 68.8505 20.6935 68.7836 20.332C68.6688 19.7137 69.5868 21.7209 69.2426 21.3689ZM66.5938 19.2C66.4026 18.8005 66.5652 18.8956 67.072 19.7328C67.1771 20.1703 67.1867 20.2179 66.5938 19.2ZM68.0282 21.816C67.9039 21.4831 67.7509 21.0835 67.9039 21.3023C68.1716 21.6924 68.4967 22.5104 68.0282 21.816ZM70.1414 27.7804C70.151 27.2382 69.9884 27.0384 69.7207 26.4582C69.7302 25.8874 69.6824 25.8779 69.4147 25.0693C69.2713 24.6413 69.4434 24.5842 69.8737 25.6496C70.0362 26.0682 69.9215 25.602 69.7207 24.8791C69.6251 24.8315 68.9939 23.6424 69.0896 23.1573C68.6593 22.0633 68.7453 22.2346 68.7645 22.4724C68.927 23.1668 67.5309 20.1798 67.5023 19.885C67.4353 19.1335 67.6553 19.7708 68.8123 22.0729C68.9079 22.3487 69.0322 22.6817 69.1565 23.0241C69.2808 22.948 69.5294 23.1478 69.7302 23.6424C69.7876 23.9944 69.8545 24.4415 69.8259 24.6983C69.9502 25.3167 70.3709 26.677 70.1797 26.4106C69.8354 25.9635 70.8681 28.96 70.7725 29.7781C70.7247 30.0254 70.6195 29.7971 70.4665 29.4356C70.4187 29.5783 70.2562 29.0741 70.2944 28.9314C70.1701 28.5224 70.0936 28.0563 70.1414 27.7804ZM69.9597 28.4844C70.1701 29.0646 70.3326 29.6449 70.2848 30.3393C70.1988 29.8637 70.0649 29.0836 69.9597 28.4844ZM70.6769 30.3964C70.7343 30.5581 70.7534 30.5771 70.7821 31.0242C70.6865 30.7388 70.696 30.6532 70.6769 30.3964ZM70.6291 31.7186C70.5717 31.205 70.849 32.5748 70.8012 33.2407C70.7247 32.5653 70.6578 31.9565 70.6291 31.7186ZM71.8339 36.9506C71.8148 37.5689 71.7861 36.9886 71.7861 36.5225C71.8339 36.3513 71.8339 36.6652 71.8339 36.9506ZM71.4897 36.8459C71.4897 37.2455 71.3845 37.0933 71.4036 36.8555C71.4227 36.3988 71.3749 35.5142 71.461 35.6378C71.4992 36.123 71.4897 36.2942 71.4897 36.8459ZM71.0785 37.7972C71.0116 37.5689 70.9829 37.3121 71.0307 36.7698C71.1741 35.0956 70.9351 35.2003 71.1646 34.1919C71.2984 34.4393 71.4036 35.3239 71.308 35.4476C71.2793 35.4856 71.2506 35.5142 71.2219 35.5427C71.0498 35.6949 71.3558 35.9708 71.2124 36.7603C71.1646 37.1694 71.2411 38.1206 71.0785 37.7972ZM71.4036 38.3584C71.4706 38.425 71.4419 38.6153 71.3749 38.9387C71.3367 38.6248 71.3654 38.4821 71.4036 38.3584ZM71.7383 39.6617C71.7478 39.5 71.767 39.2907 71.8243 39.3192C71.9487 39.3668 71.7574 40.3561 71.7383 39.6617ZM70.4283 39.6141C70.4091 40.1278 70.3231 40.6415 70.2753 41.1552C70.2944 40.651 70.3613 40.1944 70.4283 39.6141ZM70.7725 40.3941C70.8681 39.909 70.8394 39.4048 70.8873 39.2051C71.0403 38.5202 71.0116 40.9744 70.7247 41.3359C70.6578 41.4215 70.7247 40.6605 70.7725 40.3941ZM70.6004 41.3169C70.6865 41.1837 70.7151 41.5261 70.696 41.6974C70.5335 41.8306 70.5239 41.6403 70.6004 41.3169ZM69.7111 45.1314C69.7494 45.2266 69.7207 45.4358 69.5486 45.8639C69.5772 45.6261 69.6251 45.3788 69.7111 45.1314ZM65.8862 56.6036C65.8384 56.6893 65.8097 56.7083 65.8097 56.6607C65.8862 56.48 65.9149 56.4705 65.8862 56.6036ZM62.4056 61.7119C62.7594 61.2458 62.9889 60.8368 63.2758 60.4753C63.2949 60.5514 63.2567 60.656 63.1897 60.7702C63.0559 60.9794 62.922 61.2077 62.7785 61.398C62.5299 61.6834 62.3291 61.9117 62.4056 61.7119ZM62.5682 61.6834C63.2853 60.7987 63.9929 59.7428 64.2894 59.3813C63.0941 61.2458 63.075 61.398 61.3155 63.3291C61.2295 63.3481 61.8415 62.5585 62.5682 61.6834ZM58.4182 66.7155C58.4756 66.6775 58.5043 66.668 58.5138 66.687C58.3321 66.9629 58.2174 66.8392 58.4182 66.7155ZM57.7967 66.7916C58.5425 66.3541 58.1122 66.6394 59.0876 65.7738C59.4509 65.3648 60.1298 64.8891 60.1011 64.9557C60.1203 65.0889 58.7529 66.1733 58.3895 66.5158C55.1097 69.0461 56.9169 67.3053 57.7967 66.7916ZM57.3377 67.5622C57.5002 67.5812 56.9361 68.1329 56.5918 68.0759C56.8883 67.6858 56.9934 67.5146 57.3377 67.5622ZM56.4293 68.0568C56.5058 68.0378 56.5249 68.0473 56.544 68.0759C56.1711 68.3327 56.2763 68.0949 56.4293 68.0568ZM50.472 70.2257C50.2712 70.2733 50.0704 70.3208 49.8601 70.3494C49.9652 70.2923 50.1947 70.2352 50.472 70.2257ZM45.2033 70.0164C45.1268 69.9689 45.0216 69.9118 44.926 69.8547C45.3945 70.0164 45.5284 70.1115 45.2033 70.0164ZM29.7413 7.87052C30.0377 8.21298 30.9844 7.36635 31.8545 7.09049C31.845 7.06195 31.8258 7.03341 31.7493 7.04292C30.8218 7.20464 30.6114 7.49002 29.7413 7.87052ZM5.86456 51.1339L5.89324 51.0578C5.71156 50.6963 5.7785 51.3051 5.86456 51.1339ZM19.8349 72.8131C20.0261 72.8131 18.7257 71.8904 19.5958 72.6895C19.701 72.7846 19.7775 72.8131 19.8349 72.8131ZM67.1676 54.8723C67.1771 54.8819 67.1963 54.8723 67.1963 54.9104C67.225 55.2433 67.2154 55.2338 67.5788 54.8914C67.6457 54.7582 67.7222 54.625 67.7987 54.4728C67.8847 54.1779 67.8082 53.9496 67.7031 54.0828C67.5788 54.2445 67.464 54.4633 67.4162 54.3587C67.4066 54.3396 67.4162 54.3206 67.4066 54.3016C67.2823 54.606 67.3588 54.4253 67.1676 54.8723ZM7.10764 26.734C7.1172 26.8292 7.25107 26.6865 7.24151 26.5723C7.24151 26.4677 7.08851 26.6484 7.10764 26.734ZM5.702 28.8744C5.92193 28.4463 6.1323 28.0373 6.29485 27.7043C6.1323 27.8946 5.96018 28.1609 5.702 28.8744ZM60.3689 71.8143C60.1203 72.0236 60.2254 71.7763 59.4414 72.5087C59.4605 72.4897 59.47 72.4802 59.4987 72.4707C60.3211 71.9094 60.082 72.3756 59.3649 72.7751C59.4127 72.8417 59.3553 72.9273 59.6708 72.7941C59.8716 72.6514 60.0629 72.5278 60.1011 72.4231C60.1585 72.2899 59.7951 72.4041 60.1011 72.1758C60.3976 71.957 60.6557 71.8143 60.8852 71.5765C60.9809 71.4814 61.153 71.4433 61.086 71.5955C61.0574 71.6716 61.0669 71.7097 61.086 71.7382C61.5546 71.3387 61.9944 70.9772 62.3578 70.6728C62.3387 70.6728 62.3291 70.6823 62.31 70.6728C62.3004 70.6443 62.3196 70.6252 62.3291 70.5967C61.9849 70.8345 61.612 71.0628 61.1339 71.3196C61.7936 70.7489 62.2526 70.2542 62.6351 69.8452C61.5833 70.7584 60.4645 71.7763 60.3689 71.8143ZM69.7111 60.656C69.4912 60.9033 69.2999 61.3409 69.5772 61.0936C69.8067 60.7416 69.8641 60.4848 69.7111 60.656ZM30.2863 4.87405C29.6743 5.34017 30.8887 4.9121 31.6346 4.52208C31.0609 4.6077 31.4051 4.55062 30.2863 4.87405ZM67.8561 18.2963C68.8027 19.2191 67.6074 17.2119 67.6935 17.8493C67.7126 17.9158 67.7413 18.011 67.8561 18.2963ZM52.6331 70.5396C52.5566 70.5872 52.5183 70.6252 52.0976 70.7869C52.3845 70.7965 51.849 70.863 51.3231 71.1294C51.1605 71.215 50.8832 71.2626 50.778 71.2435C50.7111 71.2626 50.6442 71.2816 50.5772 71.3006C51.0266 71.3387 51.6195 71.1104 52.2889 70.8916C52.308 70.8345 52.9008 70.6347 52.9678 70.6252C52.9773 70.6347 52.9582 70.6538 52.9486 70.6728C53.618 70.4255 54.2108 70.0164 54.8228 69.6074C53.6371 70.1591 52.7 70.7204 52.6331 70.5396ZM43.6733 6.76706C43.3195 6.77657 43.0518 6.78608 42.8606 6.84316C43.1952 6.83365 43.2909 6.86219 43.2813 6.90024C43.4439 6.90024 43.616 6.90975 43.8072 6.90975C43.9411 6.83365 44.0941 6.75755 43.6733 6.76706ZM42.8127 6.89072C42.8988 6.82413 42.9179 6.84316 42.4016 6.85267C42.6311 6.8717 42.5259 6.88121 42.8127 6.89072ZM62.5395 63.5859C61.1339 65.1935 61.0669 65.2411 60.9426 65.4504C61.2868 65.1745 62.4439 63.9854 62.6542 63.7096C62.922 63.3671 62.769 63.3481 62.5395 63.5859ZM54.0005 69.7596C53.8092 69.7976 53.6371 69.8452 53.5415 69.8452C53.3407 69.9689 53.1494 70.1686 52.8817 70.3779C53.2259 70.2162 53.2451 70.2257 53.6945 70.083C54.0292 69.9593 54.1822 69.7215 54.0005 69.7596ZM9.67986 23.8232C9.95716 23.6329 9.91891 23.4902 9.95716 23.2619C9.68942 23.4997 9.46949 23.8802 9.3165 24.2037C9.45037 24.0134 9.58424 23.8517 9.67986 23.8232ZM69.4434 44.8936C69.5103 44.3419 69.2617 44.827 69.2139 45.3502C69.1756 45.7973 69.1374 46.0827 69.2713 45.7022C69.3669 45.3027 69.4242 45.1029 69.4434 44.8936ZM49.1333 5.00723C49.1047 5.03576 49.1142 5.07381 49.2098 5.11186C49.4393 5.27358 49.2959 5.26407 49.0377 5.24504C50.2521 5.7397 52.3749 6.07264 51.8586 5.64457C51.5908 5.43529 51.237 5.51139 50.9788 5.55896C50.2043 5.00723 50.9884 5.39724 49.6879 5.14991C49.4106 5.10235 49.2481 5.03576 49.1333 5.00723ZM69.9215 38.0065C69.9119 38.1206 69.9119 38.2062 69.9502 38.1682C69.9597 38.0636 69.9597 37.9589 69.9215 38.0065ZM70.0936 40.1278C70.2944 39.8234 70.2083 39.7378 70.2753 38.7675C70.2944 38.4345 70.2657 38.1397 70.2944 37.8353C70.3327 37.5118 70.3231 37.2074 70.3231 36.884C70.3135 35.5617 70.4187 34.7627 70.237 33.7068C70.2657 32.4226 70.1605 31.9565 69.9119 30.1491C69.0322 25.4118 68.4107 24.4034 67.9039 23.3095C68.3246 24.6983 69.1565 27.2097 68.9748 27.5046C69.3286 29.7495 69.4051 29.2929 69.5199 30.7103C69.7015 32.5177 69.7111 31.985 69.7972 33.0599C69.9024 32.8982 69.8832 32.4606 70.0267 34.3346C70.1032 34.8483 70.0936 36.9125 70.084 37.3882C69.8928 38.9958 70.0554 39.2146 69.9406 40.5368C69.9024 40.8793 69.9406 40.9269 69.998 40.8127C70.0362 40.5368 70.0554 40.1849 70.0936 40.1278ZM69.5486 41.6498C69.5294 41.8401 69.5199 42.0208 69.5007 42.2015C69.5486 41.9542 69.5772 41.7735 69.5486 41.6498ZM69.7589 41.9828C69.692 42.2586 69.7876 42.3918 69.845 42.2872C69.9597 42.1254 69.9406 41.2122 69.7589 41.9828ZM41.8852 1.9727C42 1.96319 42.0765 1.93465 42.1338 1.90611C42.2103 1.85855 41.9043 1.83953 41.8852 1.9727ZM58.9346 9.08814C58.925 9.09765 58.8963 9.09765 58.9059 9.11667C59.0206 9.34498 59.4509 9.27839 58.9346 9.08814ZM67.311 9.09765C67.4736 9.24034 67.5788 9.34498 67.6935 9.44962C68.8218 10.5436 68.0664 9.34498 67.311 9.09765ZM67.4162 51.7332C67.1867 52.342 67.1676 52.6464 67.2632 52.4371C67.3875 52.1232 67.4736 51.8568 67.4162 51.7332ZM69.8641 38.8246C69.845 39.186 69.8163 39.1385 69.7589 39.7949C69.8259 39.7568 69.8737 39.9851 69.8928 39.4809C69.9024 39.2241 69.9119 38.739 69.8641 38.8246ZM43.31 69.2459C43.5968 69.5979 43.5873 69.5979 43.5299 69.4171C43.463 69.3505 43.3865 69.284 43.31 69.2079C43.3004 69.2174 43.31 69.2269 43.31 69.2459ZM49.4489 72.6324C49.3437 72.6229 49.2481 72.5943 49.1333 72.6039C48.7987 72.6324 48.3875 72.7846 49.4489 72.6324ZM69.6059 43.324C69.5486 43.2955 69.4625 43.9994 69.6155 43.8377C69.6442 43.5714 69.6537 43.3526 69.6059 43.324ZM55.8269 7.01439C55.5209 6.92877 55.2627 6.8717 55.2914 6.92877C55.3679 6.9478 55.8747 7.14756 55.8269 7.01439ZM43.5108 68.7703L43.7307 68.8559C43.6829 68.8178 43.6447 68.7798 43.6064 68.7322C43.4821 68.6561 43.4534 68.6751 43.5108 68.7703ZM4.66929 33.6592C4.65016 33.7068 4.62147 33.7448 4.60235 33.7924C4.51629 34.1539 4.66929 33.8685 4.66929 33.6592ZM3.73219 37.4072C3.68438 37.5594 3.68438 37.645 3.67482 37.7211C3.76088 37.5784 3.75132 37.607 3.73219 37.4072ZM9.66074 66.6585C9.66074 66.7251 9.72767 66.9153 9.77548 67.0675C10.0241 67.4195 10.2823 67.7239 10.5213 67.9712C10.5405 67.9807 10.55 67.9712 10.5691 67.9902C10.8369 68.1139 10.5978 67.7239 10.2823 67.3243C10.005 66.9153 9.66074 66.5063 9.66074 66.6585ZM8.27422 64.6228C8.21685 64.6228 8.22641 64.6894 8.21685 64.7274C8.35072 64.9462 8.49415 65.184 8.63758 65.4218C8.59933 65.2887 8.56109 65.1365 8.50371 64.9272C8.43678 64.7369 8.32203 64.6133 8.27422 64.6228ZM8.28378 26.6009C8.22641 26.6389 8.16904 26.7055 8.1021 26.8006C8.23597 26.8577 8.36028 26.5533 8.28378 26.6009ZM6.78252 29.0837C7.24151 28.6366 7.07895 28.4273 7.57618 27.9421C7.6718 27.8565 7.73874 27.6853 7.6718 27.6568C7.61443 27.6377 7.58574 27.5902 7.56662 27.5426C7.48056 27.7329 7.40406 27.8946 7.32757 27.9326C7.13632 28.0182 7.02158 27.9516 6.79209 28.5509C6.52434 29.2454 6.59128 29.2454 6.64865 29.2549C6.69646 29.1883 6.74427 29.1312 6.78252 29.0837ZM5.09958 34.6866C5.00396 34.4583 4.85097 34.5724 5.08046 33.8114C5.28126 33.1931 5.09002 33.0409 4.95615 33.4595C4.65972 34.639 4.46848 35.1717 4.77447 35.2859C4.81272 35.2478 4.89878 35.1717 4.98484 35.0956C5.05177 35.0195 5.13783 34.7912 5.09958 34.6866ZM4.76491 32.4036C4.69797 32.6223 4.6406 32.8126 4.60235 32.9553C4.74578 32.6794 4.76491 32.5367 4.76491 32.4036Z" fill="white"/>
<path d="M29.8301 37.4805C29.6999 37.4805 29.5632 37.4609 29.4199 37.4219C28.3652 37.1354 27.3398 36.9922 26.3438 36.9922C25.8555 36.9922 25.3314 37.0312 24.7715 37.1094C24.2116 37.1875 23.6159 37.3047 22.9844 37.4609C22.9844 38.3268 22.9551 39.6126 22.8965 41.3184C23.2611 41.2923 24.5339 41.1719 26.7148 40.957C27.9583 40.8333 28.7461 40.7715 29.0781 40.7715C29.4622 40.7715 29.791 40.8952 30.0645 41.1426C30.3379 41.3835 30.4746 41.7057 30.4746 42.1094C30.4746 42.8841 30.0612 43.3236 29.2344 43.4277C28.7135 43.4668 27.9355 43.5319 26.9004 43.623C25.9759 43.7272 24.5827 43.8542 22.7207 44.0039C22.6751 44.8307 22.6523 45.498 22.6523 46.0059C22.6523 47.2819 22.7272 48.0078 22.877 48.1836C22.9486 48.2682 23.3587 48.3105 24.1074 48.3105C24.5111 48.3105 25.1198 48.3008 25.9336 48.2812C26.7474 48.2617 27.3561 48.252 27.7598 48.252C27.89 48.252 28.082 48.2324 28.3359 48.1934C28.5898 48.1543 28.7786 48.1348 28.9023 48.1348C29.2799 48.1348 29.6022 48.2422 29.8691 48.457C30.1751 48.6979 30.3281 49.0365 30.3281 49.4727C30.3281 50.2018 29.9473 50.638 29.1855 50.7812C28.5345 50.9049 27.1836 50.9668 25.1328 50.9668C23.0104 50.9668 21.627 50.6803 20.9824 50.1074C20.2728 49.4759 19.918 48.1087 19.918 46.0059C19.918 45.1335 19.9798 43.8249 20.1035 42.0801C20.2337 40.3288 20.2988 39.0202 20.2988 38.1543C20.2988 37.9264 20.2663 37.5911 20.2012 37.1484C20.1361 36.6992 20.1035 36.3607 20.1035 36.1328C20.1035 35.1432 20.5592 34.6484 21.4707 34.6484C21.7572 34.6484 22.0208 34.7298 22.2617 34.8926C23.0169 34.7038 23.7331 34.5638 24.4102 34.4727C25.0938 34.375 25.7383 34.3262 26.3438 34.3262C27.9844 34.3262 29.2962 34.515 30.2793 34.8926C30.8783 35.1204 31.1777 35.5339 31.1777 36.1328C31.1777 36.4714 31.0605 36.7708 30.8262 37.0312C30.5658 37.3307 30.2337 37.4805 29.8301 37.4805ZM40.7914 50.6934C39.9906 50.6934 39.5447 50.2995 39.4535 49.5117C39.3624 48.8411 39.2712 48.1673 39.1801 47.4902C39.0824 46.7741 39.0336 46.1003 39.0336 45.4688C39.0336 45.2995 39.0434 45.0098 39.0629 44.5996C39.0889 44.1895 39.102 43.8997 39.102 43.7305C39.102 43.6849 39.1085 43.571 39.1215 43.3887C39.1345 43.1999 39.141 43.0469 39.141 42.9297C39.141 42.3893 39.001 42.1191 38.7211 42.1191C38.1221 42.1191 37.5329 42.4707 36.9535 43.1738C36.3806 43.8704 35.9314 44.7559 35.6059 45.8301C35.5928 46.0449 35.5635 46.3314 35.518 46.6895C35.4789 46.9824 35.4594 47.2689 35.4594 47.5488C35.4594 47.7311 35.4789 48.0078 35.518 48.3789C35.5635 48.7435 35.5863 49.0169 35.5863 49.1992C35.5863 49.5703 35.4561 49.8763 35.1957 50.1172C34.9418 50.3646 34.6195 50.4883 34.2289 50.4883C33.8383 50.4883 33.516 50.3646 33.2621 50.1172C33.0082 49.8763 32.8813 49.5703 32.8813 49.1992C32.8813 49.0169 32.8617 48.7435 32.8227 48.3789C32.7836 48.0078 32.7641 47.7311 32.7641 47.5488C32.7641 46.9238 32.8096 46.0547 32.9008 44.9414C32.9919 43.8281 33.0375 42.959 33.0375 42.334C33.0375 42.1387 33.0245 41.849 32.9984 41.4648C32.9789 41.0742 32.9691 40.7845 32.9691 40.5957C32.9691 40.2311 33.0993 39.9316 33.3598 39.6973C33.6267 39.4564 33.9522 39.3359 34.3363 39.3359C35.1892 39.3359 35.6449 39.847 35.7035 40.8691L35.7133 40.9766C36.6638 40.0195 37.6664 39.541 38.7211 39.541C39.9516 39.541 40.8012 40.0553 41.2699 41.084C41.5824 41.7741 41.7387 42.806 41.7387 44.1797V44.873C41.7322 45.1725 41.7289 45.3841 41.7289 45.5078C41.7289 46.0156 41.7973 46.6699 41.934 47.4707C42.0772 48.2715 42.1488 48.9225 42.1488 49.4238C42.1488 49.7884 42.0186 50.0911 41.7582 50.332C41.4978 50.5729 41.1755 50.6934 40.7914 50.6934ZM51.3133 40.1855C51.3979 37.9655 51.4988 36.4323 51.616 35.5859C51.7267 34.8177 52.1499 34.4336 52.8855 34.4336C53.2697 34.4336 53.5789 34.5573 53.8133 34.8047C54.0477 35.0521 54.1648 35.3548 54.1648 35.7129C54.1648 36.6569 54.09 38.0632 53.9402 39.9316C53.797 41.8001 53.7254 43.2064 53.7254 44.1504C53.7254 46.4551 53.8003 47.998 53.95 48.7793C53.9695 48.8835 53.9793 48.9779 53.9793 49.0625C53.9793 49.4206 53.8491 49.7168 53.5887 49.9512C53.3283 50.179 53.0255 50.293 52.6805 50.293C52.1987 50.293 51.8406 50.0781 51.6063 49.6484C51.1635 49.9154 50.7046 50.1139 50.2293 50.2441C49.754 50.3809 49.2625 50.4492 48.7547 50.4492C47.2964 50.4492 46.0854 49.9837 45.1219 49.0527C44.1388 48.1022 43.6473 46.8913 43.6473 45.4199C43.6473 43.6686 44.1421 42.2559 45.1316 41.1816C46.1212 40.1009 47.4135 39.5605 49.0086 39.5605C49.4969 39.5605 49.9331 39.6126 50.3172 39.7168C50.7013 39.821 51.0333 39.9772 51.3133 40.1855ZM51.118 43.2617C50.9031 42.8516 50.6232 42.5456 50.2781 42.3438C49.9331 42.1419 49.5229 42.041 49.0477 42.041C48.0841 42.041 47.3615 42.321 46.8797 42.8809C46.3979 43.4342 46.157 44.2676 46.157 45.3809C46.157 46.084 46.4174 46.6862 46.9383 47.1875C47.4591 47.6888 48.0646 47.9395 48.7547 47.9395C49.256 47.9395 49.6368 47.8809 49.8973 47.7637C50.073 47.6855 50.3725 47.4772 50.7957 47.1387C50.9064 47.0475 51.0138 46.9466 51.118 46.8359C51.1049 46.5234 51.1049 45.332 51.118 43.2617Z" fill="white"/>
</svg>
