<svg width="30" height="30" viewBox="0 0 30 30" fill="none" xmlns="http://www.w3.org/2000/svg">
<path d="M16.25 20.625H13.75C10.9887 20.625 8.75 18.3863 8.75 15.625V5.625C8.75 4.935 9.31 4.375 10 4.375H20C20.69 4.375 21.25 4.935 21.25 5.625V15.625C21.25 18.3863 19.0113 20.625 16.25 20.625Z" stroke="#424242" stroke-width="2"/>
<path d="M15 20.625V25.625" stroke="#424242" stroke-width="2"/>
<path d="M11.25 25.625H18.75" stroke="#424242" stroke-width="2" stroke-linecap="round" stroke-linejoin="round"/>
<path d="M22 6H24.25C24.664 6 25 6.52267 25 7.16667V9.5C25 11.4332 23.9927 13 22.75 13H22" stroke="#424242" stroke-width="2" stroke-linecap="round" stroke-linejoin="round"/>
<path d="M8 6H5.75C5.336 6 5 6.52267 5 7.16667V9.5C5 11.4332 6.00725 13 7.25 13H8" stroke="#424242" stroke-width="2" stroke-linecap="round" stroke-linejoin="round"/>
</svg>
