<svg width="44" height="36" viewBox="0 0 44 36" fill="none" xmlns="http://www.w3.org/2000/svg">
<path d="M36.5838 6.00037H33.83C32.6868 6.00037 31.6201 5.4288 30.9864 4.4784L29.0158 1.52197C28.3811 0.571569 27.3143 0 26.1723 0H17.83C16.6868 0 15.62 0.571569 14.9864 1.52197L13.0158 4.4784C12.3822 5.4288 11.3143 6.00037 10.1723 6.00037H7.41734C3.32096 6.00037 0 9.32123 0 13.4175V28.5829C0 32.6791 3.32096 36 7.41734 36H17.4101H25.6328H27.3819H36.5827C40.679 36 44 32.6791 44 28.5829V13.4175C44.0011 9.32123 40.6801 6.00037 36.5838 6.00037ZM27.1094 29.7803C27.054 28.5153 27.0186 27.7278 27.0186 27.7278C27.0186 27.7278 27.0174 26.65 27.0174 25.7838C27.1415 24.0524 27.1415 22.5138 27.1415 19.6017C27.1415 16.2731 27.3885 13.9148 26.5101 13.9148C23.9269 13.9148 23.4461 16.262 23.3088 19.8487C23.1847 23.0633 23.4716 25.3351 25.6372 25.8635C25.9407 26.3852 26.077 27.2204 26.0017 28.3259C25.9828 28.6095 25.9452 29.3262 25.8964 30.3297C24.6857 30.7905 23.373 31.0442 22.0006 31.0442C20.936 31.0442 19.9069 30.8913 18.9344 30.6078C18.8568 28.8498 18.8059 27.6978 18.8059 27.6978C18.8059 27.6978 18.6873 26.4018 19.4351 25.5401C19.9934 25.323 20.9471 24.593 20.925 22.5714C20.925 22.5548 20.9238 22.5382 20.9238 22.5205C20.925 22.4385 20.925 22.3554 20.9238 22.2679C20.9216 22.0519 20.9083 21.7728 20.8939 21.4505C20.8884 21.291 20.8818 21.1237 20.874 20.952C20.874 20.9476 20.874 20.9442 20.874 20.9409C20.7688 18.4818 20.5395 14.9882 20.5395 14.9882L20.5483 14.9118H19.7065V20.7825C19.7065 21.0273 19.5082 21.2256 19.2634 21.2256C19.0186 21.2256 18.8203 21.0273 18.8203 20.7825V14.9118H17.7125V20.7825C17.7125 21.0273 17.5143 21.2256 17.2695 21.2256C17.0246 21.2256 16.8264 21.0273 16.8264 20.7825V14.9118H15.9557V14.9993C15.9424 15.2618 15.6777 20.6108 15.6566 22.2679C15.6555 22.3543 15.6555 22.4374 15.6566 22.5183C15.6566 22.536 15.6555 22.5548 15.6555 22.5714C15.6345 24.5919 16.586 25.3218 17.1443 25.5401C17.892 26.4018 17.7735 27.699 17.7735 27.699C17.7735 27.699 17.7314 28.6538 17.6649 30.1525C13.7757 28.4732 11.0518 24.6041 11.0518 20.0991C11.0518 14.0533 15.9524 9.15286 21.9983 9.15286C28.0443 9.15286 32.9449 14.0533 32.9449 20.0991C32.9471 24.2983 30.581 27.9449 27.1094 29.7803Z" fill="white"/>
</svg>
