<svg width="18" height="18" viewBox="0 0 18 18" fill="none" xmlns="http://www.w3.org/2000/svg">
<g clip-path="url(#clip0_1_7024)">
<path d="M6.276 3.1583L3.276 4.15805C2.66325 4.36205 2.25 4.9358 2.25 5.58155V13.7866C2.25 14.3438 2.8365 14.7068 3.33525 14.457L6.07875 13.0853C6.501 12.8738 6.99825 12.8738 7.4205 13.0853L10.5787 14.6648C11.001 14.8763 11.4983 14.8763 11.9205 14.6648L14.9205 13.1648C15.429 12.9106 15.75 12.3908 15.75 11.8231V4.0403C15.75 3.52805 15.2483 3.16655 14.763 3.32855L11.7248 4.34105C11.4165 4.4438 11.0843 4.4438 10.776 4.34105L7.224 3.1583C6.9165 3.05555 6.5835 3.05555 6.276 3.1583V3.1583Z" stroke="white" stroke-width="1.5" stroke-linecap="round" stroke-linejoin="round"/>
<path d="M11.25 7.14758V11.6026" stroke="white" stroke-width="1.5" stroke-linecap="round" stroke-linejoin="round"/>
<path d="M6.75 5.64758V10.1026" stroke="white" stroke-width="1.5" stroke-linecap="round" stroke-linejoin="round"/>
</g>
<defs>
<clipPath id="clip0_1_7024">
<rect width="18" height="18" fill="white"/>
</clipPath>
</defs>
</svg>
