<svg xmlns="http://www.w3.org/2000/svg" width="503.508" height="411.647" viewBox="0 0 503.508 411.647">
  <g id="newlogo" transform="translate(-0.492 411.775)">
    <path id="Path_51" data-name="Path 51" d="M193-410.1c-12.2,3.9-16.2,7.9-33.1,33.3-15.1,22.6-19.2,26.8-29.6,30.9-5.3,2.1-8.1,2.3-33.8,2.9l-28,.6-9.7,3.3a86.816,86.816,0,0,0-56,58.8L.5-272.5V-172C.5-57.9-.1-66.2,9-47.5A84.208,84.208,0,0,0,72.2-1c5.3.8,55.3,1,184.3.8C457-.6,437.4.3,456.5-9.1c24.9-12.2,41.5-34.5,46.4-62.3.7-3.9,1.1-38.8,1.1-100.5,0-88.4-.1-95.2-1.9-103.6-3.3-16-10-28.8-21.5-41.3-11.1-11.9-29.7-22.1-46.1-25.1-3.2-.6-15.4-1.1-27-1.1-22.9,0-29-.7-37-4.4-8.2-3.7-11.8-7.7-26.4-29.5-14.8-22-19.9-27.7-28.9-31.9l-5.7-2.7-55.5-.2C203-411.9,198-411.8,193-410.1Zm88.5,106.5c20.9,5.3,36.9,13.6,52.7,27.3,39.6,34.4,53.9,90.8,35.6,141.3C357-99.3,326.2-69.5,290.3-58A124.132,124.132,0,0,1,161.9-90.8c-29.1-30.9-40.8-68.7-33.9-109.6,9.2-54.4,49-95.1,102.5-105.1C243.1-307.8,268.6-306.9,281.5-303.6Z" fill="#fff"/>
    <path id="Path_52" data-name="Path 52" d="M233-302.6c-40.6,7.2-73.7,31.3-91.6,66.8-9.1,18-12.4,31.9-12.4,51.7,0,22.3,3.7,38.9,12.9,58.7a163.3,163.3,0,0,0,9,16.3c16.8,25.4,44.9,43.8,77.1,50.7,11.6,2.4,35.2,2.5,47.3.1a124.87,124.87,0,0,0,65.3-35.4c8-8.1,19.3-24.1,21.7-30.8.8-2.2,2.6-6.7,4-10,7.8-18.4,11.2-45,8.2-63.9-8.1-51.7-46.2-91.9-97.7-103.2C267-303.8,242.7-304.3,233-302.6Zm43,19.4c25.3,6.6,46.4,20.5,60.8,40,30.6,41.4,27.5,98-7.4,135.1-4.2,4.5-8,8.1-8.5,8.1s-.9-29.2-.9-69.5c0-67.4-.1-69.5-1.9-69.5-3.8,0-10.3,11.3-14.4,25-4.9,16.2-7.2,31.8-8.7,57.5-1.6,27.2-1.7,26,3,28.6a21.256,21.256,0,0,1,5.6,4.7c2.4,3.6,2.9,11.9,1,17.2A42.343,42.343,0,0,0,303-94.3V-87l-5.1,2.5C292.2-81.6,275.8-76,273-76c-1.7,0-1.9-1.8-2.5-31.3-1.2-56.8-1.3-51.6,1.7-57.2,1.4-2.8,3.5-5.9,4.7-6.9a28.339,28.339,0,0,0,7.1-11.8c.7-2.2.2-9.9-1.6-25.7-3.1-28.3-2.9-27.1-5.9-27.1H274l.5,10.2c.3,5.7.7,17.6,1,26.5L276-183h-6v-53h-5v53h-5v-53.1l-2.2.3-2.3.3-.3,26.2L255-183h-3c-2.6,0-3-.3-2.6-2.3.3-1.2.8-13.1,1.1-26.5l.6-24.4-2.3.4c-2.2.3-2.4,1.1-5,21.8-1.5,11.8-2.7,23.4-2.8,25.8,0,5.7,2.1,10.4,7.4,16.3a54.123,54.123,0,0,1,6.7,9.6c3,6.2,3.6,16.8,1.5,24.9-1.3,5-1.6,11.8-1.6,34.9v28.8l-10.2-.6c-10.1-.6-21.9-3.1-29.1-6.1L212-81.9v-23.6c0-20.5-.3-24.4-2-30.8-2.7-9.4-3.5-20.1-2.1-25.4,1-3.5,1.9-4.6,6.5-7.1,16.5-9.4,22.5-35.6,12.6-55.2-6.6-13-19.1-18.7-32.3-14.8-5.9,1.8-13.9,9.5-17.3,17-2.7,5.9-2.9,7.2-2.9,18.4,0,11.9,0,12.1,3.8,19.6,3.9,7.9,10.8,15.3,15.3,16.4a6.492,6.492,0,0,1,3.5,3.6c1.8,4.3,1.3,17.1-1.1,26.2-1.7,6.6-2,11-2,26.8,0,10.3-.3,18.8-.6,18.8-1.6,0-10.6-7.6-17.5-14.7-18.4-19-28.3-41.9-29.6-68.4-2.6-53.1,35.3-100.1,88.4-109.5C245.4-286.4,266.1-285.7,276-283.2Zm-90,77.9c0,11.2.2,12.2,3.6,20.3,1.9,4.7,3.8,9.2,4.1,10,1.5,3.7-6.9-5.8-9.5-10.9-3.8-7.1-4.6-12.3-3.2-20.1C183.7-221.1,186-220.8,186-205.3Z" fill="#fff"/>
  </g>
</svg>
