<svg width="17" height="17" viewBox="0 0 17 17" fill="none" xmlns="http://www.w3.org/2000/svg">
<path d="M8.50005 0C3.81306 0 0 3.81306 0 8.50004C0 13.187 3.81306 17 8.50005 17C13.187 17 17.0001 13.1869 17.0001 8.50004C17.0001 3.81313 13.187 0 8.50005 0ZM8.50005 14.6606C5.10311 14.6606 2.33952 11.897 2.33952 8.50004C2.33952 5.10303 5.10311 2.33944 8.50005 2.33944C11.897 2.33944 14.6606 5.10303 14.6606 8.50004C14.6606 11.897 11.897 14.6606 8.50005 14.6606ZM11.5888 7.39448C11.5888 5.67865 10.3845 4.61268 8.44603 4.61268H5.5741V12.3874H7.22072V10.2213H8.44611C8.51833 10.2213 8.59465 10.2194 8.67319 10.2156L10.2577 12.3875H12.2983L10.3666 9.74078C11.1552 9.2485 11.5888 8.41701 11.5888 7.39448ZM8.44603 8.57473H7.22072V6.25929H8.44611C9.94234 6.25929 9.94234 7.11361 9.94234 7.39448C9.94234 7.6863 9.94234 8.57473 8.44603 8.57473Z" fill="#9F9F9F"/>
</svg>
