<svg width="28" height="28" viewBox="0 0 28 28" fill="none" xmlns="http://www.w3.org/2000/svg">
<g clip-path="url(#clip0_1_6310)">
<path d="M21 5.83325H24.5" stroke="#40C1AF" stroke-width="1.5" stroke-linecap="round" stroke-linejoin="round"/>
<path d="M3.5 5.83325H16.3333" stroke="#40C1AF" stroke-width="1.5" stroke-linecap="round" stroke-linejoin="round"/>
<path d="M11.666 14H24.4994" stroke="#40C1AF" stroke-width="1.5" stroke-linecap="round" stroke-linejoin="round"/>
<path d="M3.5 14H7" stroke="#40C1AF" stroke-width="1.5" stroke-linecap="round" stroke-linejoin="round"/>
<path d="M21 22.1667H24.5" stroke="#40C1AF" stroke-width="1.5" stroke-linecap="round" stroke-linejoin="round"/>
<path d="M3.5 22.1667H16.3333" stroke="#40C1AF" stroke-width="1.5" stroke-linecap="round" stroke-linejoin="round"/>
<path d="M20.3172 4.18342C21.2285 5.09464 21.2285 6.57203 20.3172 7.48325C19.406 8.39448 17.9286 8.39448 17.0174 7.48325C16.1062 6.57203 16.1062 5.09464 17.0174 4.18342C17.9286 3.27219 19.406 3.27219 20.3172 4.18342Z" stroke="#40C1AF" stroke-width="1.5" stroke-linecap="round" stroke-linejoin="round"/>
<path d="M10.9833 12.3502C11.8945 13.2614 11.8945 14.7388 10.9833 15.65C10.072 16.5612 8.59464 16.5612 7.68342 15.65C6.77219 14.7388 6.77219 13.2614 7.68342 12.3502C8.59464 11.4389 10.072 11.4389 10.9833 12.3502" stroke="#40C1AF" stroke-width="1.5" stroke-linecap="round" stroke-linejoin="round"/>
<path d="M20.3172 20.5169C21.2285 21.4281 21.2285 22.9055 20.3172 23.8167C19.406 24.728 17.9286 24.728 17.0174 23.8167C16.1062 22.9055 16.1062 21.4281 17.0174 20.5169C17.9286 19.6057 19.406 19.6057 20.3172 20.5169Z" stroke="#40C1AF" stroke-width="1.5" stroke-linecap="round" stroke-linejoin="round"/>
</g>
<defs>
<clipPath id="clip0_1_6310">
<rect width="28" height="28" fill="white"/>
</clipPath>
</defs>
</svg>
