<svg width="43" height="41" viewBox="0 0 43 41" fill="none" xmlns="http://www.w3.org/2000/svg">
<path d="M40.6404 16.0481L37.272 15.6398C36.9943 14.8249 36.6521 14.0391 36.2526 13.2925L38.3327 10.7386C39.1748 9.70504 39.0762 8.24613 38.1141 7.35779L35.2922 4.66717C34.3516 3.74125 32.8215 3.649 31.7358 4.45021L29.0608 6.43358C28.2779 6.05263 27.4537 5.72633 26.5973 5.46154L26.1691 2.255C26.0078 0.968625 24.863 0 23.5067 0H19.4933C18.137 0 16.9922 0.968625 16.8309 2.24988L16.4027 5.46154C15.5463 5.72633 14.7221 6.05092 13.9392 6.43358L11.2624 4.45021C10.1802 3.649 8.65017 3.74125 7.71671 4.65863L4.89483 7.34754C3.92375 8.24613 3.82521 9.70504 4.66729 10.7403L6.74742 13.2925C6.34608 14.0391 6.00567 14.8249 5.72796 15.6398L2.365 16.0481C1.01587 16.2018 0 17.2935 0 18.5867V22.4133C0 23.7065 1.01588 24.7982 2.35963 24.9519L5.72796 25.3602C6.00567 26.1751 6.34787 26.9609 6.74742 27.7075L4.66729 30.2614C3.82521 31.295 3.92375 32.7539 4.88587 33.6422L7.70775 36.3328C8.65017 37.257 10.1785 37.3493 11.2642 36.5481L13.941 34.5647C14.7239 34.9474 15.5481 35.2737 16.4027 35.5368L16.8309 38.7416C16.9922 40.0314 18.137 41 19.4933 41H23.5067C24.863 41 26.0078 40.0314 26.1691 38.7501L26.5973 35.5385C27.4519 35.2737 28.2761 34.9474 29.059 34.5664L31.7376 36.5498C32.8215 37.3527 34.3516 37.2588 35.2833 36.3414L38.1052 33.6507C39.0762 32.7522 39.1748 31.295 38.3327 30.2597L36.2526 27.7075C36.6539 26.9609 36.9961 26.1751 37.272 25.3602L40.6332 24.9519C41.9823 24.7982 42.9982 23.7065 42.9982 22.4133V18.5867C43 17.2935 41.9841 16.2018 40.6404 16.0481ZM21.5 29.0417C16.5604 29.0417 12.5417 25.2099 12.5417 20.5C12.5417 15.7901 16.5604 11.9583 21.5 11.9583C26.4396 11.9583 30.4583 15.7901 30.4583 20.5C30.4583 25.2099 26.4396 29.0417 21.5 29.0417Z" fill="white"/>
</svg>
