<svg width="20" height="22" viewBox="0 0 20 22" fill="none" xmlns="http://www.w3.org/2000/svg">
<path d="M10 16C5.8575 16 2.5 12.6425 2.5 8.5C2.5 4.3575 5.8575 1 10 1C14.1425 1 17.5 4.3575 17.5 8.5C17.5 12.6425 14.1425 16 10 16Z" fill="#9F9F9F" stroke="#9F9F9F" stroke-width="1.5" stroke-linecap="round" stroke-linejoin="round"/>
<path d="M9.99935 12.6667V8.5H9.16602" stroke="white" stroke-width="2.5" stroke-linecap="round" stroke-linejoin="round"/>
<path d="M9.749 5C9.611 5 9.49901 5.112 9.50001 5.25C9.50001 5.388 9.61201 5.5 9.75 5.5C9.888 5.5 10 5.388 10 5.25C10 5.112 9.888 5 9.749 5Z" fill="white" stroke="white" stroke-width="2.5" stroke-linecap="round" stroke-linejoin="round"/>
<circle cx="9.99966" cy="5.02163" r="1.30435" fill="white"/>
</svg>
