<svg width="30" height="27" viewBox="0 0 30 27" fill="none" xmlns="http://www.w3.org/2000/svg">
<g clip-path="url(#clip0_1_3858)">
<path d="M14.9975 10.1206C13.1162 10.1206 11.585 8.75257 11.585 7.04932" stroke="#40C1AF" stroke-width="1.5" stroke-linecap="round" stroke-linejoin="round"/>
<path d="M11.584 7.04936C11.584 5.71061 12.2627 4.74536 13.629 4.74536" stroke="#40C1AF" stroke-width="1.5" stroke-linecap="round" stroke-linejoin="round"/>
<path d="M14.9971 10.1206C16.8896 10.1206 18.4208 8.75257 18.4208 7.04932" stroke="#40C1AF" stroke-width="1.5" stroke-linecap="round" stroke-linejoin="round"/>
<path d="M18.4195 7.04936C18.4195 5.71061 17.7308 4.74536 16.3633 4.74536" stroke="#40C1AF" stroke-width="1.5" stroke-linecap="round" stroke-linejoin="round"/>
<path d="M16.3639 4.74634C15.6852 4.74634 15.2914 4.94321 14.9964 4.94321C14.7014 4.94321 14.3177 4.74634 13.6289 4.74634" stroke="#40C1AF" stroke-width="1.5" stroke-linecap="round" stroke-linejoin="round"/>
<path d="M15 4.941V3.825C15 2.95538 15.7837 2.25 16.75 2.25" stroke="#40C1AF" stroke-width="1.5" stroke-linecap="round" stroke-linejoin="round"/>
<path d="M11.5937 7.16846C7.75125 8.12696 5 10.6526 5 13.6271V13.7047C5 15.183 6.09 16.5375 7.67375 16.8165C8.89 17.0302 10.0187 16.6376 10.7637 15.9108C11.2662 15.4203 12.0912 15.4552 12.6012 15.9401C13.2062 16.5161 14.0575 16.875 15 16.875C15.9425 16.875 16.7937 16.5161 17.4 15.9401C17.91 15.4552 18.7337 15.4203 19.2375 15.9108C19.9825 16.6376 21.1112 17.0302 22.3275 16.8165C23.91 16.5386 25 15.1841 25 13.7058V13.6282C25 10.6548 22.25 8.12921 18.4087 7.16958" stroke="#40C1AF" stroke-width="1.5" stroke-linecap="round" stroke-linejoin="round"/>
<path d="M22.3191 16.8176L21.4891 21.7148C21.3029 22.8128 20.2529 23.625 19.0179 23.625H10.9829C9.74789 23.625 8.69789 22.8128 8.51164 21.7148L7.68164 16.8176" stroke="#40C1AF" stroke-width="1.5" stroke-linecap="round" stroke-linejoin="round"/>
</g>
<defs>
<clipPath id="clip0_1_3858">
<rect width="30" height="27" fill="white"/>
</clipPath>
</defs>
</svg>
