<svg width="34" height="28" viewBox="0 0 34 28" fill="none" xmlns="http://www.w3.org/2000/svg">
<g clip-path="url(#clip0_1_3883)">
<path d="M19.8333 17.4999V16.3333C19.8333 14.4001 17.9307 12.8333 15.5833 12.8333H8.5C6.15258 12.8333 4.25 14.4001 4.25 16.3333V17.4999" stroke="#40C1AF" stroke-width="1.5" stroke-linecap="round" stroke-linejoin="round"/>
<path d="M17 24.5H7.08333C5.51792 24.5 4.25 23.4558 4.25 22.1667V21H19.8333V22.1667C19.8333 23.4558 18.5654 24.5 17 24.5Z" stroke="#40C1AF" stroke-width="1.5" stroke-linecap="round" stroke-linejoin="round"/>
<path d="M2.83301 17.5H21.2497" stroke="#40C1AF" stroke-width="1.5" stroke-linecap="round" stroke-linejoin="round"/>
<path d="M15.1352 12.8334L14.5954 9.48741C14.4835 8.78741 15.1437 8.16675 16.0007 8.16675H28.3328C29.1956 8.16675 29.8571 8.79558 29.7353 9.49791L27.3071 23.4979C27.2066 24.0731 26.6087 24.5001 25.9046 24.5001H22.8829" stroke="#40C1AF" stroke-width="1.5" stroke-linecap="round" stroke-linejoin="round"/>
<path d="M27.1335 3.5H24.1061C23.4034 3.5 22.8084 3.9235 22.705 4.49517L22.042 8.16667" stroke="#40C1AF" stroke-width="1.5" stroke-linecap="round" stroke-linejoin="round"/>
</g>
<defs>
<clipPath id="clip0_1_3883">
<rect width="34" height="28" fill="white"/>
</clipPath>
</defs>
</svg>
