<svg width="25" height="24" viewBox="0 0 25 24" fill="none" xmlns="http://www.w3.org/2000/svg">
<path d="M10.6024 10.665H9.85219C9.23478 10.665 8.73242 11.0258 8.73242 11.4691V20.8524C8.73242 21.2957 9.23472 21.6565 9.85219 21.6565H10.6024C11.2198 21.6565 11.7221 21.2957 11.7221 20.8524V11.4691C11.7221 11.0258 11.2198 10.665 10.6024 10.665ZM10.7666 20.8524C10.7666 20.9174 10.6929 20.9703 10.6024 20.9703H9.85219C9.76167 20.9703 9.68796 20.9174 9.68796 20.8524V11.4691C9.68796 11.4041 9.7616 11.3512 9.85219 11.3512H10.6024C10.6929 11.3512 10.7666 11.4041 10.7666 11.4691V20.8524Z" fill="#40C1AF"/>
<path d="M6.56954 12.9811C6.30569 12.9811 6.09177 13.1346 6.09177 13.3242V20.8522C6.09177 20.9172 6.01813 20.9701 5.92755 20.9701H5.17738C5.08686 20.9701 5.01316 20.9172 5.01316 20.8522V13.2391C5.01316 13.0496 4.79924 12.896 4.53539 12.896C4.27153 12.896 4.05762 13.0496 4.05762 13.2391V20.8522C4.05762 21.2956 4.55991 21.6562 5.17738 21.6562H5.92755C6.54495 21.6562 7.04731 21.2956 7.04731 20.8522V13.3242C7.04731 13.1346 6.8334 12.9811 6.56954 12.9811Z" fill="#40C1AF"/>
<path d="M15.3406 10.665H14.5904C13.973 10.665 13.4707 11.0257 13.4707 11.4691V14.4034C13.4707 14.5929 13.6846 14.7465 13.9485 14.7465C14.2124 14.7465 14.4262 14.5929 14.4262 14.4034V11.4691C14.4262 11.4041 14.4999 11.3512 14.5904 11.3512H15.3406C15.4312 11.3512 15.5048 11.4041 15.5048 11.4691V20.8524C15.5048 20.9174 15.4312 20.9703 15.3406 20.9703H14.5904C14.4999 20.9703 14.4262 20.9174 14.4262 20.8524V15.8655C14.4262 15.6759 14.2124 15.5224 13.9485 15.5224C13.6846 15.5224 13.4707 15.6759 13.4707 15.8655V20.8524C13.4707 21.2957 13.973 21.6564 14.5904 21.6564H15.3406C15.958 21.6564 16.4603 21.2957 16.4603 20.8524V11.4691C16.4603 11.0257 15.958 10.665 15.3406 10.665Z" fill="#40C1AF"/>
<path d="M21.6795 7.93872H18.8897V7.183C19.6311 6.88855 20.1344 6.32129 20.1344 5.67105C20.1344 5.20982 19.8843 4.77617 19.4301 4.45007C18.9759 4.12392 18.3721 3.94429 17.7298 3.94433H17.0226V3.74823C17.0226 2.79613 15.9438 2.02152 14.6179 2.02152H13.1697C13.0105 0.969238 11.7657 0.147461 10.2587 0.147461C8.75164 0.147461 7.50682 0.969238 7.34756 2.02152H5.89941C4.5735 2.02152 3.49476 2.79613 3.49476 3.74823V3.94433H2.78753C1.46162 3.94433 0.382812 4.71895 0.382812 5.67105C0.382812 6.30249 0.857526 6.85557 1.56393 7.1567V21.2979C1.56393 22.5437 2.97539 23.5573 4.71027 23.5573H15.7433C17.4782 23.5573 18.8897 22.5438 18.8897 21.2979V19.1118H21.6796C23.1769 19.1118 24.3949 18.2371 24.3949 17.162V9.88853C24.3949 8.81338 23.1768 7.93872 21.6795 7.93872ZM2.78753 4.63048H3.97253C4.23638 4.63048 4.4503 4.47692 4.4503 4.28741V3.74823C4.4503 3.17447 5.10038 2.70766 5.89941 2.70766H7.64881C8.00013 2.70766 8.28591 2.50246 8.28591 2.25019C8.28591 1.46907 9.17086 0.83361 10.2587 0.83361C11.3464 0.83361 12.2314 1.46907 12.2314 2.25019C12.2314 2.50246 12.5172 2.70766 12.8686 2.70766H14.618C15.417 2.70766 16.0671 3.17447 16.0671 3.74823V4.28741C16.0671 4.47692 16.2809 4.63048 16.5448 4.63048H17.7298C18.1169 4.63048 18.4808 4.73866 18.7545 4.93522C19.0282 5.13178 19.179 5.39311 19.179 5.67105C19.179 6.24481 18.5289 6.71162 17.7298 6.71162H9.97785C9.06773 6.71162 8.21214 6.96609 7.56861 7.42818C6.92509 7.89033 6.57064 8.50471 6.57064 9.15819V11.0848C6.57064 11.4179 6.19327 11.6889 5.72939 11.6889C5.2655 11.6889 4.88813 11.4179 4.88813 11.0848V7.46551C4.88813 7.0498 4.41711 6.71162 3.83818 6.71162H2.78746C1.98844 6.71162 1.33835 6.24481 1.33835 5.67105C1.33835 5.09729 1.98844 4.63048 2.78753 4.63048ZM2.78746 7.39776H3.83818C3.89022 7.39776 3.93259 7.42818 3.93259 7.46551V8.51504H2.51947V7.38679C2.6075 7.39383 2.69688 7.39776 2.78746 7.39776ZM15.7433 22.8711H4.71027C3.50227 22.8711 2.51947 22.1654 2.51947 21.2979V9.20124H3.93259V11.0849C3.93259 11.7963 4.73862 12.3751 5.72939 12.3751C6.72016 12.3751 7.52619 11.7963 7.52619 11.0849V9.20124H13.9472C14.2112 9.20124 14.425 9.04768 14.425 8.85816C14.425 8.66865 14.2112 8.51509 13.9472 8.51509H7.69493C7.81654 8.29227 8.00147 8.08771 8.24424 7.91343C8.7073 7.58087 9.32299 7.39781 9.97779 7.39781H17.7298C17.7986 7.39781 17.8667 7.39525 17.9341 7.39113V8.51513H15.9833C15.7194 8.51513 15.5055 8.6687 15.5055 8.85821C15.5055 9.04772 15.7194 9.20128 15.9833 9.20128H17.9341V21.298C17.9341 22.1654 16.9514 22.8711 15.7433 22.8711ZM23.4393 17.162C23.4393 17.8587 22.6499 18.4256 21.6795 18.4256H18.8897V17.648H21.6795C22.0527 17.648 22.3564 17.4299 22.3564 17.162V12.9665C22.3564 12.777 22.1425 12.6235 21.8786 12.6235C21.6147 12.6235 21.4008 12.777 21.4008 12.9665V16.9619H18.8897V10.0887H21.4008V11.5045C21.4008 11.694 21.6147 11.8476 21.8786 11.8476C22.1425 11.8476 22.3564 11.694 22.3564 11.5045V9.88853C22.3564 9.62057 22.0527 9.40251 21.6795 9.40251H18.8897V8.62487H21.6795C22.6499 8.62487 23.4393 9.19177 23.4393 9.88853V17.162Z" fill="#40C1AF"/>
</svg>
