<svg width="64" height="64" viewBox="0 0 64 64" fill="none" xmlns="http://www.w3.org/2000/svg">
<path d="M62.9655 35.3793L60.6207 39.0345C60.3448 39.3793 60.2759 39.8621 60.2759 40.2759L60.4138 44.5517C60.5517 46.9655 59.2414 49.3103 57.0345 50.4138L53.1724 52.3448C52.7586 52.5517 52.4828 52.8276 52.2759 53.2414L50.3448 57.1034C49.2414 59.3103 46.9655 60.6207 44.4828 60.4828L40.1379 60.2069C39.7241 60.2069 39.2414 60.3448 38.8965 60.5517L35.3103 62.9655C34.2759 63.6552 33.1034 64 31.931 64C30.7586 64 29.5862 63.6552 28.5517 62.9655L24.9655 60.6207C24.6207 60.3448 24.1379 60.2759 23.7241 60.2759L19.3793 60.5517C16.9655 60.6897 14.6207 59.3793 13.5172 57.1724L11.5862 53.3103C11.3793 52.9655 11.1034 52.6207 10.6897 52.4138L6.82759 50.4828C4.62069 49.3793 3.31034 47.1034 3.44828 44.6207L3.72414 40.2759C3.72414 39.7931 3.65517 39.3793 3.44828 38.8965L1.03448 35.3103C-0.344828 33.3103 -0.344828 30.6207 1.03448 28.5517L3.37931 24.9655C3.65517 24.6207 3.72414 24.1379 3.72414 23.7241L3.44828 19.3793C3.31034 16.9655 4.62069 14.6207 6.82759 13.5172L10.6897 11.5862C11.1034 11.3793 11.3793 11.1034 11.5862 10.6897L13.5172 6.82759C14.6207 4.62069 16.8966 3.31034 19.3793 3.44828L23.7241 3.72414C24.2069 3.72414 24.6207 3.65517 25.1034 3.44828L28.6897 1.03448C30.7586 -0.344828 33.3793 -0.344828 35.4483 1.03448L39.0345 3.37931C39.3793 3.65517 39.8621 3.72414 40.2759 3.72414L44.6207 3.44828C47.0345 3.31034 49.3793 4.62069 50.4828 6.82759L52.4138 10.6897C52.6207 11.1034 52.8965 11.3793 53.3103 11.5862L57.1724 13.5172C59.3793 14.6207 60.6897 16.8966 60.5517 19.3793L60.2759 23.7241C60.2759 24.2069 60.3448 24.6207 60.5517 25.0345L62.9655 28.6207C64.3448 30.6207 64.3448 33.3103 62.9655 35.3793Z" fill="#FC8730"/>
</svg>
