<svg width="28" height="24" viewBox="0 0 28 24" fill="none" xmlns="http://www.w3.org/2000/svg">
<path d="M5.10427 14.7992C6.24467 14.3023 7.56862 14.3689 8.40285 15.0827L8.40285 15.0827C8.94688 15.5483 9.19555 16.2043 9.10278 16.9241L9.10278 16.9242C9.02276 17.5446 8.69454 18.1462 8.17873 18.6395H17.7089C19.8581 16.9784 21.0822 14.6224 21.0822 12.1465V10.0397H15.142C14.8209 10.0397 14.5331 9.81408 14.5331 9.5043C14.5331 9.19452 14.8209 8.96885 15.142 8.96885H22.7238C25.1206 8.96885 27.0981 10.6404 27.0981 12.7266C27.0981 14.7837 25.1754 16.4377 22.8238 16.4835V16.4845H22.7238H21.1231C20.6783 17.2597 20.114 17.9848 19.4415 18.6395H24.2503C24.5713 18.6395 24.8591 18.8652 24.8591 19.175C24.8591 20.6369 23.4752 21.8006 21.8078 21.8006H20.3075C20.0252 22.8074 18.9716 23.5424 17.7371 23.5424H7.96734C6.73289 23.5424 5.67926 22.8074 5.3969 21.8006H3.8966C2.22922 21.8006 0.845312 20.6369 0.845312 19.175C0.845312 18.8652 1.13307 18.6395 1.45416 18.6395H3.3497L5.10427 14.7992ZM5.10427 14.7992C4.78447 13.9419 4.62227 13.0525 4.62227 12.1465V10.0397H10.5624C10.8835 10.0397 11.1713 9.81407 11.1713 9.5043C11.1713 9.19453 10.8835 8.96885 10.5624 8.96885H4.01338C3.69235 8.96885 3.40454 9.19452 3.40454 9.5043V12.1465C3.40454 13.2814 3.63034 14.3928 4.07462 15.4559C3.50353 15.9649 3.13929 16.6018 3.05446 17.26L5.10427 14.7992ZM7.89279 16.8031L7.89279 16.8031C7.838 17.2283 7.58706 17.6585 7.17555 18.0105L7.16508 18.0195C6.75592 18.366 6.25214 18.5822 5.74636 18.63C5.59297 18.6445 5.44645 18.6423 5.30915 18.6248C5.30583 18.17 5.66265 17.7369 6.22815 17.6112C6.99476 17.4407 7.58774 16.9722 7.87524 16.3802C7.90559 16.5108 7.91218 16.6527 7.89279 16.8031ZM4.98154 16.1736L4.98154 16.1736C5.46619 15.7589 6.07199 15.542 6.60944 15.542C6.69083 15.542 6.77053 15.5471 6.84796 15.5572C6.85241 16.0129 6.49534 16.4471 5.92889 16.573C5.16235 16.7435 4.56939 17.212 4.28187 17.8039C4.25151 17.6734 4.24491 17.5314 4.2643 17.3811C4.31913 16.9559 4.57008 16.5257 4.98154 16.1736ZM21.8078 20.7297H19.7724C19.4514 20.7297 19.1636 20.9554 19.1636 21.2651C19.1636 21.9162 18.5387 22.4715 17.7371 22.4715H7.96734C7.16567 22.4715 6.54081 21.9162 6.54081 21.2651C6.54081 20.9554 6.253 20.7297 5.93197 20.7297H3.8966C3.10007 20.7297 2.4311 20.2984 2.17526 19.7104H23.5292C23.2733 20.2984 22.6043 20.7297 21.8078 20.7297ZM22.7238 10.0397C24.4794 10.0397 25.8804 11.2592 25.8804 12.7266C25.8804 14.1941 24.4794 15.4135 22.7238 15.4135H21.6483C21.7623 15.1363 21.862 14.8544 21.9468 14.5684H22.7238C23.8861 14.5684 24.8592 13.7563 24.8592 12.7266C24.8592 11.6969 23.8861 10.8848 22.7238 10.8848H22.2999V10.0397H22.7238ZM22.2999 11.9557H22.7238C23.2449 11.9557 23.6415 12.3157 23.6415 12.7266C23.6415 13.1376 23.2449 13.4975 22.7238 13.4975H22.1904C22.2623 13.0529 22.2999 12.6017 22.2999 12.1465V11.9557Z" fill="#40C1AF" stroke="#40C1AF" stroke-width="0.2"/>
<path d="M16.5319 7.93254L16.5319 7.93253C16.2866 7.72254 16.2866 7.37469 16.5319 7.16473C16.987 6.77524 16.987 6.14878 16.5319 5.75934L16.5319 5.75933C16.0766 5.36974 15.8219 4.84763 15.8219 4.28887C15.8219 3.7301 16.0766 3.208 16.5319 2.8184L16.5319 2.81837C16.7682 2.61636 17.1455 2.6163 17.3816 2.8184L16.5319 7.93254ZM16.5319 7.93254C16.6515 8.03487 16.8056 8.08411 16.9568 8.08411C17.108 8.08411 17.262 8.03487 17.3816 7.93254L17.3166 7.85656M16.5319 7.93254L17.3166 7.85656M17.3166 7.85656L17.3816 7.93254C18.3267 7.12366 18.3267 5.8004 17.3816 4.99156L17.3816 4.99156M17.3166 7.85656L17.3816 4.99156M17.3816 4.99156C17.1585 4.8007 17.0396 4.55102 17.0396 4.28887M17.3816 4.99156L17.0396 4.28887M17.0396 4.28887C17.0396 4.02672 17.1585 3.77707 17.3816 3.58617M17.0396 4.28887L17.3816 3.58617M17.3816 3.58617C17.6269 3.37622 17.6269 3.02837 17.3816 2.81841L17.3816 3.58617Z" fill="#40C1AF" stroke="#40C1AF" stroke-width="0.2"/>
<path d="M8.32278 7.16477C8.07743 7.37473 8.07745 7.72258 8.32278 7.93257L8.32278 7.93258C8.44237 8.03492 8.59645 8.08415 8.74761 8.08415C8.89876 8.08415 9.05284 8.03492 9.17243 7.93258L9.10741 7.8566L9.17243 7.93258C10.1176 7.1237 10.1176 5.80044 9.17243 4.99161C8.71735 4.60217 8.71735 3.97565 9.17243 3.58621C9.41778 3.37625 9.41776 3.0284 9.17244 2.81841L9.17242 2.81839C8.93623 2.61633 8.55898 2.61634 8.32275 2.81838L8.32273 2.8184C7.37758 3.62723 7.37758 4.95054 8.32273 5.75938L8.32274 5.75938C8.77786 6.14882 8.77786 6.77528 8.32278 7.16477ZM8.32278 7.16477L8.3878 7.24075L8.32278 7.16477C8.32278 7.16477 8.32278 7.16477 8.32278 7.16477Z" fill="#40C1AF" stroke="#40C1AF" stroke-width="0.2"/>
<path d="M13.2776 7.93248L13.2776 7.93246C14.4836 6.90042 14.4836 5.21395 13.2776 4.18186L13.2776 4.18186C12.9282 3.88284 12.7398 3.4894 12.7398 3.07432C12.7398 2.65924 12.9282 2.26581 13.2776 1.96679C13.523 1.75683 13.523 1.40897 13.2776 1.19902C13.0415 0.99693 12.6642 0.996963 12.428 1.19899L12.4279 1.19902C11.8463 1.69674 11.5221 2.36263 11.5221 3.07432C11.5221 3.78601 11.8463 4.4519 12.4279 4.94963C13.1439 5.56232 13.1439 6.552 12.428 7.1647C12.1826 7.37465 12.1826 7.72251 12.428 7.93246C12.5476 8.0348 12.7016 8.08403 12.8528 8.08403C13.004 8.08403 13.1581 8.03474 13.2776 7.93248Z" fill="#40C1AF" stroke="#40C1AF" stroke-width="0.2"/>
<path d="M13.2773 9.88838C13.3919 9.79032 13.4614 9.65113 13.4614 9.50454C13.4614 9.35745 13.3919 9.21881 13.2775 9.12042L13.2773 9.12028C13.1631 9.02244 13.0081 8.96909 12.8526 8.96909C12.697 8.96909 12.5421 9.02245 12.4278 9.12027L12.4278 9.12027L12.4278 9.88838L12.4928 9.81241L12.4278 9.8884C12.542 9.98607 12.6968 10.04 12.8526 10.04C13.0084 10.04 13.1632 9.98607 13.2773 9.88838ZM13.2773 9.88838L13.2123 9.81241L13.2773 9.88837C13.2773 9.88837 13.2773 9.88838 13.2773 9.88838Z" fill="#40C1AF" stroke="#40C1AF" stroke-width="0.2"/>
</svg>
