<svg width="38" height="33" viewBox="0 0 38 33" fill="none" xmlns="http://www.w3.org/2000/svg">
<mask id="path-1-outside-1_1_3898" maskUnits="userSpaceOnUse" x="0" y="0" width="38" height="33" fill="black">
<rect fill="white" width="38" height="33"/>
<path d="M35.4638 16.8424H34.2141C34.0971 15.0608 33.6343 13.3413 32.8334 11.7249C32.7112 11.4774 32.3981 11.3702 32.1342 11.4848C31.8702 11.5997 31.7557 11.8933 31.8782 12.1408C32.614 13.6264 33.0433 15.2058 33.1586 16.8424H9.0365C8.74564 16.8424 8.50998 17.0633 8.50998 17.3361C8.50998 17.6088 8.74564 17.8297 9.0365 17.8297H35.4638C35.7303 17.8297 35.9467 18.0329 35.9467 18.2827V18.8853C35.9467 19.1351 35.7303 19.3383 35.4638 19.3383H2.53616C2.26974 19.3383 2.05331 19.1351 2.05331 18.8853V18.2827C2.05331 18.0329 2.26974 17.8297 2.53616 17.8297H6.58188C6.87274 17.8297 7.10867 17.6088 7.10867 17.3361C7.10867 17.0633 6.87274 16.8424 6.58188 16.8424H4.84137C5.07346 13.5623 6.57364 10.5109 9.10214 8.20295C11.5389 5.97897 14.6876 4.66972 18.0527 4.46216C18.0546 4.46216 18.0565 4.46241 18.0585 4.46216C18.2018 4.4534 18.3436 4.44671 18.4836 4.44181C18.5117 4.44104 18.5394 4.43975 18.5674 4.43898C18.6174 4.43743 18.6671 4.4364 18.7163 4.43537C18.8108 4.43383 18.9052 4.43228 19 4.43228C19.1258 4.43228 19.2516 4.4346 19.3771 4.43769C19.4142 4.43872 19.451 4.43975 19.4883 4.44078C19.585 4.44387 19.6814 4.44851 19.7778 4.4534C19.8289 4.45598 19.88 4.45855 19.9314 4.46164C24.2548 4.72792 28.2324 6.83602 30.7076 10.2163C30.8721 10.4408 31.2 10.4983 31.4398 10.3438C31.6796 10.1895 31.7406 9.88201 31.5758 9.65719C29.1401 6.33075 25.349 4.1521 21.1588 3.59018C21.4214 3.20801 21.5689 2.75812 21.5689 2.28685C21.5689 2.01851 21.4412 1.5238 20.5859 1.22868C20.1588 1.08138 19.5955 1 19 1C18.4043 1 17.8409 1.08138 17.4138 1.22868C16.5586 1.5238 16.4311 2.01851 16.4311 2.28685C16.4311 2.75683 16.5781 3.20595 16.839 3.58735C13.6576 4.00943 10.707 5.35989 8.36743 7.49528C5.63431 9.98991 4.01959 13.2934 3.78586 16.8421H2.53616C1.68912 16.8424 1 17.4885 1 18.2827V18.8853C1 19.6798 1.68912 20.3259 2.53616 20.3259H8.20923C7.92606 20.5077 7.65469 20.7117 7.40063 20.938L7.3902 20.9473C7.37399 20.9615 7.35861 20.9767 7.3446 20.9929L4.84439 23.8396C4.53073 23.6529 4.15939 23.5849 3.793 23.6508C3.41095 23.7193 3.08054 23.9233 2.86246 24.2251L1.87918 25.5846C1.42957 26.2065 1.60315 27.056 2.2659 27.4781L8.9942 31.7639C9.2381 31.9191 9.5199 32 9.80856 32C9.9003 32 9.99286 31.9918 10.0851 31.9753C10.4669 31.9068 10.7973 31.7028 11.0154 31.401L11.9987 30.0415C12.4483 29.4196 12.275 28.57 11.6122 28.148L11.5738 28.1235C12.0421 27.6252 12.6664 27.268 13.3456 27.1207C14.7769 26.8099 16.4611 27.01 17.6034 27.1874C19.0165 27.4068 20.5007 27.3319 21.8957 26.9706L23.8348 26.4681C25.1265 26.1333 26.3152 25.5696 27.3683 24.7924C27.3763 24.7865 27.3839 24.7806 27.3916 24.7741L30.7208 22.0096C31.2882 21.6025 31.4118 20.8974 31.216 20.3259H35.4638C36.3109 20.3259 37 19.6798 37 18.8856V18.2827C37 17.4885 36.3109 16.8424 35.4638 16.8424ZM19 1.98761C19.8869 1.98761 20.4183 2.19337 20.5156 2.30771C20.5084 2.77614 20.2557 3.20827 19.8446 3.46734C19.741 3.46219 19.6389 3.45807 19.537 3.45446C19.5026 3.45343 19.4683 3.45189 19.434 3.45112C19.287 3.447 19.142 3.44494 19 3.44494C18.8992 3.44494 18.7965 3.44622 18.6929 3.44828C18.6429 3.44906 18.5927 3.45034 18.5424 3.45189C18.4825 3.45369 18.4221 3.45549 18.3617 3.45781C18.2928 3.46064 18.2238 3.46348 18.1552 3.46708C17.744 3.20801 17.4916 2.77589 17.4844 2.30771C17.5817 2.19337 18.1131 1.98761 19 1.98761ZM22.7766 20.5641C22.7373 20.4807 22.6903 20.4014 22.6373 20.3259H27.6885L25.5045 21.6813L22.3912 22.5257L22.2855 22.528C22.8848 22.0596 23.1034 21.2597 22.7766 20.5641ZM17.0659 20.3259L16.3059 20.4745L15.7184 20.3259H17.0659ZM11.1269 29.4873L10.1439 30.8468C10.0838 30.9302 9.99258 30.9864 9.88712 31.0054C9.78192 31.0242 9.6748 31.0036 9.58609 30.947L2.85779 26.6613C2.67487 26.5449 2.62708 26.3105 2.75122 26.139L3.7345 24.7793C3.79465 24.6961 3.88556 24.6397 3.99103 24.6209C4.01657 24.6163 4.04211 24.6139 4.06738 24.6139C4.14703 24.6139 4.22476 24.6364 4.29205 24.6794L4.65543 24.9106L11.0204 28.9648C11.2033 29.0812 11.2511 29.3158 11.1269 29.4873ZM30.0745 21.2298C30.0619 21.2383 30.0498 21.2476 30.038 21.2574L26.7053 24.0252C25.7657 24.7162 24.7055 25.2178 23.5544 25.5161L21.6153 26.0185C20.3667 26.3422 19.039 26.4094 17.7758 26.2132C16.5448 26.0221 14.7222 25.8081 13.108 26.1586C12.1731 26.3615 11.3195 26.8652 10.6985 27.5657L5.72083 24.3953L8.13672 21.6444C9.05051 20.8356 10.2093 20.3553 11.3189 20.3259H11.3403C11.6845 20.3205 12.0487 20.4155 12.434 20.5167C12.5115 20.5368 12.5887 20.5572 12.6661 20.5767L16.1532 21.4588C16.2331 21.4788 16.3169 21.4812 16.3979 21.4652L20.9649 20.5724C21.172 20.5322 21.3895 20.5716 21.5617 20.681C21.673 20.7519 21.7598 20.8492 21.8128 20.9623C21.9693 21.2952 21.8218 21.6862 21.4719 21.8551L19.9138 22.6287C19.6982 22.7358 19.5894 22.9676 19.6507 23.1891C19.7122 23.4108 19.9272 23.5617 20.1717 23.5586L22.4829 23.5117C22.5288 23.5107 22.5741 23.5043 22.6178 23.4924L25.8744 22.6091C25.9258 22.5952 25.9744 22.5741 26.0189 22.5465L29.3044 20.5075C29.5801 20.3478 29.9471 20.2165 30.1423 20.4866C30.2945 20.6967 30.2981 21.075 30.0745 21.2298Z"/>
</mask>
<path d="M35.4638 16.8424H34.2141C34.0971 15.0608 33.6343 13.3413 32.8334 11.7249C32.7112 11.4774 32.3981 11.3702 32.1342 11.4848C31.8702 11.5997 31.7557 11.8933 31.8782 12.1408C32.614 13.6264 33.0433 15.2058 33.1586 16.8424H9.0365C8.74564 16.8424 8.50998 17.0633 8.50998 17.3361C8.50998 17.6088 8.74564 17.8297 9.0365 17.8297H35.4638C35.7303 17.8297 35.9467 18.0329 35.9467 18.2827V18.8853C35.9467 19.1351 35.7303 19.3383 35.4638 19.3383H2.53616C2.26974 19.3383 2.05331 19.1351 2.05331 18.8853V18.2827C2.05331 18.0329 2.26974 17.8297 2.53616 17.8297H6.58188C6.87274 17.8297 7.10867 17.6088 7.10867 17.3361C7.10867 17.0633 6.87274 16.8424 6.58188 16.8424H4.84137C5.07346 13.5623 6.57364 10.5109 9.10214 8.20295C11.5389 5.97897 14.6876 4.66972 18.0527 4.46216C18.0546 4.46216 18.0565 4.46241 18.0585 4.46216C18.2018 4.4534 18.3436 4.44671 18.4836 4.44181C18.5117 4.44104 18.5394 4.43975 18.5674 4.43898C18.6174 4.43743 18.6671 4.4364 18.7163 4.43537C18.8108 4.43383 18.9052 4.43228 19 4.43228C19.1258 4.43228 19.2516 4.4346 19.3771 4.43769C19.4142 4.43872 19.451 4.43975 19.4883 4.44078C19.585 4.44387 19.6814 4.44851 19.7778 4.4534C19.8289 4.45598 19.88 4.45855 19.9314 4.46164C24.2548 4.72792 28.2324 6.83602 30.7076 10.2163C30.8721 10.4408 31.2 10.4983 31.4398 10.3438C31.6796 10.1895 31.7406 9.88201 31.5758 9.65719C29.1401 6.33075 25.349 4.1521 21.1588 3.59018C21.4214 3.20801 21.5689 2.75812 21.5689 2.28685C21.5689 2.01851 21.4412 1.5238 20.5859 1.22868C20.1588 1.08138 19.5955 1 19 1C18.4043 1 17.8409 1.08138 17.4138 1.22868C16.5586 1.5238 16.4311 2.01851 16.4311 2.28685C16.4311 2.75683 16.5781 3.20595 16.839 3.58735C13.6576 4.00943 10.707 5.35989 8.36743 7.49528C5.63431 9.98991 4.01959 13.2934 3.78586 16.8421H2.53616C1.68912 16.8424 1 17.4885 1 18.2827V18.8853C1 19.6798 1.68912 20.3259 2.53616 20.3259H8.20923C7.92606 20.5077 7.65469 20.7117 7.40063 20.938L7.3902 20.9473C7.37399 20.9615 7.35861 20.9767 7.3446 20.9929L4.84439 23.8396C4.53073 23.6529 4.15939 23.5849 3.793 23.6508C3.41095 23.7193 3.08054 23.9233 2.86246 24.2251L1.87918 25.5846C1.42957 26.2065 1.60315 27.056 2.2659 27.4781L8.9942 31.7639C9.2381 31.9191 9.5199 32 9.80856 32C9.9003 32 9.99286 31.9918 10.0851 31.9753C10.4669 31.9068 10.7973 31.7028 11.0154 31.401L11.9987 30.0415C12.4483 29.4196 12.275 28.57 11.6122 28.148L11.5738 28.1235C12.0421 27.6252 12.6664 27.268 13.3456 27.1207C14.7769 26.8099 16.4611 27.01 17.6034 27.1874C19.0165 27.4068 20.5007 27.3319 21.8957 26.9706L23.8348 26.4681C25.1265 26.1333 26.3152 25.5696 27.3683 24.7924C27.3763 24.7865 27.3839 24.7806 27.3916 24.7741L30.7208 22.0096C31.2882 21.6025 31.4118 20.8974 31.216 20.3259H35.4638C36.3109 20.3259 37 19.6798 37 18.8856V18.2827C37 17.4885 36.3109 16.8424 35.4638 16.8424ZM19 1.98761C19.8869 1.98761 20.4183 2.19337 20.5156 2.30771C20.5084 2.77614 20.2557 3.20827 19.8446 3.46734C19.741 3.46219 19.6389 3.45807 19.537 3.45446C19.5026 3.45343 19.4683 3.45189 19.434 3.45112C19.287 3.447 19.142 3.44494 19 3.44494C18.8992 3.44494 18.7965 3.44622 18.6929 3.44828C18.6429 3.44906 18.5927 3.45034 18.5424 3.45189C18.4825 3.45369 18.4221 3.45549 18.3617 3.45781C18.2928 3.46064 18.2238 3.46348 18.1552 3.46708C17.744 3.20801 17.4916 2.77589 17.4844 2.30771C17.5817 2.19337 18.1131 1.98761 19 1.98761ZM22.7766 20.5641C22.7373 20.4807 22.6903 20.4014 22.6373 20.3259H27.6885L25.5045 21.6813L22.3912 22.5257L22.2855 22.528C22.8848 22.0596 23.1034 21.2597 22.7766 20.5641ZM17.0659 20.3259L16.3059 20.4745L15.7184 20.3259H17.0659ZM11.1269 29.4873L10.1439 30.8468C10.0838 30.9302 9.99258 30.9864 9.88712 31.0054C9.78192 31.0242 9.6748 31.0036 9.58609 30.947L2.85779 26.6613C2.67487 26.5449 2.62708 26.3105 2.75122 26.139L3.7345 24.7793C3.79465 24.6961 3.88556 24.6397 3.99103 24.6209C4.01657 24.6163 4.04211 24.6139 4.06738 24.6139C4.14703 24.6139 4.22476 24.6364 4.29205 24.6794L4.65543 24.9106L11.0204 28.9648C11.2033 29.0812 11.2511 29.3158 11.1269 29.4873ZM30.0745 21.2298C30.0619 21.2383 30.0498 21.2476 30.038 21.2574L26.7053 24.0252C25.7657 24.7162 24.7055 25.2178 23.5544 25.5161L21.6153 26.0185C20.3667 26.3422 19.039 26.4094 17.7758 26.2132C16.5448 26.0221 14.7222 25.8081 13.108 26.1586C12.1731 26.3615 11.3195 26.8652 10.6985 27.5657L5.72083 24.3953L8.13672 21.6444C9.05051 20.8356 10.2093 20.3553 11.3189 20.3259H11.3403C11.6845 20.3205 12.0487 20.4155 12.434 20.5167C12.5115 20.5368 12.5887 20.5572 12.6661 20.5767L16.1532 21.4588C16.2331 21.4788 16.3169 21.4812 16.3979 21.4652L20.9649 20.5724C21.172 20.5322 21.3895 20.5716 21.5617 20.681C21.673 20.7519 21.7598 20.8492 21.8128 20.9623C21.9693 21.2952 21.8218 21.6862 21.4719 21.8551L19.9138 22.6287C19.6982 22.7358 19.5894 22.9676 19.6507 23.1891C19.7122 23.4108 19.9272 23.5617 20.1717 23.5586L22.4829 23.5117C22.5288 23.5107 22.5741 23.5043 22.6178 23.4924L25.8744 22.6091C25.9258 22.5952 25.9744 22.5741 26.0189 22.5465L29.3044 20.5075C29.5801 20.3478 29.9471 20.2165 30.1423 20.4866C30.2945 20.6967 30.2981 21.075 30.0745 21.2298Z" fill="white"/>
<path d="M35.4638 16.8424H34.2141C34.0971 15.0608 33.6343 13.3413 32.8334 11.7249C32.7112 11.4774 32.3981 11.3702 32.1342 11.4848C31.8702 11.5997 31.7557 11.8933 31.8782 12.1408C32.614 13.6264 33.0433 15.2058 33.1586 16.8424H9.0365C8.74564 16.8424 8.50998 17.0633 8.50998 17.3361C8.50998 17.6088 8.74564 17.8297 9.0365 17.8297H35.4638C35.7303 17.8297 35.9467 18.0329 35.9467 18.2827V18.8853C35.9467 19.1351 35.7303 19.3383 35.4638 19.3383H2.53616C2.26974 19.3383 2.05331 19.1351 2.05331 18.8853V18.2827C2.05331 18.0329 2.26974 17.8297 2.53616 17.8297H6.58188C6.87274 17.8297 7.10867 17.6088 7.10867 17.3361C7.10867 17.0633 6.87274 16.8424 6.58188 16.8424H4.84137C5.07346 13.5623 6.57364 10.5109 9.10214 8.20295C11.5389 5.97897 14.6876 4.66972 18.0527 4.46216C18.0546 4.46216 18.0565 4.46241 18.0585 4.46216C18.2018 4.4534 18.3436 4.44671 18.4836 4.44181C18.5117 4.44104 18.5394 4.43975 18.5674 4.43898C18.6174 4.43743 18.6671 4.4364 18.7163 4.43537C18.8108 4.43383 18.9052 4.43228 19 4.43228C19.1258 4.43228 19.2516 4.4346 19.3771 4.43769C19.4142 4.43872 19.451 4.43975 19.4883 4.44078C19.585 4.44387 19.6814 4.44851 19.7778 4.4534C19.8289 4.45598 19.88 4.45855 19.9314 4.46164C24.2548 4.72792 28.2324 6.83602 30.7076 10.2163C30.8721 10.4408 31.2 10.4983 31.4398 10.3438C31.6796 10.1895 31.7406 9.88201 31.5758 9.65719C29.1401 6.33075 25.349 4.1521 21.1588 3.59018C21.4214 3.20801 21.5689 2.75812 21.5689 2.28685C21.5689 2.01851 21.4412 1.5238 20.5859 1.22868C20.1588 1.08138 19.5955 1 19 1C18.4043 1 17.8409 1.08138 17.4138 1.22868C16.5586 1.5238 16.4311 2.01851 16.4311 2.28685C16.4311 2.75683 16.5781 3.20595 16.839 3.58735C13.6576 4.00943 10.707 5.35989 8.36743 7.49528C5.63431 9.98991 4.01959 13.2934 3.78586 16.8421H2.53616C1.68912 16.8424 1 17.4885 1 18.2827V18.8853C1 19.6798 1.68912 20.3259 2.53616 20.3259H8.20923C7.92606 20.5077 7.65469 20.7117 7.40063 20.938L7.3902 20.9473C7.37399 20.9615 7.35861 20.9767 7.3446 20.9929L4.84439 23.8396C4.53073 23.6529 4.15939 23.5849 3.793 23.6508C3.41095 23.7193 3.08054 23.9233 2.86246 24.2251L1.87918 25.5846C1.42957 26.2065 1.60315 27.056 2.2659 27.4781L8.9942 31.7639C9.2381 31.9191 9.5199 32 9.80856 32C9.9003 32 9.99286 31.9918 10.0851 31.9753C10.4669 31.9068 10.7973 31.7028 11.0154 31.401L11.9987 30.0415C12.4483 29.4196 12.275 28.57 11.6122 28.148L11.5738 28.1235C12.0421 27.6252 12.6664 27.268 13.3456 27.1207C14.7769 26.8099 16.4611 27.01 17.6034 27.1874C19.0165 27.4068 20.5007 27.3319 21.8957 26.9706L23.8348 26.4681C25.1265 26.1333 26.3152 25.5696 27.3683 24.7924C27.3763 24.7865 27.3839 24.7806 27.3916 24.7741L30.7208 22.0096C31.2882 21.6025 31.4118 20.8974 31.216 20.3259H35.4638C36.3109 20.3259 37 19.6798 37 18.8856V18.2827C37 17.4885 36.3109 16.8424 35.4638 16.8424ZM19 1.98761C19.8869 1.98761 20.4183 2.19337 20.5156 2.30771C20.5084 2.77614 20.2557 3.20827 19.8446 3.46734C19.741 3.46219 19.6389 3.45807 19.537 3.45446C19.5026 3.45343 19.4683 3.45189 19.434 3.45112C19.287 3.447 19.142 3.44494 19 3.44494C18.8992 3.44494 18.7965 3.44622 18.6929 3.44828C18.6429 3.44906 18.5927 3.45034 18.5424 3.45189C18.4825 3.45369 18.4221 3.45549 18.3617 3.45781C18.2928 3.46064 18.2238 3.46348 18.1552 3.46708C17.744 3.20801 17.4916 2.77589 17.4844 2.30771C17.5817 2.19337 18.1131 1.98761 19 1.98761ZM22.7766 20.5641C22.7373 20.4807 22.6903 20.4014 22.6373 20.3259H27.6885L25.5045 21.6813L22.3912 22.5257L22.2855 22.528C22.8848 22.0596 23.1034 21.2597 22.7766 20.5641ZM17.0659 20.3259L16.3059 20.4745L15.7184 20.3259H17.0659ZM11.1269 29.4873L10.1439 30.8468C10.0838 30.9302 9.99258 30.9864 9.88712 31.0054C9.78192 31.0242 9.6748 31.0036 9.58609 30.947L2.85779 26.6613C2.67487 26.5449 2.62708 26.3105 2.75122 26.139L3.7345 24.7793C3.79465 24.6961 3.88556 24.6397 3.99103 24.6209C4.01657 24.6163 4.04211 24.6139 4.06738 24.6139C4.14703 24.6139 4.22476 24.6364 4.29205 24.6794L4.65543 24.9106L11.0204 28.9648C11.2033 29.0812 11.2511 29.3158 11.1269 29.4873ZM30.0745 21.2298C30.0619 21.2383 30.0498 21.2476 30.038 21.2574L26.7053 24.0252C25.7657 24.7162 24.7055 25.2178 23.5544 25.5161L21.6153 26.0185C20.3667 26.3422 19.039 26.4094 17.7758 26.2132C16.5448 26.0221 14.7222 25.8081 13.108 26.1586C12.1731 26.3615 11.3195 26.8652 10.6985 27.5657L5.72083 24.3953L8.13672 21.6444C9.05051 20.8356 10.2093 20.3553 11.3189 20.3259H11.3403C11.6845 20.3205 12.0487 20.4155 12.434 20.5167C12.5115 20.5368 12.5887 20.5572 12.6661 20.5767L16.1532 21.4588C16.2331 21.4788 16.3169 21.4812 16.3979 21.4652L20.9649 20.5724C21.172 20.5322 21.3895 20.5716 21.5617 20.681C21.673 20.7519 21.7598 20.8492 21.8128 20.9623C21.9693 21.2952 21.8218 21.6862 21.4719 21.8551L19.9138 22.6287C19.6982 22.7358 19.5894 22.9676 19.6507 23.1891C19.7122 23.4108 19.9272 23.5617 20.1717 23.5586L22.4829 23.5117C22.5288 23.5107 22.5741 23.5043 22.6178 23.4924L25.8744 22.6091C25.9258 22.5952 25.9744 22.5741 26.0189 22.5465L29.3044 20.5075C29.5801 20.3478 29.9471 20.2165 30.1423 20.4866C30.2945 20.6967 30.2981 21.075 30.0745 21.2298Z" stroke="white" stroke-width="0.4" mask="url(#path-1-outside-1_1_3898)"/>
</svg>
