<svg width="41" height="34" viewBox="0 0 41 34" fill="none" xmlns="http://www.w3.org/2000/svg">
<path d="M19.103 25.0896C18.9606 24.2612 18.8378 23.5448 18.6812 22.625C20.5336 24.0877 22.2241 25.4216 24 26.8228C22.2633 28.209 20.5888 29.5466 18.772 31C18.8983 30.0261 18.998 29.2537 19.1047 28.4328C17.8805 28.2369 16.6972 28.0989 15.5334 27.8545C12.035 27.125 8.70568 25.9366 5.99558 23.3993C5.1201 22.5802 4.33892 21.5634 3.77661 20.4869C2.54702 18.1325 2.83351 15.7743 4.24105 13.5746C5.59343 11.4646 7.54548 10.1287 9.76267 9C9.77868 9.6791 9.73775 10.1698 9.17723 10.5989C8.37826 11.209 7.58641 11.8843 6.96004 12.6772C5.12899 14.9925 5.21263 17.6772 7.09172 19.9646C8.36758 21.5168 10.0064 22.5131 11.7806 23.3004C14.0832 24.319 16.4961 24.8526 19.103 25.0896Z" fill="#FC8730"/>
<path d="M24.5216 28.8487C24.9963 28.4429 25.4711 28.0372 26.0094 27.5756C25.3608 27.0246 24.759 26.5127 24 25.8669C24.5383 25.785 24.9077 25.7291 25.2772 25.6714C27.7931 25.2824 30.207 24.536 32.4338 23.1419C33.7176 22.3396 34.8711 21.3531 35.6785 19.9534C36.832 17.9525 36.8521 15.9013 35.6184 13.9711C35.0399 13.0646 34.2359 12.3182 33.4719 11.5811C32.835 10.9669 32.7948 11.0209 32.8717 10.0418C32.9085 10.0269 32.9553 9.98969 32.9804 10.0027C35.0717 11.0972 36.9072 12.5546 38.0958 14.8161C39.4298 17.3568 39.2627 19.8734 37.7598 22.2596C36.2319 24.6849 34.0219 26.1051 31.6196 27.1903C29.4849 28.1544 27.2531 28.7035 24.9679 28.992C24.8325 29.0088 24.6954 28.9939 24.5583 28.9939C24.5466 28.9474 24.5349 28.8971 24.5216 28.8487Z" fill="#FC8730"/>
<path d="M32.7516 16.3381C32.7516 18.5366 31.0243 20.3189 28.8937 20.3189H13.7232C11.5925 20.3189 9.86523 18.5366 9.86523 16.3381V8.19874C9.86523 6.00024 11.5925 4.21798 13.7232 4.21798H15.1554C15.749 4.21798 16.3052 3.91177 16.6339 3.40202L17.6593 1.81595C17.9898 1.30621 18.5442 1 19.1378 1H23.4773C24.0708 1 24.627 1.30621 24.9558 1.81595L25.9811 3.40202C26.3116 3.91177 26.8661 4.21798 27.4596 4.21798H28.8919C31.0225 4.21798 32.7498 6.00024 32.7498 8.19874V16.3381H32.7516Z" fill="#FC8730"/>
<path d="M20.5977 14.9986C20.9038 14.9713 21.1205 14.9508 21.3736 14.9286C21.3736 12.9262 21.3736 10.9357 21.3736 8.92135C21.1288 8.89574 20.9153 8.87525 20.6043 8.84282C20.6043 8.30338 20.5878 7.76735 20.6208 7.23303C20.6258 7.14426 20.8458 6.99916 20.9666 6.99916C22.396 6.99404 23.8304 6.92405 25.2516 7.04184C28.213 7.28425 29.9286 9.85512 29.3529 13.0559C28.9194 15.4629 27.3411 16.7893 24.7403 16.8781C23.5144 16.9208 22.2852 16.8832 21.0576 16.8969C20.7433 16.9003 20.5778 16.8166 20.5927 16.4547C20.6109 15.987 20.5977 15.5175 20.5977 14.9986ZM24.1332 8.92305C24.1332 10.9442 24.1332 12.933 24.1332 14.9166C25.1688 15.0225 25.8141 14.6486 26.1466 13.6978C26.537 12.5831 26.5734 11.4376 26.2211 10.3041C25.8902 9.23886 25.2367 8.81551 24.1332 8.92305Z" fill="white"/>
<path d="M18.6244 11.6391C19.3077 12.2742 19.7643 12.9928 19.751 13.9625C19.7378 14.9628 19.3507 15.7481 18.5648 16.3285C16.8889 17.5679 14.3312 17.1667 13.1797 15.4357C13.5916 14.9611 14.0135 14.4729 14.4652 13.9505C14.6389 14.099 14.7696 14.2783 14.9416 14.3449C15.4247 14.5326 15.9161 14.7716 16.4174 14.8075C16.9915 14.8485 17.3174 14.3773 17.3108 13.7525C17.3042 13.1414 17.0163 12.8375 16.3942 12.7897C15.2692 12.7026 15.2692 12.7026 15.2924 11.5401C15.2957 11.4104 15.3089 11.2823 15.3238 11.057C15.6646 11.057 15.9872 11.0758 16.3082 11.0536C16.9865 11.0075 17.3306 10.6456 17.3075 10.0362C17.2843 9.42844 16.8343 8.95558 16.204 9.06654C15.6729 9.16043 15.1782 9.47283 14.5959 9.71694C14.265 9.27822 13.8646 8.74731 13.4725 8.22836C14.6223 6.70222 17.0924 6.37616 18.5053 7.52503C19.7593 8.54587 19.8271 10.2666 18.6244 11.6391Z" fill="white"/>
</svg>
